AmiriNext.glyphspackage
{
glyphname = exclam;
layers = (
{
layerId = "7FE84AD5-D318-40C5-A81A-3CDC73FF77D2";
shapes = (
{
closed = 1;
nodes = (
(122,156,o),
(127,160,o),
(131,168,c),
(154,393,o),
(165,539,o),
(165,609,cs),
(165,623,o),
(161,636,o),
(154,648,cs),
(147,660,o),
(136,666,o),
(122,666,cs),
(108,666,o),
(96,660,o),
(87,648,cs),
(78,636,o),
(73,623,o),
(73,609,cs),
(73,538,o),
(83,391,o),
(103,166,c),
(105,161,o),
(109,158,o),
(115,155,c)
);
},
{
alignment = -1;
pos = (-39,0);
ref = dot.2;
}
);
width = 235;
},
{
layerId = "037FF2D3-C03F-44B0-90AB-89AFD43EFA27";
shapes = (
{
closed = 1;
nodes = (
(151,671,o),
(165,665,o),
(177,653,cs),
(189,641,o),
(195,624,o),
(195,604,cs),
(195,591,o),
(190,535,o),
(180,435,cs),
(171,358,o),
(162,285,o),
(154,216,cs),
(152,199,o),
(146,191,o),
(134,191,cs),
(121,191,o),
(113,200,o),
(111,217,cs),
(101,291,o),
(93,360,o),
(86,424,cs),
(76,522,o),
(70,582,o),
(70,605,cs),
(70,625,o),
(77,641,o),
(89,653,cs),
(101,665,o),
(117,671,o),
(135,671,cs)
);
},
{
alignment = -1;
pos = (-27,0);
ref = dot.2;
}
);
width = 235;
}
);
unicode = 33;
}
{
glyphname = parenleft;
layers = (
{
layerId = "7FE84AD5-D318-40C5-A81A-3CDC73FF77D2";
shapes = (
{
closed = 1;
nodes = (
(415,-369,l),
(360,-321,o),
(316,-256,o),
(283,-173,cs),
(241,-66,o),
(220,47,o),
(220,166,cs),
(220,255,o),
(232,342,o),
(256,426,cs),
(291,550,o),
(345,640,o),
(415,696,c),
(400,717,l),
(361,686,o),
(326,650,o),
(294,611,cs),
(196,490,o),
(146,341,o),
(146,166,cs),
(146,84,o),
(158,6,o),
(182,-68,cs),
(224,-199,o),
(297,-305,o),
(400,-386,c)
);
}
);
width = 458;
},
{
layerId = "037FF2D3-C03F-44B0-90AB-89AFD43EFA27";
shapes = (
{
closed = 1;
nodes = (
(259,317,o),
(289,453,o),
(350,574,cs),
(378,630,o),
(406,670,o),
(433,693,c),
(421,720,ls),
(366,691,o),
(316,646,o),
(269,586,cs),
(178,469,o),
(133,330,o),
(133,167,cs),
(133,3,o),
(178,-136,o),
(269,-253,cs),
(316,-313,o),
(366,-358,o),
(421,-387,cs),
(433,-360,l),
(406,-337,o),
(378,-297,o),
(350,-241,cs),
(289,-120,o),
(259,16,o),
(259,167,cs)
);
}
);
width = 458;
}
);
unicode = 40;
}
{
glyphname = parenright;
layers = (
{
layerId = "7FE84AD5-D318-40C5-A81A-3CDC73FF77D2";
shapes = (
{
closed = 1;
nodes = (
(161,-305,o),
(234,-199,o),
(276,-68,cs),
(300,6,o),
(312,84,o),
(312,166,cs),
(312,341,o),
(263,490,o),
(165,611,cs),
(133,650,o),
(97,686,o),
(58,717,c),
(44,696,l),
(114,640,o),
(167,550,o),
(202,426,cs),
(226,342,o),
(238,255,o),
(238,166,cs),
(238,47,o),
(217,-66,o),
(175,-173,cs),
(142,-256,o),
(99,-321,o),
(44,-369,c),
(58,-386,l)
);
}
);
width = 458;
},
{
layerId = "037FF2D3-C03F-44B0-90AB-89AFD43EFA27";
shapes = (
{
closed = 1;
nodes = (
(200,317,o),
(170,453,o),
(109,574,cs),
(81,630,o),
(53,670,o),
(26,693,c),
(38,720,ls),
(93,691,o),
(143,646,o),
(190,586,cs),
(281,469,o),
(326,330,o),
(326,167,cs),
(326,3,o),
(281,-136,o),
(190,-253,cs),
(143,-313,o),
(93,-358,o),
(38,-387,cs),
(26,-360,l),
(53,-337,o),
(81,-297,o),
(109,-241,cs),
(170,-120,o),
(200,16,o),
(200,167,cs)
);
}
);
width = 458;
}
);
unicode = 41;
}
{
glyphname = period;
layers = (
{
layerId = "7FE84AD5-D318-40C5-A81A-3CDC73FF77D2";
shapes = (
{
closed = 1;
nodes = (
(125,221,o),
(134,222,o),
(148,212,cs),
(236,151,ls),
(246,144,o),
(247,131,o),
(239,111,cs),
(200,18,ls),
(193,1,o),
(180,-1,o),
(162,13,cs),
(87,70,ls),
(74,80,o),
(70,90,o),
(75,101,cs),
(120,208,ls)
);
}
);
width = 317;
},
{
layerId = "037FF2D3-C03F-44B0-90AB-89AFD43EFA27";
shapes = (
{
closed = 1;
nodes = (
(110,223,o),
(116,229,o),
(125,232,cs),
(134,235,o),
(145,233,o),
(157,224,cs),
(244,163,ls),
(260,151,o),
(263,132,o),
(252,105,c),
(213,12,ls),
(208,1,o),
(200,-6,o),
(190,-10,cs),
(180,-14,o),
(168,-10,o),
(153,1,cs),
(78,58,ls),
(60,72,o),
(55,89,o),
(62,107,cs),
(106,214,ls)
);
}
);
width = 317;
}
);
unicode = 46;
}
{
glyphname = slash;
layers = (
{
layerId = "7FE84AD5-D318-40C5-A81A-3CDC73FF77D2";
shapes = (
{
closed = 1;
nodes = (
(309,702,o),
(312,699,o),
(314,693,c),
(71,-164,ls),
(70,-168,o),
(66,-172,o),
(58,-178,cs),
(51,-183,o),
(43,-186,o),
(33,-186,cs),
(29,-186,o),
(25,-185,o),
(22,-184,cs),
(19,-183,o),
(17,-182,o),
(16,-181,cs),
(15,-179,l),
(263,688,ls),
(263,689,o),
(265,691,o),
(268,693,cs),
(271,695,o),
(276,697,o),
(282,699,cs),
(288,701,o),
(295,702,o),
(302,702,cs)
);
}
);
width = 344;
},
{
layerId = "037FF2D3-C03F-44B0-90AB-89AFD43EFA27";
shapes = (
{
closed = 1;
nodes = (
(325,711,o),
(332,709,o),
(333,704,c),
(81,-182,l),
(80,-187,o),
(74,-192,o),
(66,-196,cs),
(58,-200,o),
(47,-203,o),
(32,-203,cs),
(28,-203,o),
(24,-202,o),
(21,-201,cs),
(18,-200,o),
(16,-199,o),
(15,-198,cs),
(14,-196,l),
(267,690,l),
(270,695,o),
(275,700,o),
(283,705,cs),
(291,710,o),
(301,711,o),
(314,711,cs)
);
}
);
width = 344;
}
);
unicode = 47;
}
{
glyphname = bracketleft;
layers = (
{
layerId = "7FE84AD5-D318-40C5-A81A-3CDC73FF77D2";
shapes = (
{
closed = 1;
nodes = (
(314,716,l),
(317,710,ls),
(317,709,o),
(317,708,o),
(317,707,cs),
(317,700,o),
(315,695,o),
(309,692,cs),
(308,692,o),
(308,691,o),
(308,691,cs),
(283,683,o),
(244,676,o),
(193,669,c),
(193,-339,l),
(259,-349,l),
(280,-353,o),
(297,-357,o),
(308,-361,c),
(315,-365,o),
(317,-370,o),
(317,-377,cs),
(317,-379,o),
(317,-381,o),
(316,-382,cs),
(315,-385,ls),
(314,-386,l),
(227,-381,l),
(206,-380,o),
(185,-380,o),
(165,-380,c),
(154,-379,o),
(148,-371,o),
(146,-357,c),
(146,688,ls),
(146,698,o),
(150,704,o),
(156,708,cs),
(159,710,o),
(161,710,o),
(165,710,cs)
);
}
);
width = 361;
},
{
layerId = "037FF2D3-C03F-44B0-90AB-89AFD43EFA27";
shapes = (
{
closed = 1;
nodes = (
(206,713,o),
(273,719,o),
(326,729,c),
(329,729,o),
(331,727,o),
(332,723,cs),
(332,722,o),
(332,721,o),
(332,720,cs),
(332,715,o),
(329,707,o),
(323,695,cs),
(323,694,o),
(322,694,o),
(322,694,cs),
(309,687,o),
(280,680,o),
(232,672,cs),
(223,670,o),
(216,669,o),
(212,668,c),
(212,-338,l),
(217,-339,o),
(225,-341,o),
(238,-343,cs),
(277,-350,o),
(305,-356,o),
(322,-364,cs),
(326,-366,o),
(329,-371,o),
(331,-379,cs),
(332,-383,o),
(332,-387,o),
(332,-390,cs),
(332,-395,o),
(330,-397,o),
(326,-398,c),
(272,-388,o),
(205,-383,o),
(126,-383,c),
(116,-382,o),
(110,-376,o),
(108,-365,cs),
(108,-363,o),
(107,-362,o),
(107,-360,cs),
(107,690,ls),
(107,700,o),
(113,708,o),
(122,712,cs),
(124,713,o),
(125,713,o),
(126,713,cs)
);
}
);
width = 361;
}
);
unicode = 91;
}
{
glyphname = backslash;
layers = (
{
layerId = "7FE84AD5-D318-40C5-A81A-3CDC73FF77D2";
shapes = (
{
closed = 1;
nodes = (
(36,702,o),
(32,699,o),
(30,693,c),
(274,-164,ls),
(275,-168,o),
(279,-172,o),
(287,-178,cs),
(294,-183,o),
(302,-186,o),
(312,-186,cs),
(316,-186,o),
(320,-185,o),
(323,-184,cs),
(326,-183,o),
(327,-182,o),
(328,-181,cs),
(330,-179,l),
(82,688,ls),
(82,689,o),
(80,691,o),
(77,693,cs),
(74,695,o),
(69,697,o),
(63,699,cs),
(57,701,o),
(50,702,o),
(43,702,cs)
);
}
);
width = 344;
},
{
layerId = "037FF2D3-C03F-44B0-90AB-89AFD43EFA27";
shapes = (
{
closed = 1;
nodes = (
(19,711,o),
(13,709,o),
(12,704,c),
(264,-182,l),
(265,-187,o),
(270,-192,o),
(278,-196,cs),
(286,-200,o),
(298,-203,o),
(313,-203,cs),
(317,-203,o),
(321,-202,o),
(324,-201,cs),
(327,-200,o),
(328,-199,o),
(329,-198,cs),
(331,-196,l),
(78,690,l),
(75,695,o),
(70,700,o),
(62,705,cs),
(54,710,o),
(43,711,o),
(30,711,cs)
);
}
);
width = 344;
}
);
unicode = 92;
}
{
glyphname = bracketright;
layers = (
{
layerId = "7FE84AD5-D318-40C5-A81A-3CDC73FF77D2";
shapes = (
{
closed = 1;
nodes = (
(47,716,l),
(44,710,ls),
(44,709,o),
(44,708,o),
(44,707,cs),
(44,700,o),
(46,695,o),
(52,692,cs),
(53,692,o),
(54,691,o),
(54,691,cs),
(79,683,o),
(117,676,o),
(168,669,c),
(168,-339,l),
(103,-349,l),
(82,-353,o),
(65,-357,o),
(54,-361,c),
(47,-365,o),
(44,-370,o),
(44,-377,cs),
(44,-379,o),
(44,-381,o),
(45,-382,cs),
(46,-385,ls),
(47,-386,l),
(135,-381,l),
(156,-380,o),
(176,-380,o),
(196,-380,c),
(207,-379,o),
(213,-371,o),
(215,-357,c),
(215,688,ls),
(215,698,o),
(212,704,o),
(206,708,cs),
(203,710,o),
(200,710,o),
(196,710,cs)
);
}
);
width = 361;
},
{
layerId = "037FF2D3-C03F-44B0-90AB-89AFD43EFA27";
shapes = (
{
closed = 1;
nodes = (
(155,713,o),
(88,719,o),
(35,729,c),
(32,729,o),
(31,727,o),
(30,723,cs),
(30,722,o),
(29,721,o),
(29,720,cs),
(29,715,o),
(32,707,o),
(38,695,cs),
(38,694,o),
(39,694,o),
(39,694,cs),
(52,687,o),
(81,680,o),
(129,672,cs),
(138,670,o),
(145,669,o),
(149,668,c),
(149,-338,l),
(144,-339,o),
(136,-341,o),
(123,-343,cs),
(84,-350,o),
(56,-356,o),
(39,-364,cs),
(35,-366,o),
(33,-371,o),
(31,-379,cs),
(30,-383,o),
(29,-387,o),
(29,-390,cs),
(29,-395,o),
(31,-397,o),
(35,-398,c),
(89,-388,o),
(156,-383,o),
(235,-383,c),
(245,-382,o),
(251,-376,o),
(253,-365,cs),
(253,-363,o),
(254,-362,o),
(254,-360,cs),
(254,690,ls),
(254,700,o),
(249,708,o),
(240,712,cs),
(238,713,o),
(236,713,o),
(235,713,cs)
);
}
);
width = 361;
}
);
unicode = 93;
}
{
glyphname = braceleft;
layers = (
{
layerId = "7FE84AD5-D318-40C5-A81A-3CDC73FF77D2";
shapes = (
{
closed = 1;
nodes = (
(187,-273,o),
(209,-321,o),
(254,-371,cs),
(260,-379,o),
(259,-387,o),
(252,-394,cs),
(245,-401,o),
(237,-402,o),
(229,-395,cs),
(177,-351,o),
(150,-286,o),
(149,-201,cs),
(148,-163,o),
(157,-117,o),
(177,-66,cs),
(195,-17,o),
(206,18,o),
(209,38,cs),
(215,83,o),
(193,119,o),
(142,150,c),
(142,182,l),
(193,213,o),
(215,249,o),
(209,294,cs),
(206,315,o),
(195,349,o),
(177,398,cs),
(158,450,o),
(149,495,o),
(149,533,cs),
(151,618,o),
(177,682,o),
(229,726,cs),
(237,733,o),
(245,733,o),
(252,726,cs),
(259,718,o),
(259,710,o),
(253,702,cs),
(208,652,o),
(187,603,o),
(190,556,cs),
(192,530,o),
(202,502,o),
(221,470,cs),
(254,415,o),
(265,357,o),
(256,296,c),
(247,237,o),
(222,194,o),
(182,166,c),
(222,137,o),
(247,94,o),
(256,36,c),
(265,-26,o),
(254,-83,o),
(221,-138,cs),
(202,-170,o),
(192,-199,o),
(190,-225,cs)
);
}
);
width = 397;
},
{
layerId = "037FF2D3-C03F-44B0-90AB-89AFD43EFA27";
shapes = (
{
closed = 1;
nodes = (
(184,121,o),
(208,84,o),
(199,39,cs),
(196,22,o),
(185,-12,o),
(166,-62,cs),
(149,-107,o),
(141,-154,o),
(142,-201,cs),
(144,-290,o),
(171,-356,o),
(226,-399,cs),
(241,-411,o),
(253,-412,o),
(261,-402,cs),
(270,-390,o),
(270,-378,o),
(258,-366,cs),
(215,-321,o),
(195,-274,o),
(197,-225,cs),
(198,-208,o),
(209,-182,o),
(231,-145,cs),
(266,-88,o),
(278,-27,o),
(266,38,cs),
(256,97,o),
(227,140,o),
(182,166,c),
(227,192,o),
(256,235,o),
(266,294,cs),
(278,359,o),
(266,420,o),
(231,477,cs),
(209,514,o),
(198,540,o),
(197,557,cs),
(195,606,o),
(215,653,o),
(258,698,cs),
(270,710,o),
(270,722,o),
(261,734,cs),
(253,744,o),
(241,743,o),
(226,731,cs),
(171,688,o),
(144,622,o),
(142,533,cs),
(141,486,o),
(149,439,o),
(166,394,cs),
(185,344,o),
(196,310,o),
(199,293,cs),
(208,248,o),
(184,211,o),
(129,179,c),
(129,153,l)
);
}
);
width = 397;
}
);
unicode = 123;
}
{
glyphname = bar;
layers = (
{
layerId = "7FE84AD5-D318-40C5-A81A-3CDC73FF77D2";
shapes = (
{
closed = 1;
nodes = (
(82,-385,o),
(82,-385,o),
(84,-385,cs),
(111,-380,o),
(125,-375,o),
(125,-369,cs),
(125,709,l),
(125,713,o),
(123,715,o),
(117,715,c),
(108,715,o),
(96,713,o),
(81,708,cs),
(80,707,o),
(78,707,o),
(77,706,c),
(76,700,l),
(76,-377,ls),
(76,-377,o),
(75,-379,o),
(75,-380,cs),
(75,-381,o),
(75,-382,o),
(75,-382,cs),
(75,-384,o),
(78,-385,o),
(81,-385,cs)
);
}
);
width = 200;
},
{
layerId = "037FF2D3-C03F-44B0-90AB-89AFD43EFA27";
shapes = (
{
closed = 1;
nodes = (
(125,-374,o),
(110,-378,o),
(81,-384,cs),
(79,-384,o),
(79,-384,o),
(78,-384,cs),
(75,-384,o),
(72,-383,o),
(72,-381,cs),
(72,-381,o),
(73,-380,o),
(73,-379,cs),
(73,-378,o),
(73,-376,o),
(73,-376,cs),
(73,705,l),
(74,710,l),
(75,711,o),
(77,712,o),
(78,713,cs),
(89,716,o),
(102,718,o),
(116,718,c),
(122,718,o),
(124,716,o),
(124,712,c),
(125,-370,ls)
);
}
);
width = 197;
}
);
unicode = 124;
}
{
glyphname = braceright;
layers = (
{
layerId = "7FE84AD5-D318-40C5-A81A-3CDC73FF77D2";
shapes = (
{
closed = 1;
nodes = (
(220,-351,o),
(248,-286,o),
(249,-201,cs),
(250,-163,o),
(240,-117,o),
(220,-66,cs),
(202,-17,o),
(191,18,o),
(188,38,cs),
(182,83,o),
(205,119,o),
(256,150,c),
(256,182,l),
(205,213,o),
(182,249,o),
(188,294,cs),
(191,315,o),
(202,349,o),
(220,398,cs),
(239,450,o),
(249,495,o),
(249,533,cs),
(247,618,o),
(220,682,o),
(168,726,cs),
(160,733,o),
(152,733,o),
(145,726,cs),
(138,718,o),
(138,710,o),
(144,702,cs),
(189,652,o),
(211,603,o),
(208,556,cs),
(206,530,o),
(195,502,o),
(176,470,cs),
(143,415,o),
(133,357,o),
(142,296,c),
(151,237,o),
(176,194,o),
(216,166,c),
(176,137,o),
(151,94,o),
(142,36,c),
(133,-26,o),
(143,-83,o),
(176,-138,cs),
(195,-170,o),
(206,-199,o),
(208,-225,cs),
(211,-273,o),
(189,-321,o),
(144,-371,cs),
(138,-379,o),
(138,-387,o),
(145,-394,cs),
(152,-401,o),
(160,-402,o),
(168,-395,cs)
);
}
);
width = 397;
},
{
layerId = "037FF2D3-C03F-44B0-90AB-89AFD43EFA27";
shapes = (
{
closed = 1;
nodes = (
(211,121,o),
(187,84,o),
(196,39,cs),
(199,22,o),
(210,-12,o),
(229,-62,cs),
(246,-107,o),
(254,-154,o),
(253,-201,cs),
(251,-290,o),
(224,-356,o),
(169,-399,cs),
(154,-411,o),
(142,-412,o),
(134,-402,cs),
(125,-390,o),
(125,-378,o),
(137,-366,cs),
(180,-321,o),
(200,-274,o),
(198,-225,cs),
(197,-208,o),
(186,-182,o),
(164,-145,cs),
(129,-88,o),
(117,-27,o),
(129,38,cs),
(139,97,o),
(168,140,o),
(213,166,c),
(168,192,o),
(139,235,o),
(129,294,cs),
(117,359,o),
(129,420,o),
(164,477,cs),
(186,514,o),
(197,540,o),
(198,557,cs),
(200,606,o),
(180,653,o),
(137,698,cs),
(125,710,o),
(125,722,o),
(134,734,cs),
(142,744,o),
(154,743,o),
(169,731,cs),
(224,688,o),
(251,622,o),
(253,533,cs),
(254,486,o),
(246,439,o),
(229,394,cs),
(210,344,o),
(199,310,o),
(196,293,cs),
(187,248,o),
(211,211,o),
(266,179,c),
(266,153,l)
);
}
);
width = 397;
}
);
unicode = 125;
}
{
glyphname = brokenbar;
layers = (
{
layerId = "7FE84AD5-D318-40C5-A81A-3CDC73FF77D2";
shapes = (
{
closed = 1;
nodes = (
(82,-384,o),
(90,-382,o),
(103,-379,cs),
(116,-376,o),
(124,-372,o),
(124,-369,c),
(124,108,l),
(124,110,ls),
(124,111,o),
(123,112,o),
(122,113,cs),
(121,114,o),
(119,114,o),
(116,114,cs),
(102,114,o),
(89,112,o),
(78,109,cs),
(74,108,o),
(72,106,o),
(73,102,c),
(73,-376,ls),
(73,-376,o),
(73,-378,o),
(73,-379,cs),
(73,-380,o),
(73,-382,o),
(73,-382,cs),
(73,-382,o),
(73,-383,o),
(74,-383,cs),
(75,-383,o),
(76,-384,o),
(78,-384,cs)
);
},
{
closed = 1;
nodes = (
(82,234,o),
(90,236,o),
(103,239,cs),
(116,242,o),
(124,246,o),
(124,249,c),
(124,712,l),
(124,713,ls),
(124,714,o),
(123,715,o),
(122,716,cs),
(121,717,o),
(119,718,o),
(116,718,cs),
(102,718,o),
(89,716,o),
(78,713,cs),
(74,712,o),
(72,709,o),
(73,705,c),
(73,242,ls),
(73,242,o),
(73,241,o),
(73,240,cs),
(73,239,o),
(73,237,o),
(73,237,cs),
(73,237,o),
(73,235,o),
(74,235,cs),
(75,235,o),
(76,234,o),
(78,234,cs)
);
}
);
width = 200;
},
{
layerId = "037FF2D3-C03F-44B0-90AB-89AFD43EFA27";
shapes = (
{
closed = 1;
nodes = (
(125,236,o),
(118,232,o),
(104,229,cs),
(90,226,o),
(82,225,o),
(78,225,cs),
(76,225,o),
(75,225,o),
(74,225,cs),
(73,225,o),
(73,227,o),
(73,227,cs),
(73,227,o),
(73,229,o),
(73,230,cs),
(73,231,o),
(73,232,o),
(73,232,cs),
(73,705,l),
(72,709,o),
(74,712,o),
(78,713,cs),
(89,716,o),
(102,718,o),
(117,718,cs),
(120,718,o),
(122,717,o),
(123,716,cs),
(124,715,o),
(125,714,o),
(125,713,cs),
(125,712,l),
(125,239,l)
);
},
{
closed = 1;
nodes = (
(73,92,l),
(72,96,o),
(74,99,o),
(78,100,cs),
(89,103,o),
(102,104,o),
(117,104,cs),
(120,104,o),
(122,104,o),
(123,103,cs),
(124,102,o),
(125,101,o),
(125,100,cs),
(125,99,l),
(125,-369,l),
(125,-372,o),
(118,-376,o),
(104,-379,cs),
(90,-382,o),
(82,-384,o),
(78,-384,cs),
(76,-384,o),
(75,-383,o),
(74,-383,cs),
(73,-383,o),
(73,-382,o),
(73,-382,cs),
(73,-382,o),
(73,-380,o),
(73,-379,cs),
(73,-378,o),
(73,-376,o),
(73,-376,cs)
);
}
);
width = 205;
}
);
unicode = 166;
}
{
glyphname = guillemetleft;
layers = (
{
layerId = "7FE84AD5-D318-40C5-A81A-3CDC73FF77D2";
shapes = (
{
closed = 1;
nodes = (
(97,98,o),
(127,38,o),
(186,-13,cs),
(192,-18,o),
(192,-22,o),
(189,-28,cs),
(185,-34,o),
(180,-36,o),
(172,-32,cs),
(133,-12,o),
(104,15,o),
(82,51,cs),
(60,87,o),
(49,125,o),
(49,166,cs),
(49,207,o),
(60,246,o),
(82,281,cs),
(104,317,o),
(134,345,o),
(172,364,cs),
(180,368,o),
(186,366,o),
(189,360,cs),
(192,354,o),
(192,350,o),
(186,345,cs),
(127,298,o),
(97,238,o),
(97,166,cs)
);
},
{
closed = 1;
nodes = (
(272,98,o),
(302,38,o),
(361,-13,cs),
(367,-18,o),
(367,-22,o),
(364,-28,cs),
(360,-34,o),
(355,-36,o),
(347,-32,cs),
(308,-12,o),
(278,15,o),
(256,51,cs),
(234,87,o),
(224,125,o),
(224,166,cs),
(224,207,o),
(234,246,o),
(256,281,cs),
(278,317,o),
(309,345,o),
(347,364,cs),
(355,368,o),
(361,366,o),
(364,360,cs),
(367,354,o),
(367,350,o),
(361,345,cs),
(302,298,o),
(272,238,o),
(272,166,cs)
);
}
);
width = 415;
},
{
layerId = "037FF2D3-C03F-44B0-90AB-89AFD43EFA27";
shapes = (
{
closed = 1;
nodes = (
(140,288,o),
(112,234,o),
(112,168,cs),
(112,102,o),
(140,47,o),
(195,-1,cs),
(206,-10,o),
(208,-22,o),
(201,-36,cs),
(194,-50,o),
(182,-53,o),
(166,-45,c),
(125,-24,o),
(92,5,o),
(69,43,cs),
(46,81,o),
(34,123,o),
(34,167,cs),
(34,211,o),
(46,252,o),
(70,290,cs),
(94,328,o),
(126,357,o),
(166,377,cs),
(182,385,o),
(195,382,o),
(202,369,cs),
(209,356,o),
(207,343,o),
(195,333,c)
);
},
{
closed = 1;
nodes = (
(315,288,o),
(287,234,o),
(287,168,cs),
(287,102,o),
(315,47,o),
(370,-1,cs),
(381,-10,o),
(383,-22,o),
(376,-36,cs),
(369,-50,o),
(357,-53,o),
(341,-45,c),
(300,-24,o),
(267,5,o),
(244,43,cs),
(221,81,o),
(209,123,o),
(209,167,cs),
(209,211,o),
(221,252,o),
(245,290,cs),
(269,328,o),
(301,357,o),
(341,377,cs),
(357,385,o),
(369,382,o),
(376,369,cs),
(383,356,o),
(382,343,o),
(370,333,c)
);
}
);
width = 415;
}
);
unicode = 171;
}
{
glyphname = guillemetright;
layers = (
{
layerId = "7FE84AD5-D318-40C5-A81A-3CDC73FF77D2";
shapes = (
{
closed = 1;
nodes = (
(282,-12,o),
(311,15,o),
(333,51,cs),
(355,87,o),
(366,125,o),
(366,166,cs),
(366,207,o),
(355,246,o),
(333,281,cs),
(311,317,o),
(281,345,o),
(243,364,cs),
(235,368,o),
(229,366,o),
(226,360,cs),
(223,354,o),
(223,350,o),
(229,345,cs),
(288,298,o),
(318,238,o),
(318,166,cs),
(318,98,o),
(288,38,o),
(229,-13,cs),
(223,-18,o),
(223,-22,o),
(226,-28,cs),
(230,-34,o),
(235,-36,o),
(243,-32,cs)
);
},
{
closed = 1;
nodes = (
(107,-12,o),
(137,15,o),
(159,51,cs),
(181,87,o),
(191,125,o),
(191,166,cs),
(191,207,o),
(181,246,o),
(159,281,cs),
(137,317,o),
(106,345,o),
(68,364,cs),
(60,368,o),
(54,366,o),
(51,360,cs),
(48,354,o),
(48,350,o),
(54,345,cs),
(113,298,o),
(143,238,o),
(143,166,cs),
(143,98,o),
(113,38,o),
(54,-13,cs),
(48,-18,o),
(48,-22,o),
(51,-28,cs),
(55,-34,o),
(60,-36,o),
(68,-32,cs)
);
}
);
width = 415;
},
{
layerId = "037FF2D3-C03F-44B0-90AB-89AFD43EFA27";
shapes = (
{
closed = 1;
nodes = (
(276,47,o),
(303,104,o),
(303,169,cs),
(303,234,o),
(275,289,o),
(220,333,cs),
(208,342,o),
(206,354,o),
(213,368,cs),
(220,382,o),
(232,385,o),
(249,377,c),
(290,357,o),
(321,327,o),
(345,289,cs),
(369,251,o),
(381,210,o),
(381,166,cs),
(381,122,o),
(368,81,o),
(345,43,cs),
(322,5,o),
(290,-24,o),
(249,-45,cs),
(233,-53,o),
(222,-50,o),
(214,-37,cs),
(206,-24,o),
(208,-11,o),
(220,-1,cs)
);
},
{
closed = 1;
nodes = (
(101,47,o),
(128,104,o),
(128,169,cs),
(128,234,o),
(100,289,o),
(45,333,cs),
(33,342,o),
(31,354,o),
(38,368,cs),
(45,382,o),
(57,385,o),
(74,377,cs),
(115,357,o),
(147,327,o),
(171,289,cs),
(195,251,o),
(206,210,o),
(206,166,cs),
(206,122,o),
(194,81,o),
(171,43,cs),
(148,5,o),
(115,-24,o),
(74,-45,cs),
(58,-53,o),
(47,-50,o),
(39,-37,cs),
(31,-24,o),
(33,-11,o),
(45,-1,cs)
);
}
);
width = 415;
}
);
unicode = 187;
}
{
glyphname = overlinecomb;
layers = (
{
layerId = "7FE84AD5-D318-40C5-A81A-3CDC73FF77D2";
paths = (
{
closed = 1;
nodes = (
"0 1513 LINE",
"588 1513 LINE",
"588 1452 LINE",
"0 1452 LINE"
);
}
);
width = 588;
},
{
layerId = "037FF2D3-C03F-44B0-90AB-89AFD43EFA27";
paths = (
{
closed = 1;
nodes = (
"0 1522 LINE",
"588 1522 LINE",
"588 1452 LINE",
"0 1452 LINE"
);
}
);
width = 588;
}
);
leftMetricsKey = "=0";
rightMetricsKey = "=0";
unicode = 0305;
}
{
glyphname = "number-ar";
layers = (
{
layerId = "7FE84AD5-D318-40C5-A81A-3CDC73FF77D2";
shapes = (
{
closed = 1;
nodes = (
(936,-47,o),
(931,-28,o),
(930,-6,cs),
(929,16,o),
(932,35,o),
(938,52,cs),
(961,118,o),
(995,155,o),
(1040,162,cs),
(1062,165,o),
(1082,158,o),
(1099,140,cs),
(1105,134,o),
(1106,129,o),
(1105,125,cs),
(1100,106,o),
(1094,91,o),
(1087,81,cs),
(1084,77,o),
(1082,77,o),
(1078,80,cs),
(1052,103,o),
(1027,106,o),
(1001,92,cs),
(975,78,o),
(961,63,o),
(957,49,cs),
(953,35,o),
(952,24,o),
(954,17,cs),
(962,-15,o),
(975,-36,o),
(993,-47,cs),
(1060,-71,ls),
(1067,-75,o),
(1071,-81,o),
(1071,-89,cs),
(1070,-112,o),
(1068,-131,o),
(1065,-143,cs),
(1063,-150,o),
(1061,-151,o),
(1055,-148,cs),
(1015,-126,o),
(989,-115,o),
(976,-115,cs),
(963,-115,o),
(947,-119,o),
(928,-128,cs),
(878,-152,o),
(757,-164,o),
(565,-164,cs),
(296,-164,o),
(142,-156,o),
(103,-141,cs),
(93,-137,o),
(81,-129,o),
(67,-116,cs),
(35,-85,ls),
(31,-81,o),
(29,-79,o),
(29,-76,cs),
(29,-73,o),
(35,-72,o),
(46,-74,cs),
(167,-91,o),
(322,-99,o),
(513,-99,cs),
(704,-99,o),
(821,-96,o),
(865,-89,cs),
(909,-82,o),
(935,-74,o),
(946,-66,c)
);
}
);
width = 1134;
},
{
layerId = "037FF2D3-C03F-44B0-90AB-89AFD43EFA27";
shapes = (
{
closed = 1;
nodes = (
(917,-31,o),
(917,10,o),
(933,57,cs),
(942,82,o),
(957,107,o),
(978,130,cs),
(999,153,o),
(1021,166,o),
(1045,170,cs),
(1070,174,o),
(1091,167,o),
(1108,149,cs),
(1114,143,o),
(1116,137,o),
(1114,132,cs),
(1104,96,o),
(1092,75,o),
(1077,68,cs),
(1075,67,o),
(1072,68,o),
(1069,71,cs),
(1038,99,o),
(1006,98,o),
(973,70,cs),
(961,60,o),
(958,44,o),
(963,25,cs),
(974,-16,o),
(998,-41,o),
(1035,-51,cs),
(1050,-55,o),
(1061,-59,o),
(1069,-63,cs),
(1077,-67,o),
(1080,-73,o),
(1080,-81,cs),
(1079,-109,o),
(1075,-130,o),
(1069,-145,cs),
(1064,-158,o),
(1056,-163,o),
(1046,-157,cs),
(1006,-135,o),
(981,-124,o),
(968,-124,cs),
(955,-124,o),
(939,-128,o),
(921,-136,cs),
(870,-160,o),
(749,-172,o),
(557,-172,cs),
(288,-172,o),
(134,-164,o),
(95,-149,cs),
(85,-145,o),
(73,-138,o),
(59,-125,cs),
(26,-94,ls),
(15,-84,o),
(12,-75,o),
(18,-68,cs),
(22,-63,o),
(33,-61,o),
(54,-65,cs),
(156,-82,o),
(312,-90,o),
(521,-90,cs),
(706,-90,o),
(827,-86,o),
(885,-78,cs),
(906,-75,o),
(922,-71,o),
(934,-67,c)
);
}
);
width = 1134;
}
);
unicode = 1536;
}
{
glyphname = "year-ar";
layers = (
{
layerId = "7FE84AD5-D318-40C5-A81A-3CDC73FF77D2";
shapes = (
{
closed = 1;
nodes = (
(1743,-35,o),
(1753,-42,o),
(1753,-57,cs),
(1753,-65,o),
(1751,-78,o),
(1746,-94,cs),
(1741,-110,o),
(1733,-124,o),
(1722,-136,cs),
(1711,-148,o),
(1691,-169,o),
(1661,-201,cs),
(1631,-233,o),
(1607,-263,o),
(1587,-291,cs),
(1580,-300,o),
(1576,-303,o),
(1573,-300,cs),
(1570,-297,o),
(1571,-292,o),
(1575,-284,c),
(1600,-243,o),
(1623,-210,o),
(1646,-185,cs),
(1669,-160,o),
(1691,-137,o),
(1714,-116,c),
(1710,-106,o),
(1702,-101,o),
(1689,-101,cs),
(1676,-101,o),
(1660,-105,o),
(1640,-113,cs),
(1521,-162,o),
(1426,-198,o),
(1353,-221,cs),
(1201,-270,o),
(1049,-293,o),
(899,-293,cs),
(797,-293,o),
(717,-284,o),
(655,-265,cs),
(593,-246,o),
(539,-216,o),
(493,-178,c),
(488,-174,o),
(484,-175,o),
(480,-181,cs),
(462,-212,o),
(440,-234,o),
(417,-247,cs),
(402,-255,o),
(389,-260,o),
(375,-260,cs),
(350,-260,o),
(325,-246,o),
(301,-220,cs),
(297,-216,o),
(289,-207,o),
(278,-193,cs),
(267,-179,o),
(255,-171,o),
(243,-171,cs),
(231,-171,o),
(216,-181,o),
(202,-200,cs),
(188,-219,o),
(179,-234,o),
(175,-243,cs),
(171,-252,o),
(165,-267,o),
(157,-289,cs),
(149,-311,o),
(142,-328,o),
(133,-339,cs),
(124,-350,o),
(114,-356,o),
(102,-356,c),
(78,-356,o),
(59,-341,o),
(47,-311,cs),
(35,-281,o),
(29,-226,o),
(29,-146,cs),
(29,-139,o),
(32,-135,o),
(36,-134,cs),
(40,-133,o),
(43,-134,o),
(44,-139,cs),
(45,-144,o),
(47,-161,o),
(47,-191,cs),
(48,-259,o),
(64,-295,o),
(97,-300,c),
(99,-300,ls),
(112,-300,o),
(125,-286,o),
(139,-257,cs),
(143,-250,o),
(148,-239,o),
(154,-225,cs),
(188,-143,o),
(223,-102,o),
(260,-102,cs),
(272,-102,o),
(287,-113,o),
(305,-134,cs),
(323,-155,o),
(337,-169,o),
(349,-177,cs),
(361,-185,o),
(374,-188,o),
(389,-188,cs),
(426,-188,o),
(459,-164,o),
(490,-114,cs),
(499,-99,o),
(508,-91,o),
(515,-91,cs),
(520,-91,o),
(526,-97,o),
(533,-108,cs),
(556,-145,o),
(602,-173,o),
(672,-193,cs),
(742,-213,o),
(835,-222,o),
(950,-222,cs),
(1088,-222,o),
(1243,-193,o),
(1417,-135,cs),
(1440,-127,o),
(1489,-109,o),
(1563,-79,cs),
(1637,-49,o),
(1690,-35,o),
(1721,-35,cs)
);
}
);
width = 1782;
},
{
layerId = "037FF2D3-C03F-44B0-90AB-89AFD43EFA27";
shapes = (
{
closed = 1;
nodes = (
(455,-247,o),
(418,-274,o),
(375,-274,c),
(345,-274,o),
(317,-259,o),
(290,-230,cs),
(286,-225,o),
(279,-216,o),
(269,-204,cs),
(259,-192,o),
(251,-186,o),
(243,-186,cs),
(235,-186,o),
(224,-196,o),
(212,-212,cs),
(200,-228,o),
(192,-240,o),
(188,-249,cs),
(184,-258,o),
(179,-274,o),
(171,-296,cs),
(163,-318,o),
(153,-337,o),
(142,-350,cs),
(131,-363,o),
(119,-370,o),
(102,-371,c),
(71,-370,o),
(48,-353,o),
(35,-319,cs),
(22,-285,o),
(15,-228,o),
(15,-146,cs),
(15,-133,o),
(20,-125,o),
(30,-121,cs),
(45,-116,o),
(55,-121,o),
(59,-138,cs),
(60,-142,o),
(62,-160,o),
(62,-191,cs),
(63,-249,o),
(75,-281,o),
(98,-286,c),
(99,-286,ls),
(107,-286,o),
(121,-263,o),
(140,-219,c),
(176,-132,o),
(216,-87,o),
(260,-87,c),
(277,-87,o),
(295,-99,o),
(313,-121,cs),
(331,-143,o),
(346,-158,o),
(356,-164,cs),
(366,-170,o),
(377,-174,o),
(389,-174,cs),
(420,-173,o),
(450,-151,o),
(478,-106,cs),
(501,-68,o),
(524,-66,o),
(545,-100,cs),
(566,-134,o),
(611,-160,o),
(679,-179,cs),
(747,-198,o),
(842,-207,o),
(967,-207,cs),
(1092,-207,o),
(1241,-178,o),
(1413,-121,cs),
(1436,-113,o),
(1485,-95,o),
(1560,-65,cs),
(1635,-35,o),
(1685,-20,o),
(1713,-20,cs),
(1749,-20,o),
(1768,-32,o),
(1768,-57,cs),
(1768,-67,o),
(1765,-81,o),
(1759,-99,cs),
(1753,-117,o),
(1745,-132,o),
(1733,-145,cs),
(1721,-158,o),
(1701,-180,o),
(1672,-211,cs),
(1643,-242,o),
(1622,-266,o),
(1611,-282,cs),
(1600,-298,o),
(1592,-309,o),
(1587,-313,cs),
(1582,-317,o),
(1577,-318,o),
(1572,-316,cs),
(1555,-309,o),
(1551,-296,o),
(1562,-276,c),
(1587,-234,o),
(1611,-201,o),
(1632,-178,cs),
(1653,-155,o),
(1674,-135,o),
(1693,-116,c),
(1682,-115,o),
(1666,-119,o),
(1646,-127,cs),
(1527,-176,o),
(1430,-212,o),
(1357,-235,cs),
(1203,-284,o),
(1050,-308,o),
(899,-308,cs),
(796,-308,o),
(714,-298,o),
(652,-279,cs),
(590,-260,o),
(535,-231,o),
(489,-194,c)
);
}
);
width = 1782;
}
);
unicode = 1537;
}
{
glyphname = "footnotemarker-ar";
layers = (
{
layerId = "7FE84AD5-D318-40C5-A81A-3CDC73FF77D2";
shapes = (
{
closed = 1;
nodes = (
(489,-162,o),
(599,-151,o),
(678,-131,cs),
(693,-127,o),
(707,-121,o),
(719,-113,cs),
(761,-84,ls),
(768,-79,o),
(772,-75,o),
(772,-73,cs),
(772,-70,o),
(765,-70,o),
(750,-73,cs),
(640,-92,o),
(518,-102,o),
(386,-103,cs),
(294,-103,o),
(227,-100,o),
(186,-94,c),
(188,-74,o),
(189,-56,o),
(189,-40,cs),
(189,4,o),
(180,32,o),
(162,42,cs),
(151,49,o),
(137,52,o),
(123,52,cs),
(109,52,o),
(93,42,o),
(77,24,cs),
(53,-4,o),
(41,-34,o),
(41,-69,cs),
(41,-84,o),
(45,-98,o),
(55,-109,cs),
(65,-120,o),
(76,-130,o),
(89,-136,cs),
(125,-153,o),
(213,-162,o),
(351,-162,cs)
);
},
{
closed = 1;
nodes = (
(139,-85,o),
(119,-82,o),
(108,-78,c),
(86,-70,o),
(75,-56,o),
(75,-39,cs),
(75,-14,o),
(86,-1,o),
(110,-1,cs),
(147,-1,o),
(166,-30,o),
(166,-90,c)
);
}
);
width = 812;
},
{
layerId = "037FF2D3-C03F-44B0-90AB-89AFD43EFA27";
shapes = (
{
closed = 1;
nodes = (
(147,-40,o),
(138,-21,o),
(121,-17,cs),
(104,-13,o),
(94,-16,o),
(91,-25,c),
(86,-43,o),
(92,-55,o),
(108,-61,cs),
(120,-65,o),
(134,-70,o),
(150,-73,c)
);
},
{
closed = 1;
nodes = (
(68,-142,o),
(54,-132,o),
(43,-118,cs),
(32,-104,o),
(26,-88,o),
(26,-69,cs),
(26,-31,o),
(39,3,o),
(66,34,c),
(98,69,o),
(133,76,o),
(170,54,cs),
(193,40,o),
(204,9,o),
(204,-40,cs),
(204,-53,o),
(203,-66,o),
(202,-81,c),
(244,-85,o),
(317,-87,o),
(424,-87,cs),
(531,-87,o),
(638,-78,o),
(747,-59,cs),
(755,-58,o),
(762,-57,o),
(766,-57,c),
(775,-57,l),
(782,-60,o),
(786,-65,o),
(786,-73,cs),
(786,-81,o),
(782,-88,o),
(773,-94,cs),
(771,-95,o),
(770,-97,o),
(769,-97,cs),
(728,-125,ls),
(714,-134,o),
(698,-142,o),
(681,-146,cs),
(600,-166,o),
(490,-176,o),
(350,-176,cs),
(210,-176,o),
(122,-167,o),
(83,-149,cs)
);
}
);
width = 812;
}
);
subCategory = Format;
unicode = 1538;
}
{
glyphname = "pagenumber-ar";
layers = (
{
layerId = "7FE84AD5-D318-40C5-A81A-3CDC73FF77D2";
shapes = (
{
closed = 1;
nodes = (
(807,-204,o),
(809,-202,o),
(810,-197,cs),
(816,-171,o),
(821,-155,o),
(826,-148,c),
(847,-154,o),
(869,-157,o),
(893,-157,cs),
(954,-157,o),
(1002,-144,o),
(1037,-117,cs),
(1041,-114,o),
(1050,-102,o),
(1062,-80,cs),
(1074,-58,o),
(1080,-38,o),
(1080,-20,cs),
(1080,-2,o),
(1071,13,o),
(1053,25,cs),
(1035,37,o),
(1021,42,o),
(1011,42,cs),
(957,42,o),
(901,-3,o),
(840,-92,c),
(812,-89,o),
(790,-80,o),
(776,-64,cs),
(769,-56,o),
(765,-53,o),
(762,-54,cs),
(697,-86,o),
(587,-103,o),
(429,-103,cs),
(320,-103,o),
(192,-88,o),
(46,-59,cs),
(35,-57,o),
(29,-57,o),
(29,-60,cs),
(29,-63,o),
(31,-66,o),
(35,-70,cs),
(67,-106,ls),
(75,-115,o),
(90,-122,o),
(110,-128,cs),
(195,-151,o),
(292,-163,o),
(402,-163,cs),
(572,-163,o),
(686,-146,o),
(745,-112,c),
(763,-127,o),
(784,-136,o),
(805,-140,c),
(796,-162,o),
(791,-179,o),
(791,-189,cs),
(791,-199,o),
(795,-204,o),
(803,-204,cs)
);
},
{
closed = 1;
nodes = (
(888,-101,o),
(875,-100,o),
(865,-98,c),
(902,-47,o),
(936,-21,o),
(965,-21,cs),
(994,-21,o),
(1018,-36,o),
(1037,-68,cs),
(1038,-69,o),
(1038,-71,o),
(1038,-72,cs),
(1038,-73,o),
(1038,-73,o),
(1037,-74,cs),
(1029,-84,o),
(1008,-91,o),
(975,-95,cs),
(942,-99,o),
(918,-101,o),
(903,-101,cs)
);
}
);
width = 1109;
},
{
layerId = "037FF2D3-C03F-44B0-90AB-89AFD43EFA27";
shapes = (
{
closed = 1;
nodes = (
(15,-44,o),
(25,-38,o),
(47,-44,cs),
(48,-44,o),
(49,-44,o),
(49,-44,cs),
(194,-73,o),
(321,-88,o),
(429,-88,cs),
(584,-88,o),
(693,-72,o),
(756,-41,cs),
(766,-36,o),
(776,-39,o),
(786,-52,cs),
(796,-65,o),
(812,-73,o),
(833,-76,c),
(895,12,o),
(954,56,o),
(1011,57,c),
(1024,57,o),
(1042,50,o),
(1063,36,cs),
(1084,22,o),
(1094,4,o),
(1094,-18,cs),
(1094,-40,o),
(1088,-64,o),
(1075,-87,cs),
(1062,-110,o),
(1052,-124,o),
(1046,-129,cs),
(1008,-158,o),
(957,-172,o),
(893,-172,cs),
(872,-172,o),
(852,-170,o),
(834,-166,c),
(831,-175,o),
(828,-185,o),
(825,-198,cs),
(822,-211,o),
(814,-219,o),
(802,-219,cs),
(790,-219,o),
(782,-213,o),
(779,-201,cs),
(776,-189,o),
(777,-173,o),
(785,-151,c),
(770,-146,o),
(757,-139,o),
(744,-130,c),
(680,-162,o),
(566,-178,o),
(402,-178,cs),
(291,-178,o),
(192,-166,o),
(106,-143,cs),
(83,-137,o),
(66,-127,o),
(56,-116,cs),
(24,-80,ls),
(18,-73,o),
(15,-66,o),
(15,-60,cs)
);
},
{
closed = 1;
nodes = (
(986,-20,o),
(944,-25,o),
(893,-86,c),
(912,-86,o),
(935,-85,o),
(963,-82,cs),
(991,-79,o),
(1011,-74,o),
(1020,-69,c)
);
}
);
width = 1109;
}
);
subCategory = Format;
unicode = 1539;
}
{
glyphname = "samvat-ar";
layers = (
{
layerId = "7FE84AD5-D318-40C5-A81A-3CDC73FF77D2";
shapes = (
{
closed = 1;
nodes = (
(98,-143,o),
(84,-131,o),
(67,-116,cs),
(35,-85,ls),
(31,-82,o),
(29,-80,o),
(29,-77,cs),
(29,-74,o),
(35,-73,o),
(46,-74,cs),
(207,-89,o),
(478,-97,o),
(861,-97,cs),
(1244,-97,o),
(1510,-90,o),
(1658,-75,c),
(1702,-71,o),
(1734,-61,o),
(1754,-48,c),
(1731,-6,o),
(1727,35,o),
(1741,76,c),
(1764,137,o),
(1798,168,o),
(1845,170,cs),
(1859,171,o),
(1872,160,o),
(1884,138,cs),
(1896,116,o),
(1911,105,o),
(1931,104,c),
(1966,102,o),
(2003,132,o),
(2040,193,cs),
(2045,200,o),
(2049,202,o),
(2053,197,cs),
(2057,192,o),
(2057,184,o),
(2052,175,cs),
(2047,166,o),
(2045,160,o),
(2045,158,cs),
(2045,150,o),
(2050,144,o),
(2058,141,cs),
(2087,129,o),
(2109,125,o),
(2125,130,cs),
(2130,131,o),
(2126,141,o),
(2112,158,cs),
(2111,160,o),
(2110,161,o),
(2111,163,cs),
(2140,209,ls),
(2141,211,o),
(2143,211,o),
(2145,209,cs),
(2162,189,o),
(2164,156,o),
(2151,111,cs),
(2144,87,o),
(2136,72,o),
(2128,63,cs),
(2120,54,o),
(2108,51,o),
(2092,53,c),
(2057,58,o),
(2030,68,o),
(2009,82,cs),
(2007,83,o),
(2005,83,o),
(2004,81,cs),
(1977,43,o),
(1944,25,o),
(1905,29,cs),
(1884,31,o),
(1866,47,o),
(1850,77,cs),
(1845,87,o),
(1837,93,o),
(1827,95,c),
(1800,100,o),
(1778,94,o),
(1762,76,c),
(1762,53,o),
(1768,31,o),
(1780,12,cs),
(1792,-7,o),
(1805,-20,o),
(1819,-28,c),
(1824,-31,o),
(1835,-35,o),
(1853,-40,cs),
(1871,-45,o),
(1885,-50,o),
(1894,-55,cs),
(1903,-60,o),
(1907,-67,o),
(1907,-76,cs),
(1906,-104,o),
(1904,-127,o),
(1900,-143,cs),
(1898,-151,o),
(1894,-153,o),
(1887,-149,cs),
(1838,-122,o),
(1806,-108,o),
(1790,-108,cs),
(1774,-108,o),
(1753,-113,o),
(1727,-126,cs),
(1701,-139,o),
(1643,-150,o),
(1556,-158,cs),
(1469,-166,o),
(1252,-170,o),
(904,-170,cs),
(556,-170,o),
(291,-163,o),
(110,-150,c)
);
}
);
width = 2183;
},
{
layerId = "037FF2D3-C03F-44B0-90AB-89AFD43EFA27";
shapes = (
{
closed = 1;
nodes = (
(103,-155,o),
(89,-143,o),
(66,-120,cs),
(34,-89,ls),
(23,-79,o),
(19,-70,o),
(25,-63,cs),
(28,-59,o),
(40,-59,o),
(62,-61,cs),
(221,-75,o),
(486,-82,o),
(857,-82,cs),
(1301,-82,o),
(1568,-75,o),
(1659,-60,cs),
(1660,-60,o),
(1661,-60,o),
(1662,-60,cs),
(1701,-57,o),
(1730,-50,o),
(1748,-40,c),
(1729,2,o),
(1726,43,o),
(1741,83,c),
(1767,149,o),
(1803,183,o),
(1849,185,cs),
(1868,186,o),
(1884,173,o),
(1899,146,cs),
(1909,128,o),
(1921,119,o),
(1936,119,cs),
(1972,118,o),
(2007,146,o),
(2042,203,cs),
(2046,210,o),
(2053,210,o),
(2060,205,cs),
(2067,200,o),
(2067,191,o),
(2060,177,cs),
(2057,171,o),
(2055,168,o),
(2055,166,cs),
(2055,164,o),
(2056,162,o),
(2060,160,cs),
(2082,147,o),
(2105,140,o),
(2129,139,c),
(2124,146,o),
(2118,152,o),
(2112,157,cs),
(2106,162,o),
(2106,169,o),
(2110,176,cs),
(2135,220,ls),
(2141,231,o),
(2148,230,o),
(2155,220,cs),
(2173,193,o),
(2176,157,o),
(2163,111,cs),
(2156,86,o),
(2147,68,o),
(2136,57,cs),
(2125,46,o),
(2112,42,o),
(2095,44,cs),
(2061,49,o),
(2033,60,o),
(2010,74,c),
(1980,37,o),
(1946,19,o),
(1909,21,c),
(1885,24,o),
(1863,42,o),
(1844,75,cs),
(1840,82,o),
(1836,85,o),
(1829,87,c),
(1805,91,o),
(1787,87,o),
(1773,75,c),
(1774,57,o),
(1780,39,o),
(1791,22,cs),
(1802,5,o),
(1814,-8,o),
(1826,-15,cs),
(1831,-18,o),
(1841,-21,o),
(1859,-26,cs),
(1877,-31,o),
(1892,-35,o),
(1905,-42,cs),
(1918,-49,o),
(1924,-59,o),
(1924,-73,cs),
(1922,-113,o),
(1918,-139,o),
(1913,-150,cs),
(1908,-161,o),
(1899,-163,o),
(1887,-156,cs),
(1839,-130,o),
(1808,-117,o),
(1794,-117,cs),
(1780,-117,o),
(1759,-123,o),
(1732,-136,cs),
(1705,-149,o),
(1646,-159,o),
(1556,-167,cs),
(1466,-175,o),
(1240,-177,o),
(880,-173,cs),
(372,-168,o),
(114,-163,o),
(107,-158,cs)
);
}
);
width = 2183;
}
);
unicode = 1540;
}
{
glyphname = "ray-ar";
layers = (
{
layerId = "7FE84AD5-D318-40C5-A81A-3CDC73FF77D2";
shapes = (
{
closed = 1;
nodes = (
(486,-242,o),
(564,-201,o),
(617,-130,cs),
(630,-113,o),
(641,-88,o),
(650,-55,cs),
(657,-29,o),
(663,-10,o),
(665,1,c),
(736,0,o),
(780,33,o),
(797,100,cs),
(814,167,o),
(810,225,o),
(783,275,cs),
(776,287,o),
(770,288,o),
(764,275,cs),
(736,213,ls),
(732,205,o),
(733,196,o),
(739,188,cs),
(753,168,o),
(762,149,o),
(766,130,cs),
(767,127,o),
(766,125,o),
(765,124,cs),
(747,102,o),
(715,91,o),
(667,92,c),
(652,179,o),
(624,223,o),
(583,223,cs),
(565,223,o),
(545,200,o),
(521,155,cs),
(488,92,o),
(482,50,o),
(504,30,cs),
(525,11,o),
(565,2,o),
(626,0,c),
(632,-21,o),
(632,-35,o),
(629,-42,cs),
(610,-84,o),
(570,-118,o),
(510,-142,cs),
(453,-165,o),
(396,-172,o),
(339,-165,cs),
(281,-158,o),
(243,-139,o),
(222,-107,cs),
(184,-49,o),
(194,22,o),
(252,105,cs),
(257,112,o),
(256,117,o),
(250,122,cs),
(245,126,o),
(238,123,o),
(229,114,cs),
(177,64,o),
(120,37,o),
(57,34,cs),
(50,34,o),
(47,28,o),
(46,16,cs),
(44,-19,ls),
(43,-30,o),
(48,-34,o),
(57,-33,cs),
(103,-27,o),
(147,-5,o),
(187,31,c),
(157,-33,o),
(151,-92,o),
(167,-146,cs),
(178,-183,o),
(200,-210,o),
(234,-230,cs),
(275,-253,o),
(325,-262,o),
(383,-255,cs)
);
},
{
closed = 1;
nodes = (
(565,102,o),
(545,111,o),
(538,127,cs),
(533,139,o),
(538,146,o),
(552,146,cs),
(574,146,o),
(590,131,o),
(599,97,c)
);
}
);
width = 860;
},
{
layerId = "037FF2D3-C03F-44B0-90AB-89AFD43EFA27";
shapes = (
{
closed = 1;
nodes = (
(590,122,o),
(580,129,o),
(566,129,cs),
(552,129,o),
(547,125,o),
(551,116,cs),
(558,101,o),
(571,94,o),
(593,96,cs),
(598,97,o),
(600,100,o),
(598,104,cs)
);
},
{
closed = 1;
nodes = (
(241,137,o),
(253,142,o),
(260,134,cs),
(267,126,o),
(265,113,o),
(254,98,cs),
(201,22,o),
(194,-43,o),
(233,-98,cs),
(253,-126,o),
(290,-142,o),
(345,-149,cs),
(400,-156,o),
(455,-148,o),
(511,-127,cs),
(567,-106,o),
(604,-76,o),
(625,-36,c),
(626,-31,o),
(626,-23,o),
(624,-13,c),
(565,-11,o),
(524,-1,o),
(502,20,cs),
(476,44,o),
(482,89,o),
(521,156,cs),
(551,208,o),
(576,233,o),
(595,231,cs),
(638,226,o),
(667,184,o),
(683,105,c),
(720,108,o),
(757,117,o),
(794,131,c),
(827,144,o),
(836,131,o),
(821,91,cs),
(786,0,ls),
(780,-15,o),
(771,-21,o),
(761,-19,cs),
(751,-17,o),
(747,-10,o),
(750,2,c),
(724,-5,o),
(699,-10,o),
(676,-14,c),
(673,-24,o),
(668,-42,o),
(661,-69,cs),
(654,-96,o),
(643,-118,o),
(628,-138,cs),
(574,-211,o),
(494,-254,o),
(389,-269,cs),
(336,-276,o),
(289,-268,o),
(247,-243,cs),
(205,-218,o),
(179,-186,o),
(167,-147,cs),
(152,-100,o),
(156,-48,o),
(177,13,c),
(141,-16,o),
(103,-35,o),
(63,-42,cs),
(42,-46,o),
(32,-39,o),
(33,-22,cs),
(37,29,ls),
(38,45,o),
(46,54,o),
(61,54,cs),
(129,56,o),
(183,78,o),
(224,120,cs)
);
}
);
width = 860;
}
);
unicode = 1544;
}
{
glyphname = "afghani-ar";
layers = (
{
layerId = "7FE84AD5-D318-40C5-A81A-3CDC73FF77D2";
shapes = (
{
closed = 1;
nodes = (
(262,-12,o),
(377,19,o),
(426,95,cs),
(445,125,o),
(455,158,o),
(457,195,cs),
(460,274,o),
(433,341,o),
(373,393,cs),
(360,404,o),
(349,409,o),
(340,409,cs),
(319,409,o),
(297,390,o),
(274,351,cs),
(251,312,o),
(237,274,o),
(234,239,cs),
(228,167,o),
(262,138,o),
(335,154,cs),
(358,159,o),
(376,177,o),
(387,206,cs),
(388,208,o),
(390,209,o),
(393,210,cs),
(396,211,o),
(399,208,o),
(404,201,cs),
(409,194,o),
(411,182,o),
(413,162,c),
(350,100,o),
(237,77,o),
(74,95,cs),
(51,98,o),
(41,90,o),
(45,70,cs),
(55,22,ls),
(57,12,o),
(66,6,o),
(79,5,cs)
);
},
{
alignment = -1;
pos = (117,-1226);
ref = "alefabove-ar";
},
{
closed = 1;
nodes = (
(281,285,o),
(290,300,o),
(307,301,cs),
(319,302,o),
(334,290,o),
(349,266,c),
(339,253,o),
(316,249,o),
(280,256,c)
);
},
{
alignment = -1;
pos = (303,493);
ref = "dotabove-ar";
}
);
width = 500;
},
{
layerId = "037FF2D3-C03F-44B0-90AB-89AFD43EFA27";
shapes = (
{
closed = 1;
nodes = (
(297,322,o),
(288,307,o),
(286,277,c),
(296,274,o),
(308,273,o),
(324,275,cs),
(340,277,o),
(350,281,o),
(354,287,c),
(339,310,o),
(325,322,o),
(312,322,cs)
);
},
{
closed = 1;
nodes = (
(412,212,o),
(405,220,o),
(396,203,cs),
(383,181,o),
(367,167,o),
(347,162,cs),
(282,146,o),
(247,164,o),
(243,214,cs),
(238,272,o),
(246,325,o),
(268,373,cs),
(290,421,o),
(313,445,o),
(337,445,cs),
(357,445,o),
(374,438,o),
(387,425,cs),
(440,371,o),
(467,298,o),
(467,206,cs),
(467,156,o),
(457,116,o),
(438,87,cs),
(383,4,o),
(263,-28,o),
(77,-10,cs),
(56,-8,o),
(45,2,o),
(41,20,cs),
(31,67,ls),
(28,80,o),
(31,92,o),
(38,100,cs),
(45,108,o),
(58,112,o),
(76,110,cs),
(232,93,o),
(345,117,o),
(416,181,c)
);
},
{
alignment = -1;
pos = (117,-1226);
ref = "alefabove-ar";
},
{
alignment = -1;
pos = (303,493);
ref = "dotabove-ar";
}
);
width = 500;
}
);
unicode = 1547;
}
{
glyphname = "comma-ar";
layers = (
{
layerId = "7FE84AD5-D318-40C5-A81A-3CDC73FF77D2";
shapes = (
{
closed = 1;
nodes = (
(232,6,o),
(251,14,o),
(267,29,cs),
(283,44,o),
(291,62,o),
(291,83,cs),
(291,104,o),
(284,121,o),
(269,136,cs),
(254,151,o),
(236,159,o),
(215,159,cs),
(191,159,o),
(171,150,o),
(156,131,cs),
(151,126,o),
(148,127,o),
(145,135,cs),
(119,207,o),
(147,286,o),
(229,371,cs),
(238,380,o),
(240,388,o),
(233,396,cs),
(226,404,o),
(217,404,o),
(206,397,cs),
(186,383,o),
(165,358,o),
(141,321,cs),
(117,284,o),
(104,245,o),
(100,205,cs),
(93,117,o),
(109,58,o),
(151,25,cs),
(166,14,o),
(186,8,o),
(211,7,cs)
);
}
);
width = 369;
},
{
layerId = "037FF2D3-C03F-44B0-90AB-89AFD43EFA27";
shapes = (
{
closed = 1;
nodes = (
(207,416,o),
(217,418,o),
(225,416,cs),
(241,412,o),
(249,403,o),
(251,389,c),
(252,379,o),
(248,369,o),
(240,361,cs),
(166,284,o),
(137,213,o),
(155,150,c),
(172,165,o),
(193,173,o),
(217,173,cs),
(241,173,o),
(261,164,o),
(279,146,cs),
(297,128,o),
(305,108,o),
(305,83,cs),
(305,58,o),
(295,36,o),
(276,18,c),
(257,0,o),
(235,-9,o),
(208,-8,cs),
(181,-7,o),
(160,0,o),
(143,13,cs),
(97,49,o),
(78,113,o),
(85,206,c),
(89,248,o),
(103,289,o),
(128,328,cs),
(153,367,o),
(176,394,o),
(197,409,c)
);
}
);
width = 369;
}
);
unicode = 1548;
}
{
glyphname = "dateseparator-ar";
layers = (
{
layerId = "7FE84AD5-D318-40C5-A81A-3CDC73FF77D2";
shapes = (
{
closed = 1;
nodes = (
(253,428,ls),
(241,402,o),
(228,395,o),
(213,408,cs),
(197,422,o),
(176,417,o),
(151,392,cs),
(125,367,o),
(97,329,o),
(66,280,cs),
(58,267,o),
(52,263,o),
(45,266,cs),
(38,270,o),
(37,280,o),
(44,296,cs),
(62,337,o),
(89,384,o),
(127,439,cs),
(170,500,o),
(213,527,o),
(255,519,cs),
(280,514,o),
(284,495,o),
(268,460,cs)
);
}
);
width = 316;
},
{
layerId = "037FF2D3-C03F-44B0-90AB-89AFD43EFA27";
shapes = (
{
closed = 1;
nodes = (
(267,422,l),
(256,400,o),
(244,388,o),
(229,387,c),
(220,387,o),
(211,390,o),
(202,397,cs),
(193,404,o),
(178,397,o),
(156,376,cs),
(134,355,o),
(109,321,o),
(79,273,c),
(66,252,o),
(52,245,o),
(37,253,cs),
(22,261,o),
(20,278,o),
(30,302,c),
(48,344,o),
(77,392,o),
(115,448,c),
(162,514,o),
(210,542,o),
(258,533,c),
(295,526,o),
(302,500,o),
(281,454,c)
);
}
);
width = 316;
}
);
unicode = 1549;
}
{
glyphname = "verseComma-ar";
layers = (
{
layerId = "7FE84AD5-D318-40C5-A81A-3CDC73FF77D2";
shapes = (
{
closed = 1;
nodes = (
(85,221,o),
(73,208,o),
(73,183,cs),
(73,166,o),
(85,152,o),
(107,144,cs),
(118,140,o),
(137,136,o),
(164,131,c),
(164,191,o),
(146,221,o),
(109,221,cs)
);
},
{
closed = 1;
nodes = (
(74,92,o),
(63,101,o),
(53,112,cs),
(43,123,o),
(39,137,o),
(39,152,cs),
(39,187,o),
(52,218,o),
(76,246,c),
(92,264,o),
(108,273,o),
(122,273,cs),
(136,273,o),
(150,270,o),
(161,263,cs),
(179,253,o),
(188,226,o),
(188,182,cs),
(188,166,o),
(186,147,o),
(184,127,c),
(226,121,o),
(275,118,o),
(331,119,cs),
(407,120,o),
(500,129,o),
(610,148,cs),
(625,151,o),
(633,151,o),
(633,148,cs),
(633,146,o),
(629,142,o),
(622,137,cs),
(580,109,ls),
(568,101,o),
(554,94,o),
(539,90,cs),
(460,70,o),
(378,60,o),
(294,60,cs),
(193,60,o),
(123,69,o),
(87,86,cs)
);
}
);
width = 671;
},
{
layerId = "037FF2D3-C03F-44B0-90AB-89AFD43EFA27";
shapes = (
{
closed = 1;
nodes = (
(146,182,o),
(136,201,o),
(119,205,cs),
(102,209,o),
(93,206,o),
(90,197,c),
(85,179,o),
(90,167,o),
(106,161,cs),
(118,157,o),
(133,152,o),
(149,149,c)
);
},
{
closed = 1;
nodes = (
(66,80,o),
(53,90,o),
(42,104,cs),
(31,118,o),
(24,133,o),
(24,152,cs),
(24,190,o),
(38,225,o),
(65,256,c),
(97,291,o),
(131,298,o),
(168,276,cs),
(191,262,o),
(202,231,o),
(202,182,cs),
(202,169,o),
(201,155,o),
(200,140,c),
(238,135,o),
(289,133,o),
(351,134,cs),
(413,135,o),
(499,144,o),
(608,163,cs),
(616,164,o),
(623,165,o),
(627,165,c),
(636,164,l),
(643,161,o),
(647,156,o),
(647,148,cs),
(647,140,o),
(642,133,o),
(633,127,cs),
(631,126,o),
(631,125,o),
(630,125,cs),
(588,97,ls),
(574,88,o),
(559,80,o),
(542,76,cs),
(461,56,o),
(374,46,o),
(280,46,cs),
(186,46,o),
(119,55,o),
(81,73,cs)
);
}
);
width = 671;
}
);
unicode = 1550;
}
{
glyphname = "misraComma-ar";
layers = (
{
layerId = "7FE84AD5-D318-40C5-A81A-3CDC73FF77D2";
shapes = (
{
closed = 1;
nodes = (
(163,-48,o),
(207,64,o),
(298,160,c),
(246,181,o),
(212,203,o),
(195,226,cs),
(188,235,o),
(185,245,o),
(186,257,cs),
(189,288,o),
(197,317,o),
(211,343,cs),
(243,401,o),
(278,440,o),
(318,459,cs),
(338,468,o),
(360,465,o),
(388,449,cs),
(416,433,o),
(436,416,o),
(447,400,cs),
(454,390,o),
(450,387,o),
(434,390,cs),
(348,407,o),
(277,379,o),
(221,304,cs),
(218,300,o),
(218,296,o),
(223,291,cs),
(267,247,o),
(322,229,o),
(388,237,cs),
(399,238,o),
(414,245,o),
(435,257,cs),
(513,304,o),
(557,331,o),
(566,337,cs),
(579,344,o),
(583,339,o),
(576,320,cs),
(561,278,o),
(550,254,o),
(541,250,cs),
(478,220,o),
(411,179,o),
(342,128,cs),
(251,61,o),
(201,-32,o),
(193,-150,c),
(270,-78,o),
(336,-29,o),
(391,-2,cs),
(501,51,o),
(592,63,o),
(663,33,cs),
(711,12,o),
(742,-20,o),
(757,-65,cs),
(778,-133,o),
(762,-210,o),
(706,-297,cs),
(629,-416,o),
(535,-477,o),
(426,-477,cs),
(272,-477,o),
(185,-394,o),
(167,-229,c),
(132,-264,o),
(96,-304,o),
(59,-348,cs),
(46,-364,o),
(41,-363,o),
(45,-348,cs),
(62,-287,ls),
(65,-277,o),
(100,-240,o),
(165,-177,c)
);
},
{
closed = 1;
nodes = (
(231,-326,o),
(318,-388,o),
(459,-388,cs),
(590,-388,o),
(674,-332,o),
(711,-220,cs),
(731,-160,o),
(716,-107,o),
(666,-61,cs),
(616,-15,o),
(533,-13,o),
(418,-55,cs),
(357,-77,o),
(283,-126,o),
(198,-201,c)
);
}
);
width = 809;
},
{
layerId = "037FF2D3-C03F-44B0-90AB-89AFD43EFA27";
shapes = (
{
closed = 1;
nodes = (
(150,-48,o),
(190,60,o),
(273,154,c),
(202,186,o),
(168,221,o),
(171,259,c),
(174,292,o),
(183,323,o),
(198,350,cs),
(231,411,o),
(269,451,o),
(311,472,c),
(335,483,o),
(363,480,o),
(394,462,cs),
(425,444,o),
(446,427,o),
(459,409,cs),
(464,402,o),
(466,396,o),
(465,390,cs),
(463,376,o),
(451,372,o),
(431,376,cs),
(353,391,o),
(288,365,o),
(236,299,c),
(276,260,o),
(326,244,o),
(386,251,cs),
(395,252,o),
(409,259,o),
(427,270,cs),
(505,317,o),
(549,343,o),
(558,348,cs),
(567,353,o),
(575,356,o),
(581,354,c),
(594,349,o),
(598,336,o),
(590,315,cs),
(578,280,o),
(568,258,o),
(562,251,cs),
(556,244,o),
(551,239,o),
(547,237,cs),
(485,207,o),
(419,167,o),
(351,117,cs),
(273,59,o),
(227,-18,o),
(212,-113,c),
(278,-54,o),
(336,-13,o),
(385,11,cs),
(499,66,o),
(593,78,o),
(668,47,c),
(720,24,o),
(755,-12,o),
(771,-61,c),
(794,-133,o),
(776,-215,o),
(718,-305,c),
(638,-429,o),
(540,-490,o),
(426,-491,cs),
(273,-491,o),
(184,-415,o),
(157,-261,c),
(112,-308,o),
(83,-339,o),
(72,-354,cs),
(61,-369,o),
(52,-376,o),
(45,-374,cs),
(29,-370,o),
(24,-360,o),
(31,-344,c),
(48,-283,ls),
(51,-272,o),
(70,-250,o),
(103,-217,cs),
(110,-210,o),
(126,-194,o),
(150,-171,c)
);
},
{
closed = 1;
nodes = (
(248,-317,o),
(327,-373,o),
(454,-373,cs),
(581,-373,o),
(663,-320,o),
(698,-215,c),
(715,-161,o),
(701,-114,o),
(655,-72,cs),
(609,-30,o),
(532,-28,o),
(423,-68,cs),
(365,-89,o),
(296,-136,o),
(215,-206,c)
);
}
);
width = 809;
}
);
unicode = 1551;
}
{
glyphname = "sallallahouAlayheWassallamcomb-ar";
layers = (
{
layerId = "7FE84AD5-D318-40C5-A81A-3CDC73FF77D2";
shapes = (
{
closed = 1;
nodes = (
(259,1018,o),
(238,1024,o),
(215,1018,cs),
(192,1012,o),
(161,994,o),
(123,965,c),
(193,961,o),
(245,973,o),
(280,999,c)
);
},
{
closed = 1;
nodes = (
(55,971,o),
(74,966,o),
(99,965,c),
(128,995,o),
(158,1020,o),
(187,1041,cs),
(216,1062,o),
(239,1072,o),
(256,1072,c),
(281,1073,o),
(299,1058,o),
(310,1028,c),
(312,1020,o),
(310,1009,o),
(303,994,cs),
(296,979,o),
(290,969,o),
(285,964,cs),
(261,938,o),
(216,923,o),
(150,917,cs),
(116,914,o),
(85,915,o),
(54,921,c),
(56,889,o),
(51,856,o),
(37,820,cs),
(34,813,o),
(29,810,o),
(24,811,cs),
(19,812,o),
(17,816,o),
(19,823,cs),
(30,874,o),
(25,919,o),
(3,958,cs),
(0,963,o),
(-1,966,o),
(0,967,cs),
(16,1008,ls),
(18,1014,o),
(22,1013,o),
(27,1006,cs),
(32,999,o),
(37,989,o),
(41,979,c)
);
}
);
width = 311;
},
{
layerId = "037FF2D3-C03F-44B0-90AB-89AFD43EFA27";
shapes = (
{
closed = 1;
nodes = (
(251,1011,o),
(234,1015,o),
(216,1010,cs),
(198,1005,o),
(173,993,o),
(144,972,c),
(197,971,o),
(238,980,o),
(268,999,c)
);
},
{
closed = 1;
nodes = (
(58,977,o),
(75,974,o),
(96,973,c),
(125,1002,o),
(155,1027,o),
(184,1048,cs),
(251,1096,o),
(295,1090,o),
(317,1031,cs),
(320,1022,o),
(318,1008,o),
(310,992,cs),
(302,976,o),
(296,965,o),
(291,959,cs),
(265,932,o),
(218,915,o),
(151,909,cs),
(120,906,o),
(90,908,o),
(62,913,c),
(62,883,o),
(56,850,o),
(43,817,c),
(38,806,o),
(31,802,o),
(22,804,cs),
(13,806,o),
(9,813,o),
(12,825,cs),
(23,874,o),
(18,918,o),
(-3,955,cs),
(-6,961,o),
(-8,966,o),
(-7,969,cs),
(9,1010,ls),
(10,1013,o),
(11,1015,o),
(13,1017,c),
(23,1024,o),
(34,1013,o),
(46,984,c)
);
}
);
width = 0;
}
);
unicode = 1552;
}
{
glyphname = "alayheAssallamcomb-ar";
layers = (
{
layerId = "7FE84AD5-D318-40C5-A81A-3CDC73FF77D2";
shapes = (
{
closed = 1;
nodes = (
(29,810,o),
(34,813,o),
(37,820,cs),
(51,856,o),
(56,889,o),
(54,921,c),
(132,905,o),
(201,917,o),
(263,954,c),
(265,956,o),
(268,958,o),
(270,963,cs),
(289,1004,ls),
(290,1006,o),
(289,1009,o),
(287,1011,cs),
(285,1013,o),
(277,1010,o),
(265,1003,cs),
(231,982,o),
(203,974,o),
(181,978,c),
(171,979,o),
(161,990,o),
(148,1010,cs),
(135,1030,o),
(130,1044,o),
(133,1052,c),
(136,1060,o),
(144,1066,o),
(159,1071,cs),
(193,1083,o),
(226,1083,o),
(260,1070,cs),
(265,1068,o),
(268,1070,o),
(271,1074,c),
(274,1079,o),
(273,1082,o),
(269,1086,cs),
(237,1114,o),
(212,1126,o),
(192,1122,cs),
(172,1118,o),
(152,1106,o),
(132,1087,cs),
(112,1068,o),
(104,1042,o),
(107,1010,cs),
(108,993,o),
(114,978,o),
(124,965,c),
(90,964,o),
(62,969,o),
(41,979,c),
(29,1009,o),
(20,1018,o),
(16,1008,cs),
(0,967,ls),
(-1,966,o),
(0,963,o),
(3,958,cs),
(25,919,o),
(30,874,o),
(19,823,cs),
(17,816,o),
(19,812,o),
(24,811,cs)
);
}
);
width = 289;
},
{
layerId = "037FF2D3-C03F-44B0-90AB-89AFD43EFA27";
shapes = (
{
closed = 1;
nodes = (
(63,883,o),
(56,850,o),
(43,817,c),
(38,806,o),
(31,802,o),
(22,804,cs),
(13,806,o),
(9,813,o),
(12,825,cs),
(23,874,o),
(18,918,o),
(-3,955,cs),
(-6,961,o),
(-8,966,o),
(-7,969,cs),
(9,1010,l),
(11,1014,o),
(13,1017,o),
(16,1018,cs),
(24,1022,o),
(33,1015,o),
(41,997,cs),
(42,995,o),
(43,991,o),
(46,984,c),
(64,977,o),
(85,974,o),
(110,973,c),
(104,984,o),
(101,996,o),
(100,1009,cs),
(97,1043,o),
(106,1071,o),
(127,1092,cs),
(148,1113,o),
(169,1125,o),
(191,1129,cs),
(213,1133,o),
(240,1120,o),
(274,1091,c),
(281,1084,o),
(282,1076,o),
(277,1069,cs),
(272,1062,o),
(265,1060,o),
(257,1063,cs),
(225,1075,o),
(194,1075,o),
(162,1064,cs),
(150,1059,o),
(143,1055,o),
(140,1049,c),
(139,1042,o),
(143,1030,o),
(154,1013,cs),
(165,996,o),
(175,986,o),
(182,985,cs),
(203,982,o),
(229,990,o),
(261,1010,cs),
(273,1017,o),
(281,1021,o),
(284,1020,cs),
(287,1019,o),
(291,1017,o),
(294,1014,cs),
(297,1011,o),
(298,1006,o),
(296,1001,c),
(276,960,ls),
(273,954,o),
(270,950,o),
(267,948,cs),
(206,911,o),
(138,900,o),
(62,913,c)
);
}
);
width = 297;
}
);
unicode = 1553;
}
{
glyphname = "rehHahabove-ar";
layers = (
{
layerId = "7FE84AD5-D318-40C5-A81A-3CDC73FF77D2";
shapes = (
{
closed = 1;
nodes = (
(13,812,o),
(16,814,o),
(17,820,cs),
(17,889,o),
(45,941,o),
(100,977,cs),
(130,997,o),
(185,1011,o),
(267,1023,cs),
(269,1024,o),
(271,1025,o),
(272,1028,cs),
(285,1055,ls),
(289,1063,o),
(285,1066,o),
(275,1064,cs),
(246,1059,o),
(223,1056,o),
(203,1056,cs),
(183,1056,o),
(160,1058,o),
(132,1064,cs),
(104,1070,o),
(83,1072,o),
(70,1071,cs),
(36,1069,o),
(18,1053,o),
(17,1019,cs),
(17,1015,o),
(19,1014,o),
(25,1016,cs),
(55,1028,o),
(89,1029,o),
(127,1020,c),
(42,982,o),
(0,915,o),
(0,820,cs),
(1,814,o),
(4,812,o),
(8,812,cs)
);
},
{
alignment = -1;
pos = (220,915);
ref = "reh-ar";
scale = (0.5,0.5);
}
);
width = 389;
},
{
layerId = "037FF2D3-C03F-44B0-90AB-89AFD43EFA27";
shapes = (
{
closed = 1;
nodes = (
(-1,805,o),
(-6,810,o),
(-7,820,c),
(-7,910,o),
(30,976,o),
(104,1017,c),
(76,1021,o),
(51,1018,o),
(28,1009,cs),
(18,1005,o),
(12,1008,o),
(10,1016,cs),
(10,1017,o),
(10,1018,o),
(10,1019,cs),
(11,1057,o),
(31,1077,o),
(70,1079,cs),
(84,1080,o),
(109,1076,o),
(145,1069,cs),
(181,1062,o),
(218,1061,o),
(257,1068,cs),
(274,1071,o),
(285,1071,o),
(290,1069,cs),
(295,1067,o),
(296,1061,o),
(292,1052,cs),
(279,1025,l),
(276,1020,o),
(273,1017,o),
(268,1016,cs),
(187,1004,o),
(133,989,o),
(104,970,cs),
(51,935,o),
(24,885,o),
(24,820,cs),
(24,818,l),
(21,810,o),
(16,805,o),
(8,804,c)
);
},
{
alignment = -1;
pos = (220,915);
ref = "reh-ar";
scale = (0.5,0.5);
}
);
width = 392;
}
);
unicode = 1554;
}
{
glyphname = "takhallusabove-ar";
layers = (
{
layerId = "7FE84AD5-D318-40C5-A81A-3CDC73FF77D2";
shapes = (
{
closed = 1;
nodes = (
(407,850,o),
(416,867,o),
(422,900,cs),
(426,926,o),
(426,947,o),
(419,964,cs),
(414,976,o),
(410,978,o),
(406,970,cs),
(390,937,ls),
(386,929,o),
(387,923,o),
(390,917,cs),
(396,907,o),
(398,901,o),
(398,896,c),
(370,894,o),
(341,904,o),
(313,925,c),
(317,935,ls),
(320,942,o),
(319,946,o),
(314,949,cs),
(311,951,o),
(307,949,o),
(301,944,cs),
(250,896,o),
(148,875,o),
(-6,881,cs),
(-17,882,o),
(-23,879,o),
(-24,872,cs),
(-25,864,o),
(-20,858,o),
(-9,856,cs),
(95,837,o),
(192,847,o),
(284,884,c),
(321,856,o),
(357,844,o),
(392,848,cs)
);
}
);
width = 425;
},
{
layerId = "037FF2D3-C03F-44B0-90AB-89AFD43EFA27";
shapes = (
{
closed = 1;
nodes = (
(191,839,o),
(93,830,o),
(-11,849,c),
(-26,852,o),
(-33,860,o),
(-32,873,c),
(-30,884,o),
(-21,890,o),
(-6,889,cs),
(145,884,o),
(246,904,o),
(296,950,c),
(304,957,o),
(312,958,o),
(319,954,cs),
(326,950,o),
(328,941,o),
(322,927,c),
(345,911,o),
(367,903,o),
(389,903,c),
(387,906,o),
(385,911,o),
(382,917,cs),
(379,923,o),
(379,930,o),
(383,940,c),
(399,973,ls),
(401,977,o),
(404,979,o),
(407,981,c),
(415,984,o),
(421,978,o),
(427,962,cs),
(433,946,o),
(433,922,o),
(428,891,cs),
(423,860,o),
(411,843,o),
(393,841,c),
(357,837,o),
(320,848,o),
(283,875,c)
);
}
);
width = 432;
}
);
unicode = 1556;
}
{
glyphname = "tahabove-ar";
layers = (
{
anchors = (
{
name = _MarkAbove;
pos = (233,1270);
}
);
layerId = "7FE84AD5-D318-40C5-A81A-3CDC73FF77D2";
shapes = (
{
closed = 1;
nodes = (
(193,1603,o),
(198,1500,o),
(191,1438,c),
(266,1518,o),
(324,1546,o),
(364,1521,cs),
(385,1508,o),
(396,1494,o),
(398,1478,cs),
(400,1462,o),
(396,1443,o),
(384,1420,cs),
(372,1397,o),
(362,1383,o),
(356,1379,cs),
(303,1343,o),
(214,1320,o),
(89,1311,c),
(67,1315,o),
(48,1322,o),
(33,1332,cs),
(18,1342,o),
(8,1352,o),
(3,1362,cs),
(-2,1372,o),
(-2,1377,o),
(5,1376,c),
(34,1372,o),
(73,1372,o),
(120,1375,c),
(159,1413,l),
(159,1514,o),
(152,1612,o),
(137,1709,cs),
(135,1722,o),
(136,1731,o),
(140,1737,cs),
(155,1761,ls),
(164,1775,o),
(171,1769,o),
(175,1744,cs)
);
},
{
closed = 1;
nodes = (
(245,1454,o),
(209,1427,o),
(155,1379,c),
(237,1388,o),
(303,1406,o),
(352,1432,c),
(334,1464,o),
(305,1473,o),
(264,1460,cs)
);
}
);
width = 398;
},
{
anchors = (
{
name = _MarkAbove;
pos = (233,1270);
}
);
layerId = "037FF2D3-C03F-44B0-90AB-89AFD43EFA27";
shapes = (
{
closed = 1;
nodes = (
(198,1618,o),
(204,1522,o),
(200,1458,c),
(271,1529,o),
(327,1552,o),
(368,1527,c),
(390,1513,o),
(403,1497,o),
(405,1479,cs),
(407,1461,o),
(403,1440,o),
(390,1416,cs),
(377,1392,o),
(367,1378,o),
(360,1373,cs),
(305,1337,o),
(215,1314,o),
(89,1304,c),
(88,1304,l),
(65,1308,o),
(43,1317,o),
(22,1331,cs),
(1,1345,o),
(-9,1359,o),
(-8,1373,cs),
(-7,1381,o),
(-3,1384,o),
(6,1383,cs),
(34,1379,o),
(71,1379,o),
(116,1382,c),
(152,1416,l),
(151,1515,o),
(143,1612,o),
(129,1708,cs),
(127,1723,o),
(129,1735,o),
(134,1742,cs),
(149,1765,ls),
(154,1772,o),
(158,1775,o),
(163,1776,cs),
(171,1777,o),
(177,1772,o),
(180,1759,cs),
(181,1755,o),
(181,1751,o),
(182,1745,cs)
);
},
{
closed = 1;
nodes = (
(250,1448,o),
(220,1426,o),
(177,1389,c),
(244,1398,o),
(299,1414,o),
(342,1435,c),
(325,1458,o),
(300,1463,o),
(266,1453,c)
);
}
);
width = 0;
}
);
unicode = 1557;
}
{
glyphname = "alefLamYehabove-ar";
layers = (
{
anchors = (
{
name = _MarkAbove;
pos = (214,801);
},
{
name = _TashkilAbove;
pos = (213,801);
},
{
name = _TashkilAboveDot;
pos = (213,801);
}
);
layerId = "7FE84AD5-D318-40C5-A81A-3CDC73FF77D2";
shapes = (
{
closed = 1;
nodes = (
(275,1080,o),
(279,1023,o),
(277,991,cs),
(275,959,o),
(272,937,o),
(267,923,cs),
(262,909,o),
(258,901,o),
(255,901,cs),
(250,901,o),
(249,906,o),
(250,914,c),
(252,947,o),
(248,1014,o),
(238,1117,cs),
(237,1126,o),
(237,1133,o),
(239,1136,cs),
(251,1160,ls),
(258,1175,o),
(263,1176,o),
(265,1162,cs)
);
},
{
closed = 1;
nodes = (
(158,1085,o),
(160,1029,o),
(153,990,cs),
(146,951,o),
(120,919,o),
(77,893,c),
(144,883,o),
(261,884,o),
(428,899,cs),
(436,900,o),
(439,896,o),
(434,889,cs),
(416,863,ls),
(413,859,o),
(409,856,o),
(406,855,cs),
(376,850,o),
(323,847,o),
(246,844,cs),
(169,841,o),
(113,843,o),
(75,849,cs),
(63,851,o),
(56,856,o),
(54,865,c),
(52,879,o),
(56,894,o),
(64,908,cs),
(72,922,o),
(81,932,o),
(91,939,cs),
(121,960,o),
(135,983,o),
(134,1008,c),
(129,1056,o),
(126,1096,o),
(121,1128,cs),
(120,1136,o),
(120,1143,o),
(123,1147,cs),
(132,1162,ls),
(140,1174,o),
(145,1172,o),
(147,1158,cs)
);
}
);
width = 436;
},
{
anchors = (
{
name = _MarkAbove;
pos = (214,801);
},
{
name = _TashkilAbove;
pos = (213,801);
},
{
name = _TashkilAboveDot;
pos = (213,801);
}
);
layerId = "037FF2D3-C03F-44B0-90AB-89AFD43EFA27";
shapes = (
{
closed = 1;
nodes = (
(269,1177,o),
(264,1183,o),
(254,1178,cs),
(252,1177,o),
(249,1172,o),
(245,1164,cs),
(233,1140,l),
(230,1135,o),
(229,1128,o),
(230,1117,cs),
(240,1015,o),
(244,947,o),
(242,914,cs),
(241,901,o),
(245,894,o),
(255,894,c),
(258,894,o),
(261,896,o),
(263,898,cs),
(265,900,o),
(269,907,o),
(274,920,cs),
(289,961,o),
(288,1042,o),
(272,1163,c)
);
},
{
closed = 1;
nodes = (
(167,1092,o),
(168,1034,o),
(160,989,c),
(153,954,o),
(132,922,o),
(97,897,c),
(166,890,o),
(276,893,o),
(427,906,cs),
(432,906,o),
(436,906,o),
(441,903,cs),
(446,900,o),
(445,894,o),
(439,885,cs),
(421,858,l),
(416,852,o),
(412,849,o),
(407,848,cs),
(376,843,o),
(323,840,o),
(246,837,cs),
(169,834,o),
(112,835,o),
(74,841,cs),
(58,844,o),
(49,851,o),
(47,864,cs),
(45,880,o),
(49,896,o),
(58,911,cs),
(67,926,o),
(77,937,o),
(87,945,cs),
(114,965,o),
(127,985,o),
(127,1007,c),
(122,1055,o),
(119,1090,o),
(116,1111,cs),
(113,1132,o),
(113,1145,o),
(116,1151,c),
(126,1166,ls),
(131,1173,o),
(136,1176,o),
(140,1177,c),
(147,1178,o),
(152,1173,o),
(154,1163,cs)
);
}
);
width = 0;
}
);
unicode = 1558;
}
{
glyphname = "zainabove-ar";
layers = (
{
anchors = (
{
name = _MarkAbove;
pos = (233,1270);
}
);
layerId = "7FE84AD5-D318-40C5-A81A-3CDC73FF77D2";
shapes = (
{
closed = 1;
nodes = (
(216,1772,o),
(222,1770,o),
(231,1767,cs),
(240,1764,o),
(251,1757,o),
(263,1746,cs),
(265,1744,o),
(265,1742,o),
(264,1740,cs),
(235,1695,ls),
(234,1693,o),
(232,1694,o),
(229,1696,cs),
(226,1698,o),
(212,1707,o),
(187,1722,cs),
(185,1723,o),
(185,1725,o),
(186,1726,c),
(215,1770,ls)
);
},
{
closed = 1;
nodes = (
(278,1612,o),
(282,1612,o),
(288,1606,cs),
(304,1590,o),
(315,1569,o),
(323,1542,cs),
(331,1515,o),
(333,1486,o),
(329,1455,cs),
(325,1424,o),
(312,1394,o),
(289,1364,cs),
(266,1334,o),
(235,1315,o),
(198,1305,cs),
(188,1302,o),
(178,1302,o),
(169,1305,cs),
(109,1326,o),
(79,1338,o),
(79,1343,cs),
(79,1348,o),
(82,1349,o),
(86,1348,cs),
(113,1340,o),
(137,1336,o),
(157,1339,cs),
(223,1348,o),
(274,1387,o),
(309,1455,cs),
(311,1458,o),
(311,1461,o),
(310,1464,cs),
(304,1485,o),
(288,1511,o),
(263,1543,cs),
(262,1545,o),
(261,1546,o),
(262,1547,cs),
(277,1607,ls)
);
}
);
width = 331;
},
{
anchors = (
{
name = _MarkAbove;
pos = (233,1270);
}
);
layerId = "037FF2D3-C03F-44B0-90AB-89AFD43EFA27";
shapes = (
{
closed = 1;
nodes = (
(213,1779,o),
(218,1780,o),
(224,1778,cs),
(230,1776,o),
(234,1773,o),
(240,1771,cs),
(246,1769,o),
(255,1762,o),
(268,1751,c),
(272,1746,o),
(274,1741,o),
(271,1736,c),
(242,1691,l),
(238,1685,o),
(233,1684,o),
(228,1688,cs),
(223,1692,o),
(208,1701,o),
(183,1716,cs),
(177,1720,o),
(176,1724,o),
(180,1730,cs),
(209,1774,l)
);
},
{
closed = 1;
nodes = (
(273,1618,o),
(278,1621,o),
(288,1615,cs),
(290,1614,o),
(292,1612,o),
(293,1611,cs),
(310,1594,o),
(322,1571,o),
(330,1543,cs),
(350,1476,o),
(337,1414,o),
(294,1359,cs),
(270,1328,o),
(239,1307,o),
(200,1297,cs),
(188,1294,o),
(177,1294,o),
(167,1298,cs),
(122,1313,o),
(94,1323,o),
(85,1328,cs),
(76,1333,o),
(72,1339,o),
(72,1345,cs),
(73,1355,o),
(78,1358,o),
(88,1355,cs),
(114,1347,o),
(137,1344,o),
(156,1347,cs),
(219,1356,o),
(269,1393,o),
(303,1458,cs),
(304,1460,o),
(303,1461,o),
(303,1462,cs),
(297,1483,o),
(282,1508,o),
(257,1539,cs),
(254,1543,o),
(254,1546,o),
(255,1550,c),
(270,1609,l)
);
}
);
width = 0;
}
);
unicode = 1559;
}
{
glyphname = "fathasmall-ar";
layers = (
{
anchors = (
{
name = _MarkAbove;
pos = (249,801);
},
{
name = _TashkilAbove;
pos = (247,801);
},
{
name = _TashkilAboveDot;
pos = (247,801);
}
);
layerId = "7FE84AD5-D318-40C5-A81A-3CDC73FF77D2";
shapes = (
{
closed = 1;
nodes = (
(316,903,ls),
(320,905,o),
(322,909,o),
(323,914,cs),
(326,941,ls),
(327,949,o),
(323,952,o),
(314,948,cs),
(143,872,ls),
(138,870,o),
(135,867,o),
(134,862,cs),
(132,851,ls),
(131,843,o),
(137,840,o),
(148,844,cs)
);
}
);
width = 326;
},
{
anchors = (
{
name = _MarkAbove;
pos = (249,801);
},
{
name = _TashkilAbove;
pos = (247,801);
},
{
name = _TashkilAboveDot;
pos = (247,801);
}
);
layerId = "037FF2D3-C03F-44B0-90AB-89AFD43EFA27";
shapes = (
{
closed = 1;
nodes = (
(312,952,l),
(317,954,o),
(321,955,o),
(326,954,cs),
(331,953,o),
(332,949,o),
(331,941,cs),
(328,913,ls),
(327,905,o),
(323,900,o),
(317,898,cs),
(149,840,l),
(133,835,o),
(126,839,o),
(127,852,c),
(129,862,ls),
(130,868,o),
(134,873,o),
(141,876,cs)
);
}
);
width = 326;
}
);
unicode = 1560;
}
{
glyphname = "dammasmall-ar";
layers = (
{
anchors = (
{
name = _MarkAbove;
pos = (244,801);
},
{
name = _TashkilAbove;
pos = (244,801);
},
{
name = _TashkilAboveDot;
pos = (244,801);
}
);
layerId = "7FE84AD5-D318-40C5-A81A-3CDC73FF77D2";
shapes = (
{
closed = 1;
nodes = (
(162,840,o),
(169,841,o),
(180,847,cs),
(204,860,o),
(232,886,o),
(262,925,c),
(281,914,o),
(291,911,o),
(294,917,cs),
(304,937,ls),
(307,944,o),
(306,948,o),
(302,950,cs),
(298,952,o),
(291,956,o),
(282,962,c),
(293,987,o),
(298,1007,o),
(297,1019,cs),
(296,1031,o),
(295,1040,o),
(290,1047,cs),
(285,1054,o),
(277,1056,o),
(269,1054,cs),
(247,1048,o),
(228,1029,o),
(213,998,cs),
(201,973,o),
(212,952,o),
(245,936,c),
(224,908,o),
(200,886,o),
(174,867,cs),
(160,857,o),
(156,850,o),
(159,845,cs)
);
},
{
closed = 1;
nodes = (
(248,980,o),
(237,988,o),
(232,994,cs),
(229,997,o),
(233,1001,o),
(243,1005,cs),
(253,1009,o),
(260,1007,o),
(264,1000,cs),
(268,993,o),
(268,984,o),
(264,972,c)
);
}
);
width = 306;
},
{
anchors = (
{
name = _MarkAbove;
pos = (244,801);
},
{
name = _TashkilAbove;
pos = (244,801);
},
{
name = _TashkilAboveDot;
pos = (244,801);
}
);
layerId = "037FF2D3-C03F-44B0-90AB-89AFD43EFA27";
shapes = (
{
closed = 1;
nodes = (
(279,1062,o),
(286,1058,o),
(292,1050,cs),
(305,1031,o),
(304,1002,o),
(288,964,c),
(295,959,o),
(302,956,o),
(307,953,cs),
(312,950,o),
(312,944,o),
(308,935,cs),
(298,916,ls),
(294,908,o),
(282,908,o),
(263,919,c),
(233,882,o),
(207,856,o),
(183,843,c),
(169,836,o),
(160,835,o),
(155,842,c),
(150,849,o),
(158,861,o),
(178,875,cs),
(198,889,o),
(217,910,o),
(237,935,c),
(206,952,o),
(197,974,o),
(209,1000,cs),
(224,1033,o),
(244,1052,o),
(268,1059,c)
);
},
{
closed = 1;
nodes = (
(254,1004,o),
(247,1004,o),
(237,996,c),
(242,991,o),
(250,985,o),
(261,979,c),
(262,987,o),
(261,993,o),
(259,998,c)
);
}
);
width = 311;
}
);
unicode = 1561;
}
{
glyphname = "endoftext-ar";
layers = (
{
layerId = "7FE84AD5-D318-40C5-A81A-3CDC73FF77D2";
shapes = (
{
closed = 1;
nodes = (
(548,-43,o),
(603,18,o),
(603,80,cs),
(603,124,o),
(577,166,o),
(534,166,cs),
(493,166,o),
(466,136,o),
(466,95,cs),
(466,83,o),
(468,70,o),
(473,55,c),
(466,53,o),
(461,52,o),
(455,52,cs),
(406,52,o),
(386,125,o),
(378,154,cs),
(361,212,o),
(336,276,o),
(294,329,cs),
(276,350,o),
(246,378,o),
(203,413,cs),
(168,441,o),
(141,465,o),
(122,485,cs),
(116,491,o),
(119,508,o),
(123,513,cs),
(152,568,o),
(227,655,o),
(304,655,cs),
(352,655,o),
(381,631,o),
(381,579,cs),
(381,556,o),
(373,525,o),
(357,486,c),
(372,476,l),
(399,516,o),
(420,574,o),
(420,635,cs),
(420,707,o),
(387,758,o),
(317,758,cs),
(206,758,o),
(116,642,o),
(87,583,cs),
(78,564,o),
(72,542,o),
(72,517,cs),
(72,459,o),
(99,398,o),
(131,370,cs),
(173,331,o),
(227,297,o),
(262,250,cs),
(316,183,o),
(336,134,o),
(376,47,cs),
(395,1,o),
(433,-43,o),
(488,-43,cs)
);
}
);
width = 674;
},
{
layerId = "037FF2D3-C03F-44B0-90AB-89AFD43EFA27";
shapes = (
{
closed = 1;
nodes = (
(587,180,o),
(617,130,o),
(617,80,cs),
(617,43,o),
(600,7,o),
(574,-19,cs),
(551,-42,o),
(521,-57,o),
(488,-57,cs),
(423,-57,o),
(393,-6,o),
(373,41,cs),
(335,124,o),
(303,176,o),
(250,241,cs),
(215,288,o),
(164,319,o),
(121,359,cs),
(85,391,o),
(65,455,o),
(65,517,cs),
(65,545,o),
(71,569,o),
(81,590,cs),
(105,638,o),
(146,697,o),
(202,735,cs),
(256,772,o),
(347,793,o),
(398,742,cs),
(472,668,o),
(417,529,o),
(373,464,c),
(347,481,l),
(361,517,o),
(374,559,o),
(374,579,cs),
(374,622,o),
(347,641,o),
(304,641,cs),
(234,641,o),
(148,557,o),
(122,496,c),
(143,474,o),
(178,452,o),
(212,424,cs),
(253,390,o),
(279,370,o),
(305,338,cs),
(349,282,o),
(366,216,o),
(383,156,cs),
(390,131,o),
(418,67,o),
(455,67,c),
(453,77,o),
(451,86,o),
(451,95,cs),
(451,119,o),
(459,141,o),
(475,157,cs),
(490,172,o),
(511,180,o),
(534,180,cs)
);
}
);
width = 674;
}
);
unicode = 1565;
}
{
glyphname = "question-ar";
layers = (
{
layerId = "7FE84AD5-D318-40C5-A81A-3CDC73FF77D2";
shapes = (
{
closed = 1;
nodes = (
(208,156,o),
(212,160,o),
(214,168,cs),
(219,190,o),
(220,218,o),
(219,252,cs),
(216,327,o),
(193,402,o),
(148,476,cs),
(114,532,o),
(113,579,o),
(144,614,cs),
(158,631,o),
(179,639,o),
(207,640,cs),
(233,640,o),
(255,634,o),
(276,620,cs),
(310,598,o),
(325,565,o),
(322,519,c),
(311,530,o),
(297,536,o),
(278,535,cs),
(260,534,o),
(246,528,o),
(237,516,cs),
(228,504,o),
(224,491,o),
(224,476,cs),
(224,461,o),
(229,448,o),
(239,435,cs),
(250,422,o),
(265,415,o),
(284,415,cs),
(311,415,o),
(331,429,o),
(344,458,cs),
(349,469,o),
(352,486,o),
(354,510,cs),
(356,534,o),
(354,554,o),
(349,570,cs),
(338,605,o),
(318,631,o),
(290,647,cs),
(264,662,o),
(237,669,o),
(210,669,cs),
(146,668,o),
(98,646,o),
(65,601,cs),
(29,551,o),
(21,493,o),
(42,428,cs),
(53,392,o),
(93,346,o),
(162,287,cs),
(181,270,o),
(191,245,o),
(191,210,cs),
(191,198,o),
(191,184,o),
(190,171,cs),
(189,161,o),
(193,156,o),
(201,156,cs)
);
},
{
alignment = -1;
pos = (44,0);
ref = dot.2;
}
);
width = 413;
},
{
layerId = "037FF2D3-C03F-44B0-90AB-89AFD43EFA27";
shapes = (
{
closed = 1;
nodes = (
(312,599,o),
(276,636,o),
(218,636,cs),
(170,636,o),
(144,614,o),
(139,570,cs),
(136,543,o),
(145,511,o),
(165,473,cs),
(203,400,o),
(223,334,o),
(226,276,cs),
(228,243,o),
(227,215,o),
(222,192,cs),
(221,185,o),
(216,182,o),
(209,182,cs),
(201,182,o),
(196,184,o),
(195,190,cs),
(193,197,o),
(193,208,o),
(192,223,cs),
(191,254,o),
(178,277,o),
(155,294,cs),
(81,347,o),
(39,394,o),
(28,435,cs),
(12,495,o),
(21,549,o),
(55,596,cs),
(90,644,o),
(143,669,o),
(215,671,cs),
(252,672,o),
(284,660,o),
(312,637,cs),
(335,618,o),
(350,594,o),
(359,564,cs),
(372,521,o),
(372,482,o),
(358,447,cs),
(344,412,o),
(322,395,o),
(289,393,cs),
(267,392,o),
(249,400,o),
(234,417,cs),
(220,433,o),
(214,450,o),
(214,468,cs),
(214,486,o),
(219,502,o),
(230,516,cs),
(241,530,o),
(257,539,o),
(277,541,cs),
(297,543,o),
(314,538,o),
(327,526,c)
);
},
{
alignment = -1;
pos = (51,0);
ref = dot.2;
}
);
width = 413;
}
);
unicode = 1567;
}
{
glyphname = "hamza-ar";
layers = (
{
anchors = (
{
name = TashkilAbove;
pos = (146,342);
},
{
name = TashkilBelow;
pos = (210,29);
}
);
layerId = "7FE84AD5-D318-40C5-A81A-3CDC73FF77D2";
shapes = (
{
closed = 1;
nodes = (
(97,0,o),
(102,0,o),
(109,4,cs),
(183,54,o),
(245,87,o),
(295,105,c),
(301,109,o),
(305,116,o),
(308,125,cs),
(316,151,ls),
(321,168,o),
(318,176,o),
(305,174,c),
(297,172,o),
(286,168,o),
(274,161,cs),
(262,154,o),
(252,150,o),
(243,148,cs),
(212,142,o),
(186,145,o),
(163,156,cs),
(125,174,o),
(113,193,o),
(127,214,cs),
(140,232,o),
(162,228,o),
(192,199,cs),
(201,190,o),
(210,192,o),
(217,204,cs),
(224,216,o),
(229,229,o),
(230,242,cs),
(233,279,o),
(218,298,o),
(184,298,cs),
(168,298,o),
(148,285,o),
(125,259,cs),
(87,215,o),
(66,179,o),
(63,152,c),
(58,119,o),
(84,93,o),
(138,73,c),
(97,38,o),
(82,15,o),
(93,4,cs)
);
}
);
width = 381;
},
{
anchors = (
{
name = TashkilAbove;
pos = (146,342);
},
{
name = TashkilBelow;
pos = (210,29);
}
);
layerId = "037FF2D3-C03F-44B0-90AB-89AFD43EFA27";
shapes = (
{
closed = 1;
nodes = (
(223,305,o),
(241,284,o),
(237,242,c),
(235,222,o),
(229,206,o),
(219,195,cs),
(209,184,o),
(199,183,o),
(187,193,c),
(159,219,o),
(140,224,o),
(131,206,c),
(124,192,o),
(134,179,o),
(160,166,cs),
(200,147,o),
(237,147,o),
(271,167,cs),
(291,178,o),
(305,183,o),
(315,180,cs),
(325,177,o),
(328,167,o),
(323,149,cs),
(315,123,l),
(311,110,o),
(305,101,o),
(298,98,c),
(248,80,o),
(186,47,o),
(113,-2,c),
(103,-8,o),
(95,-8,o),
(88,-1,c),
(74,13,o),
(86,36,o),
(124,70,c),
(75,91,o),
(52,117,o),
(56,149,cs),
(60,181,o),
(82,219,o),
(120,264,cs),
(144,292,o),
(166,306,o),
(184,306,cs)
);
}
);
width = 381;
}
);
unicode = 1569;
}
{
glyphname = "hah-ar";
layers = (
{
anchors = (
{
name = DigitBelow;
pos = (391,-34);
},
{
name = DotAbove;
pos = (342,439);
},
{
name = DotBelow;
pos = (391,-156);
},
{
name = HamzaAbove;
pos = (342,439);
},
{
name = HamzaBelow;
pos = (391,-156);
},
{
name = TaaAbove;
pos = (342,439);
},
{
name = TaaBelow;
pos = (391,146);
},
{
name = TashkilAbove;
pos = (342,801);
},
{
name = TashkilBelow;
pos = (391,49);
},
{
name = TwoDotsAbove;
pos = (288,439);
},
{
name = TwoDotsBelow;
pos = (336,-156);
}
);
layerId = "7FE84AD5-D318-40C5-A81A-3CDC73FF77D2";
shapes = (
{
closed = 1;
nodes = (
(591,-508,o),
(613,-499,o),
(647,-478,cs),
(670,-464,o),
(702,-451,o),
(742,-439,cs),
(747,-437,o),
(752,-435,o),
(755,-430,cs),
(758,-425,o),
(758,-421,o),
(755,-417,cs),
(752,-413,o),
(745,-412,o),
(735,-413,cs),
(653,-420,o),
(564,-422,o),
(469,-416,cs),
(374,-410,o),
(304,-397,o),
(260,-378,cs),
(179,-342,o),
(131,-292,o),
(116,-228,cs),
(89,-112,o),
(138,-13,o),
(263,69,cs),
(327,111,o),
(438,142,o),
(598,163,cs),
(603,164,o),
(606,166,o),
(609,172,cs),
(633,226,ls),
(640,241,o),
(634,247,o),
(614,244,cs),
(557,234,o),
(509,230,o),
(470,229,cs),
(431,228,o),
(383,233,o),
(327,244,cs),
(271,255,o),
(230,260,o),
(204,259,cs),
(152,256,o),
(120,237,o),
(108,202,cs),
(102,185,o),
(99,169,o),
(98,153,cs),
(98,149,o),
(99,147,o),
(103,146,cs),
(107,145,o),
(111,146,o),
(115,148,cs),
(160,174,o),
(227,177,o),
(317,155,c),
(186,93,o),
(106,-7,o),
(75,-142,cs),
(44,-277,o),
(72,-377,o),
(159,-440,cs),
(246,-503,o),
(387,-526,o),
(583,-509,cs)
);
}
);
width = 661;
},
{
anchors = (
{
name = DigitBelow;
pos = (391,-34);
},
{
name = DotAbove;
pos = (342,439);
},
{
name = DotBelow;
pos = (391,-156);
},
{
name = HamzaAbove;
pos = (342,439);
},
{
name = HamzaBelow;
pos = (391,-156);
},
{
name = TaaAbove;
pos = (342,439);
},
{
name = TaaBelow;
pos = (391,146);
},
{
name = TashkilAbove;
pos = (342,801);
},
{
name = TashkilBelow;
pos = (391,49);
},
{
name = TwoDotsAbove;
pos = (288,439);
},
{
name = TwoDotsBelow;
pos = (336,-156);
}
);
layerId = "037FF2D3-C03F-44B0-90AB-89AFD43EFA27";
shapes = (
{
closed = 1;
nodes = (
(208,22,o),
(164,-22,o),
(140,-72,cs),
(116,-122,o),
(107,-170,o),
(115,-216,cs),
(132,-315,o),
(199,-376,o),
(317,-399,cs),
(416,-419,o),
(548,-419,o),
(714,-398,cs),
(740,-395,o),
(754,-399,o),
(754,-412,cs),
(754,-422,o),
(740,-431,o),
(712,-440,cs),
(684,-449,o),
(658,-463,o),
(632,-482,cs),
(606,-501,o),
(590,-512,o),
(583,-515,cs),
(576,-518,o),
(569,-520,o),
(562,-521,cs),
(363,-545,o),
(224,-526,o),
(146,-463,cs),
(83,-413,o),
(56,-333,o),
(64,-224,cs),
(77,-52,o),
(146,72,o),
(271,151,c),
(210,160,o),
(160,155,o),
(122,136,cs),
(105,128,o),
(97,135,o),
(98,157,cs),
(100,234,o),
(144,273,o),
(228,275,cs),
(243,275,o),
(277,271,o),
(330,262,cs),
(416,247,o),
(504,246,o),
(594,261,cs),
(629,267,o),
(642,259,o),
(633,238,cs),
(604,169,ls),
(599,156,o),
(592,149,o),
(582,148,cs),
(455,137,o),
(351,107,o),
(270,59,cs)
);
}
);
width = 661;
}
);
unicode = 1581;
}
{
glyphname = "dal-ar";
layers = (
{
anchors = (
{
name = DotAbove;
pos = (205,586);
},
{
name = DotBelow;
pos = (244,-146);
},
{
name = HamzaAbove;
pos = (205,586);
},
{
name = HamzaBelow;
pos = (244,-146);
},
{
name = RingBelow;
pos = (239,54);
},
{
name = TaaAbove;
pos = (205,537);
},
{
name = TashkilAbove;
pos = (205,801);
},
{
name = TashkilBelow;
pos = (244,-327);
},
{
name = TwoDotsAbove;
pos = (151,586);
},
{
name = TwoDotsBelow;
pos = (190,-146);
},
{
name = VAbove;
pos = (205,537);
}
);
layerId = "7FE84AD5-D318-40C5-A81A-3CDC73FF77D2";
shapes = (
{
closed = 1;
nodes = (
(181,355,o),
(191,375,o),
(199,385,cs),
(205,392,o),
(213,392,o),
(222,387,cs),
(311,338,o),
(362,272,o),
(377,190,cs),
(385,144,o),
(384,103,o),
(372,68,cs),
(368,58,o),
(361,50,o),
(351,44,cs),
(288,11,o),
(217,-5,o),
(141,-6,cs),
(88,-7,o),
(69,28,o),
(85,96,cs),
(87,104,o),
(91,108,o),
(97,109,cs),
(101,109,o),
(106,107,o),
(112,102,cs),
(125,91,o),
(150,88,o),
(187,93,cs),
(268,103,o),
(321,116,o),
(346,131,cs),
(348,132,o),
(349,136,o),
(348,143,cs),
(336,210,o),
(281,262,o),
(185,299,cs),
(172,304,o),
(167,312,o),
(170,322,cs)
);
}
);
width = 450;
},
{
anchors = (
{
name = DotAbove;
pos = (205,586);
},
{
name = DotBelow;
pos = (244,-146);
},
{
name = HamzaAbove;
pos = (205,586);
},
{
name = HamzaBelow;
pos = (244,-146);
},
{
name = RingBelow;
pos = (239,54);
},
{
name = TaaAbove;
pos = (205,537);
},
{
name = TashkilAbove;
pos = (205,801);
},
{
name = TashkilBelow;
pos = (244,-327);
},
{
name = TwoDotsAbove;
pos = (151,586);
},
{
name = TwoDotsBelow;
pos = (190,-146);
},
{
name = VAbove;
pos = (205,537);
}
);
layerId = "037FF2D3-C03F-44B0-90AB-89AFD43EFA27";
shapes = (
{
closed = 1;
nodes = (
(166,291,o),
(164,306,o),
(172,329,cs),
(180,352,o),
(189,371,o),
(197,387,cs),
(205,403,o),
(216,407,o),
(229,400,cs),
(312,351,o),
(361,282,o),
(379,193,cs),
(388,145,o),
(388,103,o),
(375,67,cs),
(368,45,o),
(357,31,o),
(345,26,cs),
(275,-2,o),
(215,-18,o),
(165,-21,cs),
(92,-26,o),
(65,14,o),
(86,99,cs),
(90,115,o),
(96,124,o),
(105,124,cs),
(112,124,o),
(117,120,o),
(122,112,cs),
(127,104,o),
(157,103,o),
(213,110,cs),
(269,117,o),
(312,128,o),
(343,143,c),
(333,194,o),
(279,241,o),
(180,285,cs)
);
}
);
width = 450;
}
);
unicode = 1583;
}
{
glyphname = "reh-ar";
layers = (
{
anchors = (
{
name = DotAbove;
pos = (160,531);
},
{
name = DotAlt;
pos = (69,-33);
},
{
name = DotBelow;
pos = (273,-264);
},
{
name = HamzaAbove;
pos = (185,458);
},
{
name = RingBelow;
pos = (95,-173);
},
{
name = Stroke;
pos = (317,31);
},
{
name = TaaAbove;
pos = (160,434);
},
{
name = TashkilAbove;
pos = (195,801);
},
{
name = TashkilBelow;
pos = (248,-327);
},
{
name = TwoDotsAbove;
pos = (130,458);
},
{
name = VAbove;
pos = (185,458);
}
);
layerId = "7FE84AD5-D318-40C5-A81A-3CDC73FF77D2";
shapes = (
{
closed = 1;
nodes = (
(248,287,o),
(254,286,o),
(264,276,cs),
(290,249,o),
(309,214,o),
(322,169,cs),
(335,124,o),
(340,80,o),
(336,35,c),
(328,-23,o),
(305,-77,o),
(266,-127,cs),
(227,-177,o),
(176,-210,o),
(114,-226,cs),
(97,-231,o),
(81,-230,o),
(66,-225,cs),
(-12,-199,o),
(-60,-179,o),
(-79,-167,cs),
(-82,-165,o),
(-83,-164,o),
(-83,-161,cs),
(-83,-158,o),
(-82,-156,o),
(-80,-154,cs),
(-78,-152,o),
(-74,-152,o),
(-71,-153,cs),
(-25,-167,o),
(14,-171,o),
(47,-167,cs),
(80,-163,o),
(118,-148,o),
(161,-120,cs),
(225,-79,o),
(271,-31,o),
(300,24,cs),
(303,29,o),
(303,34,o),
(302,40,cs),
(292,75,o),
(266,119,o),
(224,171,cs),
(222,174,o),
(221,177,o),
(222,179,cs),
(246,279,ls)
);
}
);
width = 399;
},
{
anchors = (
{
name = DotAbove;
pos = (160,531);
},
{
name = DotAlt;
pos = (69,-33);
},
{
name = DotBelow;
pos = (273,-264);
},
{
name = HamzaAbove;
pos = (185,458);
},
{
name = RingBelow;
pos = (95,-173);
},
{
name = Stroke;
pos = (317,31);
},
{
name = TaaAbove;
pos = (160,434);
},
{
name = TashkilAbove;
pos = (195,801);
},
{
name = TashkilBelow;
pos = (248,-327);
},
{
name = TwoDotsAbove;
pos = (130,458);
},
{
name = VAbove;
pos = (185,458);
}
);
layerId = "037FF2D3-C03F-44B0-90AB-89AFD43EFA27";
shapes = (
{
closed = 1;
nodes = (
(242,313,o),
(255,309,o),
(276,283,cs),
(297,257,o),
(316,220,o),
(330,170,c),
(361,58,o),
(341,-44,o),
(270,-136,cs),
(229,-189,o),
(178,-224,o),
(118,-240,cs),
(96,-246,o),
(77,-245,o),
(62,-238,cs),
(3,-213,o),
(-43,-192,o),
(-76,-176,cs),
(-87,-170,o),
(-91,-164,o),
(-87,-156,cs),
(-83,-148,o),
(-76,-145,o),
(-65,-148,cs),
(-21,-161,o),
(15,-165,o),
(43,-158,cs),
(71,-151,o),
(108,-134,o),
(153,-107,cs),
(231,-60,o),
(279,-14,o),
(296,31,cs),
(297,33,o),
(297,35,o),
(297,37,cs),
(291,68,o),
(263,110,o),
(212,163,cs),
(207,168,o),
(206,174,o),
(208,182,cs),
(237,295,ls)
);
}
);
width = 399;
}
);
unicode = 1585;
}
{
glyphname = "seen-ar";
layers = (
{
anchors = (
{
name = DigitAbove;
pos = (748,522);
},
{
name = DotAbove;
pos = (748,522);
},
{
name = DotBelow;
pos = (781,-98);
},
{
name = HamzaAbove;
pos = (748,522);
},
{
name = TashkilAbove;
pos = (732,801);
},
{
name = TashkilBelow;
pos = (342,-327);
},
{
name = TwoDotsAbove;
pos = (694,522);
},
{
name = TwoDotsBelow;
pos = (732,-98);
},
{
name = VAbove;
pos = (748,522);
}
);
layerId = "7FE84AD5-D318-40C5-A81A-3CDC73FF77D2";
shapes = (
{
closed = 1;
nodes = (
(895,370,o),
(898,373,o),
(903,373,cs),
(908,373,o),
(913,371,o),
(916,365,cs),
(925,350,o),
(929,328,o),
(929,297,cs),
(929,248,o),
(917,205,o),
(894,167,cs),
(888,157,o),
(880,150,o),
(870,148,cs),
(839,142,o),
(802,152,o),
(761,177,c),
(731,124,o),
(688,100,o),
(632,108,c),
(629,51,o),
(620,2,o),
(606,-40,cs),
(592,-82,o),
(567,-116,o),
(532,-144,cs),
(456,-204,o),
(371,-232,o),
(279,-230,cs),
(165,-227,o),
(95,-179,o),
(68,-87,cs),
(61,-61,o),
(62,-24,o),
(72,25,cs),
(82,74,o),
(102,126,o),
(133,183,cs),
(135,187,o),
(138,189,o),
(142,189,cs),
(146,189,o),
(149,188,o),
(151,185,cs),
(153,182,o),
(153,178,o),
(151,174,cs),
(109,93,o),
(93,38,o),
(101,11,cs),
(125,-76,o),
(188,-121,o),
(289,-124,cs),
(427,-128,o),
(526,-83,o),
(585,10,c),
(589,61,o),
(576,120,o),
(546,184,cs),
(542,191,o),
(541,196,o),
(543,200,cs),
(557,231,o),
(570,254,o),
(579,268,cs),
(582,272,o),
(585,272,o),
(588,269,cs),
(591,266,o),
(599,256,o),
(610,237,cs),
(621,218,o),
(628,208,o),
(634,207,cs),
(668,200,o),
(703,210,o),
(738,238,cs),
(751,249,o),
(763,280,o),
(775,330,cs),
(776,336,o),
(779,338,o),
(783,340,cs),
(787,342,o),
(791,342,o),
(794,340,cs),
(801,335,o),
(801,316,o),
(795,282,c),
(822,262,o),
(851,255,o),
(884,258,c),
(884,268,o),
(883,275,o),
(879,279,cs),
(875,283,o),
(874,287,o),
(875,291,cs),
(893,363,ls)
);
}
);
width = 992;
},
{
anchors = (
{
name = DigitAbove;
pos = (748,522);
},
{
name = DotAbove;
pos = (748,522);
},
{
name = DotBelow;
pos = (781,-98);
},
{
name = HamzaAbove;
pos = (748,522);
},
{
name = TashkilAbove;
pos = (732,801);
},
{
name = TashkilBelow;
pos = (342,-327);
},
{
name = TwoDotsAbove;
pos = (694,522);
},
{
name = TwoDotsBelow;
pos = (732,-98);
},
{
name = VAbove;
pos = (748,522);
}
);
layerId = "037FF2D3-C03F-44B0-90AB-89AFD43EFA27";
shapes = (
{
closed = 1;
nodes = (
(890,400,o),
(899,401,o),
(913,386,cs),
(927,371,o),
(934,347,o),
(934,314,cs),
(934,250,o),
(922,198,o),
(897,159,cs),
(889,146,o),
(878,138,o),
(863,134,cs),
(834,126,o),
(800,136,o),
(764,163,c),
(732,112,o),
(690,88,o),
(636,92,c),
(632,40,o),
(622,-8,o),
(608,-50,cs),
(594,-92,o),
(568,-127,o),
(531,-156,cs),
(452,-218,o),
(368,-247,o),
(279,-245,cs),
(167,-242,o),
(97,-190,o),
(69,-91,cs),
(61,-63,o),
(62,-25,o),
(72,24,cs),
(82,73,o),
(101,126,o),
(131,181,cs),
(136,190,o),
(141,193,o),
(148,189,cs),
(155,185,o),
(156,178,o),
(152,169,cs),
(119,91,o),
(107,39,o),
(114,15,cs),
(136,-67,o),
(195,-109,o),
(290,-109,cs),
(429,-110,o),
(526,-68,o),
(581,15,c),
(583,58,o),
(567,112,o),
(533,177,cs),
(527,188,o),
(526,199,o),
(530,207,cs),
(572,285,ls),
(578,297,o),
(587,294,o),
(599,278,cs),
(611,262,o),
(623,243,o),
(632,221,c),
(705,210,o),
(751,247,o),
(771,333,cs),
(775,348,o),
(781,355,o),
(790,354,cs),
(805,352,o),
(808,331,o),
(801,292,c),
(823,278,o),
(848,271,o),
(876,272,c),
(876,275,o),
(873,282,o),
(866,293,cs),
(864,297,o),
(864,303,o),
(867,314,cs),
(885,382,ls)
);
}
);
width = 992;
}
);
unicode = 1587;
}
{
glyphname = "sad-ar";
layers = (
{
anchors = (
{
name = DotAbove;
pos = (821,542);
},
{
name = DotBelow;
pos = (879,-98);
},
{
name = HamzaAbove;
pos = (821,542);
},
{
name = TashkilAbove;
pos = (820,801);
},
{
name = TashkilBelow;
pos = (342,-327);
},
{
name = TwoDotsAbove;
pos = (767,542);
},
{
name = TwoDotsBelow;
pos = (830,-98);
}
);
layerId = "7FE84AD5-D318-40C5-A81A-3CDC73FF77D2";
shapes = (
{
closed = 1;
nodes = (
(1089,394,o),
(1125,364,o),
(1147,305,c),
(1152,287,o),
(1148,264,o),
(1133,235,cs),
(1118,206,o),
(1106,187,o),
(1097,177,cs),
(1049,124,o),
(961,92,o),
(829,81,cs),
(755,75,o),
(687,79,o),
(626,93,c),
(613,-15,o),
(591,-84,o),
(562,-114,cs),
(495,-183,o),
(407,-222,o),
(298,-229,cs),
(178,-237,o),
(103,-192,o),
(71,-96,cs),
(63,-71,o),
(60,-41,o),
(65,-7,cs),
(73,52,o),
(92,107,o),
(120,158,cs),
(132,179,o),
(143,197,o),
(153,210,cs),
(156,214,o),
(160,216,o),
(164,215,cs),
(168,214,o),
(171,212,o),
(172,208,cs),
(173,204,o),
(172,200,o),
(170,196,c),
(160,182,o),
(151,165,o),
(143,145,cs),
(122,94,o),
(115,49,o),
(121,10,c),
(136,-79,o),
(192,-124,o),
(288,-127,c),
(374,-129,o),
(453,-107,o),
(528,-62,c),
(553,-47,o),
(571,-26,o),
(583,3,cs),
(585,7,o),
(585,12,o),
(584,18,cs),
(574,81,o),
(557,130,o),
(533,164,cs),
(528,171,o),
(526,177,o),
(528,181,cs),
(559,263,l),
(565,274,o),
(570,276,o),
(576,266,cs),
(613,203,l),
(636,189,o),
(675,181,o),
(726,179,c),
(784,238,o),
(842,288,o),
(901,330,cs),
(960,372,o),
(1006,393,o),
(1039,393,cs)
);
},
{
closed = 1;
nodes = (
(1047,283,o),
(1004,295,o),
(957,283,cs),
(910,271,o),
(849,236,o),
(773,178,c),
(913,170,o),
(1018,192,o),
(1088,245,c)
);
}
);
width = 1212;
},
{
anchors = (
{
name = DotAbove;
pos = (821,542);
},
{
name = DotBelow;
pos = (879,-98);
},
{
name = HamzaAbove;
pos = (821,542);
},
{
name = TashkilAbove;
pos = (820,801);
},
{
name = TashkilBelow;
pos = (342,-327);
},
{
name = TwoDotsAbove;
pos = (767,542);
},
{
name = TwoDotsBelow;
pos = (830,-98);
}
);
layerId = "037FF2D3-C03F-44B0-90AB-89AFD43EFA27";
shapes = (
{
closed = 1;
nodes = (
(1091,409,o),
(1129,376,o),
(1152,310,cs),
(1159,290,o),
(1153,263,o),
(1137,231,cs),
(1121,199,o),
(1108,178,o),
(1098,167,cs),
(1046,110,o),
(956,76,o),
(830,66,cs),
(756,60,o),
(689,63,o),
(629,75,c),
(615,-28,o),
(593,-94,o),
(563,-125,cs),
(493,-197,o),
(405,-236,o),
(299,-243,cs),
(225,-248,o),
(169,-234,o),
(129,-199,cs),
(75,-152,o),
(53,-87,o),
(63,-5,cs),
(71,58,o),
(90,115,o),
(120,165,cs),
(134,189,o),
(145,205,o),
(151,212,cs),
(157,219,o),
(163,221,o),
(170,217,cs),
(177,213,o),
(177,204,o),
(170,192,cs),
(136,126,o),
(123,66,o),
(130,12,cs),
(141,-70,o),
(200,-110,o),
(308,-110,cs),
(389,-110,o),
(460,-89,o),
(521,-48,cs),
(554,-26,o),
(574,-7,o),
(580,9,c),
(574,65,o),
(555,113,o),
(525,152,cs),
(516,163,o),
(514,175,o),
(518,184,cs),
(556,278,ls),
(564,298,o),
(575,296,o),
(589,273,c),
(624,214,l),
(644,203,o),
(682,196,o),
(737,194,c),
(781,245,o),
(834,294,o),
(894,339,cs),
(954,384,o),
(1003,407,o),
(1039,408,cs)
);
},
{
closed = 1;
nodes = (
(1052,271,o),
(1009,279,o),
(958,269,cs),
(907,259,o),
(852,233,o),
(793,191,c),
(927,190,o),
(1025,208,o),
(1085,246,c)
);
}
);
width = 1212;
}
);
unicode = 1589;
}
{
glyphname = "tah-ar";
layers = (
{
anchors = (
{
name = DotAbove;
pos = (566,488);
},
{
name = TashkilAbove;
pos = (537,801);
},
{
name = TashkilBelow;
pos = (439,-327);
},
{
name = TwoDotsAbove;
pos = (513,488);
}
);
layerId = "7FE84AD5-D318-40C5-A81A-3CDC73FF77D2";
shapes = (
{
closed = 1;
nodes = (
(302,703,o),
(310,720,o),
(312,723,cs),
(314,726,o),
(317,728,o),
(321,728,cs),
(325,728,o),
(327,725,o),
(328,722,cs),
(335,704,o),
(341,690,o),
(346,680,cs),
(351,670,o),
(360,659,o),
(373,644,c),
(378,637,o),
(378,629,o),
(373,623,cs),
(354,598,ls),
(350,593,o),
(348,587,o),
(349,581,cs),
(364,420,o),
(370,315,o),
(367,266,cs),
(364,217,o),
(361,184,o),
(357,167,c),
(439,231,o),
(499,271,o),
(534,288,cs),
(569,305,o),
(600,315,o),
(625,318,cs),
(639,320,o),
(654,316,o),
(671,305,c),
(707,282,o),
(727,260,o),
(729,240,cs),
(731,220,o),
(724,193,o),
(706,159,cs),
(688,125,o),
(673,102,o),
(662,90,cs),
(645,72,o),
(591,49,o),
(500,21,cs),
(409,-7,o),
(312,-23,o),
(212,-28,c),
(175,-22,o),
(145,-9,o),
(120,8,cs),
(95,25,o),
(78,42,o),
(69,58,cs),
(60,74,o),
(62,81,o),
(73,80,cs),
(121,73,o),
(184,72,o),
(263,78,c),
(329,143,l),
(333,212,o),
(331,284,o),
(324,360,cs),
(317,436,o),
(309,502,o),
(302,559,cs),
(295,616,o),
(290,647,o),
(288,654,cs),
(286,661,o),
(287,666,o),
(289,672,cs)
);
},
{
closed = 1;
nodes = (
(455,189,o),
(395,150,o),
(322,85,c),
(459,100,o),
(569,130,o),
(651,173,c),
(629,217,o),
(579,227,o),
(503,204,cs)
);
}
);
width = 792;
},
{
anchors = (
{
name = DotAbove;
pos = (566,488);
},
{
name = TashkilAbove;
pos = (537,801);
},
{
name = TashkilBelow;
pos = (439,-327);
},
{
name = TwoDotsAbove;
pos = (513,488);
}
);
layerId = "037FF2D3-C03F-44B0-90AB-89AFD43EFA27";
shapes = (
{
closed = 1;
nodes = (
(285,621,o),
(280,656,o),
(279,662,cs),
(278,668,o),
(279,675,o),
(284,686,cs),
(286,687,o),
(292,702,o),
(304,731,cs),
(307,739,o),
(312,744,o),
(319,744,cs),
(326,744,o),
(331,739,o),
(336,727,cs),
(343,709,o),
(349,696,o),
(353,688,cs),
(357,680,o),
(365,668,o),
(378,654,cs),
(391,640,o),
(392,628,o),
(384,617,c),
(366,595,o),
(357,583,o),
(357,583,cs),
(372,421,o),
(378,318,o),
(374,275,cs),
(370,232,o),
(368,203,o),
(366,186,c),
(467,277,o),
(551,326,o),
(618,333,cs),
(640,335,o),
(661,330,o),
(679,317,cs),
(712,295,o),
(729,270,o),
(732,245,cs),
(735,220,o),
(728,189,o),
(709,153,cs),
(690,117,o),
(675,93,o),
(663,80,cs),
(644,61,o),
(590,37,o),
(500,8,cs),
(410,-21,o),
(313,-37,o),
(211,-42,c),
(171,-35,o),
(139,-23,o),
(114,-4,cs),
(89,15,o),
(71,31,o),
(60,45,cs),
(30,82,o),
(35,100,o),
(75,95,cs),
(128,89,o),
(192,87,o),
(267,92,c),
(325,149,l),
(329,242,o),
(318,378,o),
(294,557,cs)
);
},
{
closed = 1;
nodes = (
(445,175,o),
(389,146,o),
(344,104,c),
(473,119,o),
(574,146,o),
(645,184,c),
(625,208,o),
(581,211,o),
(513,193,cs)
);
}
);
width = 792;
}
);
unicode = 1591;
}
{
glyphname = "ain-ar";
layers = (
{
anchors = (
{
name = DotAbove;
pos = (181,601);
},
{
name = DotBelow;
pos = (352,49);
},
{
name = HamzaAbove;
pos = (181,601);
},
{
name = TashkilAbove;
pos = (244,801);
},
{
name = TashkilBelow;
pos = (352,98);
},
{
name = TwoDotsAbove;
pos = (126,601);
},
{
name = TwoDotsBelow;
pos = (297,49);
}
);
layerId = "7FE84AD5-D318-40C5-A81A-3CDC73FF77D2";
shapes = (
{
closed = 1;
nodes = (
(541,-460,o),
(574,-448,o),
(616,-427,cs),
(692,-389,o),
(728,-365,o),
(725,-355,cs),
(724,-351,o),
(719,-351,o),
(712,-352,cs),
(628,-367,o),
(559,-375,o),
(507,-377,cs),
(314,-384,o),
(191,-352,o),
(136,-283,cs),
(101,-239,o),
(88,-188,o),
(94,-131,cs),
(106,-22,o),
(155,65,o),
(242,128,cs),
(320,185,o),
(386,226,o),
(440,250,cs),
(448,254,o),
(460,278,o),
(475,320,cs),
(481,337,o),
(478,343,o),
(466,337,cs),
(456,332,o),
(412,305,o),
(334,257,cs),
(313,245,o),
(298,238,o),
(287,237,cs),
(224,230,o),
(170,248,o),
(123,291,cs),
(118,296,o),
(117,300,o),
(120,304,cs),
(179,378,o),
(250,407,o),
(333,390,cs),
(349,387,o),
(353,390,o),
(346,400,cs),
(335,416,o),
(316,433,o),
(288,449,cs),
(260,465,o),
(237,468,o),
(217,459,cs),
(176,439,o),
(141,401,o),
(110,343,cs),
(96,317,o),
(88,288,o),
(85,257,cs),
(84,245,o),
(87,235,o),
(94,226,cs),
(111,203,o),
(146,181,o),
(198,160,c),
(114,78,o),
(69,-38,o),
(64,-185,cs),
(59,-332,o),
(130,-423,o),
(276,-456,cs),
(339,-470,o),
(420,-472,o),
(518,-462,cs)
);
}
);
width = 540;
},
{
anchors = (
{
name = DotAbove;
pos = (181,601);
},
{
name = DotBelow;
pos = (352,49);
},
{
name = HamzaAbove;
pos = (181,601);
},
{
name = TashkilAbove;
pos = (244,801);
},
{
name = TashkilBelow;
pos = (352,98);
},
{
name = TwoDotsAbove;
pos = (126,601);
},
{
name = TwoDotsBelow;
pos = (297,49);
}
);
layerId = "037FF2D3-C03F-44B0-90AB-89AFD43EFA27";
shapes = (
{
closed = 1;
nodes = (
(348,-373,o),
(499,-378,o),
(688,-346,cs),
(718,-340,o),
(733,-341,o),
(734,-349,cs),
(735,-360,o),
(726,-371,o),
(708,-381,cs),
(578,-458,ls),
(555,-472,o),
(522,-479,o),
(480,-482,cs),
(393,-488,o),
(323,-485,o),
(267,-471,cs),
(104,-430,o),
(36,-311,o),
(63,-115,cs),
(77,-15,o),
(115,75,o),
(177,154,c),
(106,186,o),
(72,218,o),
(76,249,cs),
(87,342,o),
(128,413,o),
(201,462,cs),
(228,480,o),
(258,479,o),
(293,458,cs),
(318,443,o),
(337,426,o),
(349,409,cs),
(354,401,o),
(355,395,o),
(353,389,cs),
(351,383,o),
(342,382,o),
(325,386,cs),
(252,401,o),
(186,374,o),
(125,304,c),
(173,265,o),
(227,247,o),
(286,251,cs),
(294,252,o),
(307,258,o),
(326,270,cs),
(383,307,o),
(422,332,o),
(443,344,cs),
(475,362,o),
(487,358,o),
(481,334,cs),
(450,258,ls),
(446,248,o),
(439,241,o),
(431,237,cs),
(383,215,o),
(324,179,o),
(256,130,cs),
(162,63,o),
(111,-23,o),
(101,-128,cs),
(91,-230,o),
(137,-299,o),
(237,-334,cs)
);
}
);
width = 540;
}
);
unicode = 1593;
}
{
glyphname = "kashida-ar";
layers = (
{
anchors = (
{
name = AlefAbove;
pos = (93,244);
},
{
name = HamzaAbove;
pos = (93,244);
},
{
name = HamzaBelow;
pos = (93,-92.773);
},
{
name = MarkAbove;
pos = (93,801);
},
{
name = MarkBelow;
pos = (93,-327);
},
{
name = NoonAbove;
pos = (93,244);
}
);
layerId = "7FE84AD5-D318-40C5-A81A-3CDC73FF77D2";
shapes = (
{
closed = 1;
nodes = (
(-6,0,o),
(-10,5,o),
(-13,15,cs),
(-25,59,ls),
(-31,81,o),
(-22,91,o),
(0,90,cs),
(186,90,ls),
(208,91,o),
(217,81,o),
(211,59,cs),
(198,15,ls),
(195,5,o),
(192,0,o),
(186,0,cs),
(0,0,ls)
);
}
);
width = 185;
},
{
anchors = (
{
name = AlefAbove;
pos = (93,244);
},
{
name = HamzaAbove;
pos = (93,244);
},
{
name = HamzaBelow;
pos = (93,-92.773);
},
{
name = MarkAbove;
pos = (93,801);
},
{
name = MarkBelow;
pos = (93,-327);
},
{
name = NoonAbove;
pos = (93,244);
}
);
layerId = "037FF2D3-C03F-44B0-90AB-89AFD43EFA27";
shapes = (
{
closed = 1;
nodes = (
(-13,-15,o),
(-22,-6,o),
(-27,11,cs),
(-40,55,l),
(-46,87,o),
(-32,104,o),
(0,104,cs),
(186,104,ls),
(214,104,o),
(227,92,o),
(227,69,cs),
(227,63,o),
(226,59,o),
(225,55,cs),
(212,11,ls),
(207,-6,o),
(198,-15,o),
(186,-15,cs),
(0,-15,ls)
);
}
);
width = 185;
}
);
unicode = 1600;
}
{
glyphname = "lam-ar";
layers = (
{
anchors = (
{
name = DotAbove;
pos = (317,684);
},
{
name = Stroke;
pos = (479,549);
},
{
name = TaaAbove;
pos = (462,802);
},
{
name = TashkilAbove;
pos = (293,801);
},
{
name = TashkilBelow;
pos = (283,-327);
},
{
name = TwoDotsAbove;
pos = (220,586);
},
{
name = TwoDotsBelow;
pos = (286,-161);
},
{
name = VAbove;
pos = (323,697);
}
);
layerId = "7FE84AD5-D318-40C5-A81A-3CDC73FF77D2";
shapes = (
{
closed = 1;
nodes = (
(301,-65,o),
(351,-53,o),
(407,-29,cs),
(463,-5,o),
(498,24,o),
(512,58,cs),
(535,112,o),
(544,173,o),
(539,241,cs),
(536,283,o),
(530,343,o),
(520,420,cs),
(510,497,o),
(504,558,o),
(501,602,cs),
(501,611,o),
(503,617,o),
(507,622,cs),
(511,627,o),
(516,635,o),
(523,645,cs),
(530,655,o),
(530,663,o),
(524,669,cs),
(508,686,o),
(495,710,o),
(483,742,cs),
(481,748,o),
(478,751,o),
(473,751,cs),
(468,751,o),
(465,749,o),
(463,744,cs),
(444,700,ls),
(442,696,o),
(441,692,o),
(441,686,c),
(445,652,l),
(452,558,o),
(462,459,o),
(476,352,cs),
(490,245,o),
(497,171,o),
(499,129,c),
(456,74,o),
(386,45,o),
(290,42,cs),
(178,38,o),
(116,77,o),
(107,159,cs),
(104,189,o),
(121,235,o),
(156,298,cs),
(159,303,o),
(159,307,o),
(158,311,cs),
(157,315,o),
(154,317,o),
(150,318,cs),
(146,319,o),
(142,317,o),
(139,313,cs),
(88,247,o),
(62,177,o),
(63,104,cs),
(64,-6,o),
(129,-62,o),
(257,-64,cs)
);
}
);
width = 603;
},
{
anchors = (
{
name = DotAbove;
pos = (317,684);
},
{
name = Stroke;
pos = (479,549);
},
{
name = TaaAbove;
pos = (462,802);
},
{
name = TashkilAbove;
pos = (293,801);
},
{
name = TashkilBelow;
pos = (283,-327);
},
{
name = TwoDotsAbove;
pos = (220,586);
},
{
name = TwoDotsBelow;
pos = (286,-161);
},
{
name = VAbove;
pos = (323,697);
}
);
layerId = "037FF2D3-C03F-44B0-90AB-89AFD43EFA27";
shapes = (
{
closed = 1;
nodes = (
(437,618,o),
(434,637,o),
(430,658,c),
(423,675,o),
(423,690,o),
(430,704,cs),
(456,754,ls),
(465,773,o),
(474,768,o),
(484,741,cs),
(494,714,o),
(509,691,o),
(530,674,cs),
(544,663,o),
(545,649,o),
(534,635,cs),
(509,603,l),
(512,558,o),
(518,498,o),
(528,421,cs),
(538,344,o),
(543,285,o),
(546,242,cs),
(551,171,o),
(542,108,o),
(519,52,cs),
(503,15,o),
(466,-17,o),
(410,-42,cs),
(354,-67,o),
(303,-80,o),
(257,-79,cs),
(164,-78,o),
(103,-43,o),
(76,26,cs),
(67,50,o),
(62,76,o),
(62,104,cs),
(62,179,o),
(85,247,o),
(133,307,cs),
(143,320,o),
(150,322,o),
(156,316,cs),
(162,310,o),
(161,301,o),
(154,288,cs),
(122,231,o),
(108,189,o),
(111,160,cs),
(118,87,o),
(178,52,o),
(289,56,cs),
(385,59,o),
(454,85,o),
(494,134,c),
(477,256,o),
(465,347,o),
(459,407,cs),
(453,467,o),
(447,531,o),
(440,599,c)
);
}
);
width = 603;
}
);
unicode = 1604;
}
{
glyphname = "meem-ar";
layers = (
{
anchors = (
{
name = TashkilAbove;
pos = (195,801);
},
{
name = TashkilBelow;
pos = (317,-391);
}
);
layerId = "7FE84AD5-D318-40C5-A81A-3CDC73FF77D2";
shapes = (
{
closed = 1;
nodes = (
(180,173,o),
(209,181,o),
(243,185,c),
(219,205,o),
(201,214,o),
(188,210,cs),
(170,205,o),
(159,189,o),
(156,163,c)
);
},
{
closed = 1;
nodes = (
(110,169,o),
(121,211,o),
(140,250,cs),
(159,289,o),
(180,313,o),
(202,321,c),
(233,333,o),
(271,320,o),
(316,282,cs),
(340,262,o),
(361,239,o),
(381,214,cs),
(387,207,o),
(390,200,o),
(389,193,cs),
(379,135,o),
(373,101,o),
(370,94,cs),
(367,87,o),
(361,84,o),
(353,86,c),
(242,112,o),
(160,92,o),
(104,26,cs),
(99,20,o),
(97,13,o),
(99,6,cs),
(123,-81,o),
(145,-176,o),
(165,-280,cs),
(195,-434,o),
(198,-513,o),
(173,-516,cs),
(165,-517,o),
(160,-508,o),
(158,-490,cs),
(152,-426,o),
(137,-351,o),
(116,-267,c),
(76,-114,o),
(59,-18,o),
(65,20,cs),
(72,71,o),
(86,106,o),
(104,126,c)
);
}
);
width = 452;
},
{
anchors = (
{
name = TashkilAbove;
pos = (195,801);
},
{
name = TashkilBelow;
pos = (317,-391);
}
);
layerId = "037FF2D3-C03F-44B0-90AB-89AFD43EFA27";
shapes = (
{
closed = 1;
nodes = (
(180,173,o),
(209,181,o),
(243,185,c),
(219,205,o),
(201,214,o),
(188,210,cs),
(170,205,o),
(159,189,o),
(156,163,c)
);
},
{
closed = 1;
nodes = (
(101,181,o),
(110,223,o),
(128,259,cs),
(190,385,o),
(277,374,o),
(388,223,c),
(396,210,o),
(399,198,o),
(398,190,cs),
(389,133,o),
(383,100,o),
(379,92,c),
(373,76,o),
(361,69,o),
(345,72,c),
(244,96,o),
(165,75,o),
(108,12,c),
(131,-77,o),
(151,-159,o),
(167,-236,c),
(196,-379,o),
(205,-466,o),
(196,-499,cs),
(191,-515,o),
(184,-523,o),
(174,-525,cs),
(159,-527,o),
(151,-514,o),
(148,-486,cs),
(143,-426,o),
(129,-354,o),
(107,-270,cs),
(67,-118,o),
(50,-18,o),
(56,29,cs),
(62,76,o),
(77,111,o),
(99,133,c)
);
}
);
width = 452;
}
);
unicode = 1605;
}
{
glyphname = "waw-ar";
layers = (
{
anchors = (
{
name = AlefAbove;
pos = (244,317);
},
{
name = DigitAbove;
pos = (201,439);
},
{
name = DotAbove;
pos = (201,439);
},
{
name = HamzaAbove;
pos = (201,439);
},
{
name = RingBelow;
pos = (118,-10);
},
{
name = Stroke;
pos = (283,-21);
},
{
name = TashkilAbove;
pos = (210,801);
},
{
name = TashkilBelow;
pos = (249,-327);
},
{
name = TwoDotsAbove;
pos = (146,439);
},
{
name = VAbove;
pos = (243,411);
}
);
layerId = "7FE84AD5-D318-40C5-A81A-3CDC73FF77D2";
shapes = (
{
closed = 1;
nodes = (
(192,258,o),
(219,291,o),
(251,290,cs),
(270,290,o),
(288,277,o),
(305,250,cs),
(322,223,o),
(331,194,o),
(336,161,cs),
(341,128,o),
(336,81,o),
(321,22,cs),
(306,-37,o),
(277,-91,o),
(233,-141,cs),
(189,-191,o),
(155,-217,o),
(128,-220,cs),
(101,-223,o),
(66,-221,o),
(22,-214,cs),
(-22,-207,o),
(-53,-198,o),
(-73,-190,cs),
(-80,-187,o),
(-84,-183,o),
(-83,-178,cs),
(-82,-173,o),
(-77,-171,o),
(-70,-172,cs),
(-18,-179,o),
(32,-177,o),
(79,-166,cs),
(107,-159,o),
(148,-133,o),
(201,-86,cs),
(254,-39,o),
(286,-1,o),
(296,31,c),
(293,58,o),
(289,74,o),
(284,77,c),
(259,38,o),
(226,28,o),
(187,48,cs),
(148,68,o),
(142,117,o),
(169,194,cs)
);
},
{
closed = 1;
nodes = (
(241,188,o),
(220,189,o),
(198,161,c),
(215,142,o),
(236,141,o),
(260,157,c)
);
}
);
width = 400;
},
{
anchors = (
{
name = AlefAbove;
pos = (244,317);
},
{
name = DigitAbove;
pos = (201,439);
},
{
name = DotAbove;
pos = (201,439);
},
{
name = HamzaAbove;
pos = (201,439);
},
{
name = RingBelow;
pos = (118,-10);
},
{
name = Stroke;
pos = (283,-21);
},
{
name = TashkilAbove;
pos = (210,801);
},
{
name = TashkilBelow;
pos = (249,-327);
},
{
name = TwoDotsAbove;
pos = (146,439);
},
{
name = VAbove;
pos = (243,411);
}
);
layerId = "037FF2D3-C03F-44B0-90AB-89AFD43EFA27";
shapes = (
{
closed = 1;
nodes = (
(241,188,o),
(220,189,o),
(198,161,c),
(215,142,o),
(236,141,o),
(260,157,c)
);
},
{
closed = 1;
nodes = (
(191,275,o),
(219,311,o),
(251,310,cs),
(275,309,o),
(296,293,o),
(314,264,cs),
(332,235,o),
(342,202,o),
(345,165,cs),
(348,128,o),
(342,79,o),
(327,18,cs),
(312,-43,o),
(283,-99,o),
(240,-151,cs),
(197,-202,o),
(161,-230,o),
(131,-233,cs),
(108,-236,o),
(73,-233,o),
(25,-223,cs),
(-21,-214,o),
(-56,-203,o),
(-79,-194,cs),
(-86,-191,o),
(-89,-185,o),
(-87,-177,cs),
(-85,-169,o),
(-79,-165,o),
(-68,-167,cs),
(-29,-173,o),
(19,-170,o),
(75,-157,cs),
(101,-151,o),
(142,-125,o),
(195,-79,cs),
(248,-33,o),
(281,4,o),
(291,33,c),
(290,40,o),
(286,50,o),
(282,62,c),
(254,26,o),
(220,17,o),
(181,35,cs),
(137,55,o),
(131,111,o),
(165,204,cs)
);
}
);
width = 400;
}
);
unicode = 1608;
}
{
glyphname = "alefMaksura-ar";
layers = (
{
anchors = (
{
name = AlefAbove;
pos = (293,171);
},
{
name = DigitAbove;
pos = (286,404);
},
{
name = DigitBelow;
pos = (355,-346);
},
{
name = DotAbove;
pos = (286,404);
},
{
name = DotBelow;
pos = (355,-346);
},
{
name = HamzaAbove;
pos = (188,404);
},
{
name = HamzaBelow;
pos = (545,-200);
},
{
name = RingBelow;
pos = (312,-146);
},
{
name = Tail;
pos = (171,236);
},
{
name = TashkilAbove;
pos = (391,801);
},
{
name = TashkilBelow;
pos = (342,-327);
},
{
name = TwoDotsAbove;
pos = (232,404);
},
{
name = TwoDotsBelow;
pos = (301,-346);
},
{
name = VAbove;
pos = (237,404);
}
);
layerId = "7FE84AD5-D318-40C5-A81A-3CDC73FF77D2";
shapes = (
{
closed = 1;
nodes = (
(428,-196,o),
(537,-155,o),
(633,-78,cs),
(669,-49,o),
(685,-8,o),
(678,44,cs),
(675,70,o),
(637,85,o),
(566,89,cs),
(495,93,o),
(452,111,o),
(438,143,cs),
(434,152,o),
(433,161,o),
(436,169,cs),
(451,212,o),
(479,246,o),
(519,269,cs),
(581,304,o),
(631,309,o),
(671,288,cs),
(683,281,o),
(692,287,o),
(697,305,cs),
(715,371,o),
(693,402,o),
(633,398,cs),
(608,396,o),
(577,383,o),
(542,357,cs),
(472,307,o),
(425,246,o),
(401,174,cs),
(389,137,o),
(389,104,o),
(399,75,cs),
(409,46,o),
(447,29,o),
(512,25,cs),
(577,21,o),
(614,14,o),
(625,5,cs),
(631,0,o),
(631,-4,o),
(624,-9,cs),
(546,-71,o),
(443,-104,o),
(316,-106,cs),
(212,-108,o),
(146,-72,o),
(116,4,cs),
(93,62,o),
(114,137,o),
(180,230,cs),
(184,236,o),
(185,241,o),
(181,248,cs),
(177,255,o),
(172,254,o),
(165,246,cs),
(141,216,o),
(120,183,o),
(102,145,cs),
(70,75,o),
(57,13,o),
(64,-39,cs),
(79,-153,o),
(160,-207,o),
(306,-201,cs)
);
}
);
width = 764;
},
{
anchors = (
{
name = AlefAbove;
pos = (293,171);
},
{
name = DigitAbove;
pos = (286,404);
},
{
name = DigitBelow;
pos = (355,-346);
},
{
name = DotAbove;
pos = (286,404);
},
{
name = DotBelow;
pos = (355,-346);
},
{
name = HamzaAbove;
pos = (188,404);
},
{
name = HamzaBelow;
pos = (545,-200);
},
{
name = RingBelow;
pos = (312,-146);
},
{
name = Tail;
pos = (171,236);
},
{
name = TashkilAbove;
pos = (391,801);
},
{
name = TashkilBelow;
pos = (342,-327);
},
{
name = TwoDotsAbove;
pos = (232,404);
},
{
name = TwoDotsBelow;
pos = (301,-346);
},
{
name = VAbove;
pos = (237,404);
}
);
layerId = "037FF2D3-C03F-44B0-90AB-89AFD43EFA27";
shapes = (
{
closed = 1;
nodes = (
(631,293,o),
(585,287,o),
(526,256,cs),
(478,231,o),
(450,201,o),
(440,165,cs),
(439,160,o),
(439,155,o),
(441,149,cs),
(453,123,o),
(496,108,o),
(568,104,cs),
(640,100,o),
(679,83,o),
(683,50,cs),
(692,-14,o),
(678,-60,o),
(642,-89,cs),
(543,-168,o),
(432,-210,o),
(307,-215,cs),
(152,-221,o),
(69,-164,o),
(59,-41,cs),
(54,21,o),
(68,85,o),
(100,151,cs),
(117,186,o),
(137,219,o),
(159,247,cs),
(170,261,o),
(178,263,o),
(185,256,cs),
(192,249,o),
(190,237,o),
(179,221,cs),
(120,134,o),
(103,64,o),
(124,9,cs),
(151,-60,o),
(215,-94,o),
(316,-92,cs),
(436,-90,o),
(534,-59,o),
(609,-2,c),
(593,4,o),
(561,8,o),
(511,11,cs),
(446,16,o),
(407,34,o),
(395,69,cs),
(383,104,o),
(384,140,o),
(397,178,cs),
(426,260,o),
(471,324,o),
(533,369,cs),
(585,407,o),
(631,420,o),
(670,410,cs),
(709,400,o),
(720,364,o),
(703,301,cs),
(696,275,o),
(683,266,o),
(665,275,c)
);
}
);
width = 764;
}
);
unicode = 1609;
}
{
glyphname = "fathatan-ar";
layers = (
{
anchors = (
{
name = TashkilTashkilAbove;
pos = (140,1060);
},
{
name = _MarkAbove;
pos = (258,801);
},
{
name = _TashkilAbove;
pos = (258,801);
},
{
name = _TashkilAboveDot;
pos = (258,801);
}
);
layerId = "7FE84AD5-D318-40C5-A81A-3CDC73FF77D2";
shapes = (
{
closed = 1;
nodes = (
(357,1027,o),
(366,1024,o),
(359,1004,cs),
(349,973,ls),
(346,963,o),
(340,955,o),
(332,950,cs),
(157,843,ls),
(143,835,o),
(138,837,o),
(140,852,cs),
(143,871,ls),
(145,880,o),
(150,888,o),
(159,895,cs),
(336,1012,ls)
);
},
{
closed = 1;
nodes = (
(352,1124,o),
(359,1122,o),
(354,1104,cs),
(347,1078,ls),
(344,1067,o),
(337,1058,o),
(326,1052,cs),
(149,949,ls),
(127,936,o),
(120,939,o),
(128,959,cs),
(137,978,ls),
(141,987,o),
(145,994,o),
(152,998,cs),
(333,1112,ls)
);
}
);
width = 361;
},
{
anchors = (
{
name = TashkilTashkilAbove;
pos = (140,1060);
},
{
name = _MarkAbove;
pos = (258,801);
},
{
name = _TashkilAbove;
pos = (258,801);
},
{
name = _TashkilAboveDot;
pos = (258,801);
}
);
layerId = "037FF2D3-C03F-44B0-90AB-89AFD43EFA27";
shapes = (
{
closed = 1;
nodes = (
(345,1026,o),
(355,1029,o),
(362,1027,cs),
(369,1025,o),
(371,1016,o),
(366,1001,cs),
(355,970,ls),
(351,958,o),
(345,950,o),
(336,944,cs),
(161,836,ls),
(154,832,o),
(147,831,o),
(140,832,cs),
(133,833,o),
(130,840,o),
(132,853,cs),
(135,872,l),
(137,883,o),
(144,893,o),
(155,900,c),
(333,1018,ls)
);
},
{
closed = 1;
nodes = (
(340,1125,o),
(348,1127,o),
(355,1125,cs),
(362,1123,o),
(364,1116,o),
(361,1102,cs),
(354,1076,ls),
(350,1063,o),
(342,1053,o),
(330,1046,cs),
(153,943,ls),
(140,936,o),
(130,933,o),
(123,936,cs),
(116,939,o),
(115,948,o),
(121,962,c),
(130,981,ls),
(135,992,o),
(140,999,o),
(148,1004,cs),
(329,1118,ls)
);
}
);
width = 0;
}
);
unicode = 1611;
}
{
glyphname = "dammatan-ar";
layers = (
{
anchors = (
{
name = TashkilTashkilAbove;
pos = (91,1060);
},
{
name = _MarkAbove;
pos = (249,801);
},
{
name = _TashkilAbove;
pos = (249,801);
},
{
name = _TashkilAboveDot;
pos = (249,801);
}
);
layerId = "7FE84AD5-D318-40C5-A81A-3CDC73FF77D2";
shapes = (
{
closed = 1;
nodes = (
(219,866,o),
(263,901,o),
(292,955,c),
(296,951,o),
(305,945,o),
(316,938,cs),
(330,929,o),
(338,931,o),
(340,941,cs),
(347,974,ls),
(348,977,o),
(345,980,o),
(340,983,cs),
(335,986,o),
(327,991,o),
(316,998,c),
(321,1012,o),
(323,1027,o),
(324,1041,cs),
(325,1055,o),
(322,1070,o),
(318,1084,cs),
(314,1098,o),
(307,1105,o),
(298,1106,cs),
(286,1107,o),
(274,1103,o),
(263,1092,cs),
(252,1081,o),
(244,1066,o),
(238,1049,cs),
(232,1032,o),
(231,1018,o),
(234,1008,cs),
(237,998,o),
(250,985,o),
(273,968,c),
(249,923,o),
(209,892,o),
(154,876,cs),
(138,871,o),
(131,864,o),
(133,855,cs),
(135,846,o),
(143,843,o),
(158,848,cs)
);
},
{
closed = 1;
nodes = (
(283,1018,o),
(272,1024,o),
(261,1033,cs),
(254,1039,o),
(253,1044,o),
(259,1047,cs),
(272,1054,o),
(282,1053,o),
(289,1045,cs),
(292,1041,o),
(293,1036,o),
(294,1028,cs),
(295,1018,o),
(295,1013,o),
(292,1014,cs)
);
},
{
closed = 1;
nodes = (
(197,959,o),
(204,963,o),
(208,974,cs),
(216,1000,ls),
(219,1009,o),
(218,1013,o),
(213,1012,cs),
(205,1011,o),
(197,1013,o),
(190,1020,cs),
(183,1027,o),
(180,1036,o),
(181,1048,cs),
(182,1060,o),
(189,1075,o),
(201,1094,cs),
(211,1110,o),
(227,1127,o),
(250,1143,cs),
(276,1162,o),
(298,1163,o),
(316,1145,cs),
(326,1135,o),
(335,1136,o),
(342,1147,cs),
(350,1160,o),
(354,1174,o),
(353,1187,cs),
(352,1200,o),
(346,1208,o),
(337,1213,cs),
(311,1226,o),
(268,1199,o),
(207,1132,cs),
(180,1103,o),
(163,1073,o),
(156,1042,cs),
(152,1025,o),
(153,1008,o),
(159,992,cs),
(165,976,o),
(174,966,o),
(185,962,cs)
);
}
);
width = 353;
},
{
anchors = (
{
name = TashkilTashkilAbove;
pos = (91,1060);
},
{
name = _MarkAbove;
pos = (249,801);
},
{
name = _TashkilAbove;
pos = (249,801);
},
{
name = _TashkilAboveDot;
pos = (249,801);
}
);
layerId = "037FF2D3-C03F-44B0-90AB-89AFD43EFA27";
shapes = (
{
closed = 1;
nodes = (
(243,982,o),
(230,996,o),
(227,1007,cs),
(224,1018,o),
(225,1032,o),
(231,1051,cs),
(237,1070,o),
(247,1085,o),
(259,1097,cs),
(271,1109,o),
(283,1115,o),
(297,1113,cs),
(311,1111,o),
(320,1103,o),
(325,1087,cs),
(333,1060,o),
(333,1031,o),
(325,1001,c),
(334,996,o),
(341,992,o),
(347,988,cs),
(353,984,o),
(355,978,o),
(354,972,c),
(348,939,l),
(344,922,o),
(332,920,o),
(312,932,cs),
(305,937,o),
(299,941,o),
(295,944,c),
(265,893,o),
(220,858,o),
(160,841,cs),
(140,835,o),
(128,840,o),
(125,854,c),
(123,867,o),
(132,877,o),
(152,883,cs),
(203,898,o),
(240,926,o),
(264,966,c)
);
},
{
closed = 1;
nodes = (
(287,1031,o),
(285,1037,o),
(281,1041,cs),
(277,1045,o),
(271,1045,o),
(263,1041,c),
(269,1035,o),
(277,1030,o),
(287,1024,c)
);
},
{
closed = 1;
nodes = (
(219,1022,o),
(225,1017,o),
(225,1007,cs),
(225,1004,o),
(224,1001,o),
(223,998,cs),
(215,972,ls),
(210,957,o),
(199,951,o),
(183,956,c),
(169,961,o),
(160,972,o),
(153,990,cs),
(146,1008,o),
(145,1029,o),
(151,1054,cs),
(157,1079,o),
(174,1107,o),
(201,1137,cs),
(264,1206,o),
(311,1233,o),
(341,1219,c),
(353,1213,o),
(359,1203,o),
(360,1188,cs),
(361,1167,o),
(356,1151,o),
(346,1140,cs),
(335,1128,o),
(323,1128,o),
(309,1141,cs),
(295,1154,o),
(277,1153,o),
(255,1137,cs),
(233,1121,o),
(217,1105,o),
(206,1088,cs),
(195,1071,o),
(189,1058,o),
(188,1048,cs),
(187,1038,o),
(190,1031,o),
(195,1026,cs),
(200,1021,o),
(205,1019,o),
(211,1020,cs)
);
}
);
width = 360;
}
);
unicode = 1612;
}
{
glyphname = "fatha-ar";
layers = (
{
anchors = (
{
name = TashkilTashkilAbove;
pos = (145,955);
},
{
name = _MarkAbove;
pos = (268,801);
},
{
name = _TashkilAbove;
pos = (271,801);
},
{
name = _TashkilAboveDot;
pos = (271,801);
}
);
layerId = "7FE84AD5-D318-40C5-A81A-3CDC73FF77D2";
shapes = (
{
closed = 1;
nodes = (
(371,1031,o),
(377,1028,o),
(372,1011,cs),
(362,979,ls),
(360,971,o),
(352,962,o),
(340,955,cs),
(146,843,ls),
(134,836,o),
(128,839,o),
(128,852,cs),
(128,869,ls),
(128,876,o),
(135,883,o),
(146,892,cs),
(354,1021,ls)
);
}
);
width = 0;
},
{
anchors = (
{
name = TashkilTashkilAbove;
pos = (145,955);
},
{
name = _MarkAbove;
pos = (268,801);
},
{
name = _TashkilAbove;
pos = (271,801);
},
{
name = _TashkilAboveDot;
pos = (271,801);
}
);
layerId = "037FF2D3-C03F-44B0-90AB-89AFD43EFA27";
shapes = (
{
closed = 1;
nodes = (
(359,1034,o),
(367,1035,o),
(374,1033,cs),
(381,1031,o),
(382,1023,o),
(378,1009,cs),
(369,977,ls),
(366,967,o),
(357,957,o),
(344,949,c),
(149,836,ls),
(144,833,o),
(140,832,o),
(136,832,c),
(127,833,o),
(122,840,o),
(121,852,c),
(121,869,l),
(122,879,o),
(129,889,o),
(142,898,c),
(350,1028,ls)
);
}
);
width = 0;
}
);
unicode = 1614;
}
{
glyphname = "damma-ar";
layers = (
{
anchors = (
{
name = TashkilTashkilAbove;
pos = (195,1074);
},
{
name = _MarkAbove;
pos = (278,801);
},
{
name = _TashkilAbove;
pos = (278,801);
},
{
name = _TashkilAboveDot;
pos = (278,801);
}
);
layerId = "7FE84AD5-D318-40C5-A81A-3CDC73FF77D2";
shapes = (
{
closed = 1;
nodes = (
(217,872,o),
(269,917,o),
(315,978,c),
(327,971,o),
(336,967,o),
(342,965,cs),
(348,963,o),
(353,965,o),
(357,972,cs),
(368,993,ls),
(373,1003,o),
(371,1009,o),
(362,1013,cs),
(357,1015,o),
(350,1020,o),
(339,1026,c),
(356,1070,o),
(356,1104,o),
(339,1130,cs),
(331,1142,o),
(322,1148,o),
(311,1146,cs),
(279,1141,o),
(253,1116,o),
(234,1070,cs),
(227,1053,o),
(231,1036,o),
(247,1021,cs),
(256,1012,o),
(270,1003,o),
(289,993,c),
(254,948,o),
(206,907,o),
(146,872,cs),
(131,864,o),
(127,855,o),
(132,845,cs),
(137,837,o),
(145,836,o),
(158,843,cs)
);
},
{
closed = 1;
nodes = (
(290,1049,o),
(275,1058,o),
(269,1064,cs),
(263,1070,o),
(261,1075,o),
(264,1079,cs),
(273,1094,o),
(285,1096,o),
(300,1082,cs),
(310,1074,o),
(314,1059,o),
(311,1039,c)
);
}
);
width = 371;
},
{
anchors = (
{
name = TashkilTashkilAbove;
pos = (195,1074);
},
{
name = _MarkAbove;
pos = (278,801);
},
{
name = _TashkilAbove;
pos = (278,801);
},
{
name = _TashkilAboveDot;
pos = (278,801);
}
);
layerId = "037FF2D3-C03F-44B0-90AB-89AFD43EFA27";
shapes = (
{
closed = 1;
nodes = (
(325,1156,o),
(337,1149,o),
(346,1134,cs),
(363,1107,o),
(364,1072,o),
(348,1029,c),
(356,1025,o),
(361,1022,o),
(365,1020,cs),
(379,1014,o),
(382,1005,o),
(375,990,cs),
(363,968,ls),
(357,957,o),
(351,954,o),
(343,957,cs),
(335,960,o),
(326,964,o),
(317,969,c),
(271,910,o),
(220,865,o),
(162,836,cs),
(145,828,o),
(132,830,o),
(125,843,cs),
(118,856,o),
(124,868,o),
(143,878,cs),
(199,911,o),
(244,948,o),
(278,990,c),
(232,1016,o),
(215,1044,o),
(227,1073,cs),
(248,1122,o),
(275,1148,o),
(310,1154,c)
);
},
{
closed = 1;
nodes = (
(304,1062,o),
(302,1070,o),
(298,1074,cs),
(294,1078,o),
(289,1080,o),
(285,1083,cs),
(280,1086,o),
(276,1083,o),
(271,1075,c),
(274,1068,o),
(284,1060,o),
(304,1050,c)
);
}
);
width = 379;
}
);
unicode = 1615;
}
{
glyphname = "shadda-ar";
layers = (
{
anchors = (
{
name = TashkilTashkilAbove;
pos = (200,1003);
},
{
name = TashkilTashkilBelow;
pos = (198,801);
},
{
name = _MarkAbove;
pos = (208,801);
},
{
name = _TashkilAbove;
pos = (208,801);
},
{
name = _TashkilAboveDot;
pos = (208,801);
}
);
layerId = "7FE84AD5-D318-40C5-A81A-3CDC73FF77D2";
shapes = (
{
closed = 1;
nodes = (
(301,998,o),
(306,1005,o),
(314,1004,cs),
(324,1003,o),
(329,996,o),
(328,983,cs),
(326,947,o),
(319,918,o),
(308,894,cs),
(295,866,o),
(276,850,o),
(252,848,cs),
(236,847,o),
(222,855,o),
(208,872,c),
(199,855,o),
(185,843,o),
(170,835,cs),
(153,826,o),
(137,825,o),
(121,832,cs),
(82,848,o),
(78,894,o),
(108,972,cs),
(113,984,o),
(120,988,o),
(129,984,cs),
(136,981,o),
(139,974,o),
(136,962,cs),
(125,923,o),
(129,902,o),
(150,899,cs),
(175,896,o),
(195,923,o),
(210,980,cs),
(213,991,o),
(219,996,o),
(226,994,cs),
(234,992,o),
(238,987,o),
(236,979,cs),
(230,945,o),
(238,928,o),
(260,928,cs),
(282,928,o),
(295,946,o),
(299,983,cs)
);
}
);
width = 328;
},
{
anchors = (
{
name = TashkilTashkilAbove;
pos = (200,1003);
},
{
name = TashkilTashkilBelow;
pos = (198,801);
},
{
name = _MarkAbove;
pos = (208,801);
},
{
name = _TashkilAbove;
pos = (208,801);
},
{
name = _TashkilAboveDot;
pos = (208,801);
}
);
layerId = "037FF2D3-C03F-44B0-90AB-89AFD43EFA27";
shapes = (
{
closed = 1;
nodes = (
(296,1002,o),
(302,1011,o),
(314,1010,cs),
(326,1009,o),
(333,1002,o),
(334,988,cs),
(334,986,o),
(333,985,o),
(333,983,cs),
(331,947,o),
(324,916,o),
(313,891,cs),
(299,861,o),
(278,844,o),
(252,842,c),
(236,841,o),
(222,848,o),
(208,862,c),
(198,848,o),
(187,837,o),
(173,830,c),
(154,821,o),
(137,819,o),
(119,826,c),
(77,844,o),
(71,893,o),
(102,975,cs),
(108,990,o),
(117,995,o),
(129,991,cs),
(130,991,o),
(131,990,o),
(132,990,cs),
(142,985,o),
(146,975,o),
(142,960,cs),
(140,953,o),
(138,946,o),
(137,940,cs),
(134,919,o),
(139,907,o),
(151,905,c),
(168,903,o),
(183,918,o),
(195,952,cs),
(198,961,o),
(201,970,o),
(204,981,cs),
(208,995,o),
(215,1001,o),
(226,1000,cs),
(227,1000,o),
(227,1000,o),
(227,1000,cs),
(238,997,o),
(243,991,o),
(242,982,cs),
(242,981,o),
(242,979,o),
(242,978,c),
(242,979,ls),
(241,973,o),
(240,967,o),
(240,962,cs),
(240,945,o),
(245,936,o),
(256,934,cs),
(257,934,o),
(259,934,o),
(260,934,cs),
(276,934,o),
(286,946,o),
(291,972,cs),
(292,976,o),
(293,980,o),
(293,984,cs)
);
}
);
width = 0;
}
);
unicode = 1617;
}
{
glyphname = "sukun-ar";
layers = (
{
anchors = (
{
name = _MarkAbove;
pos = (180,801);
},
{
name = _TashkilAbove;
pos = (182,801);
},
{
name = _TashkilAboveDot;
pos = (182,801);
},
{
name = _TashkilTashkilAbove;
pos = (112,791);
}
);
layerId = "7FE84AD5-D318-40C5-A81A-3CDC73FF77D2";
shapes = (
{
closed = 1;
nodes = (
(192,837,o),
(213,842,o),
(231,854,cs),
(255,871,o),
(266,898,o),
(264,934,cs),
(262,964,o),
(247,988,o),
(220,1009,cs),
(178,1041,o),
(144,1033,o),
(117,984,cs),
(110,970,o),
(104,956,o),
(101,939,cs),
(91,876,o),
(112,843,o),
(166,839,cs)
);
},
{
closed = 1;
nodes = (
(135,913,o),
(130,923,o),
(130,937,cs),
(131,959,o),
(144,970,o),
(169,969,cs),
(190,969,o),
(208,961,o),
(222,947,cs),
(242,927,o),
(242,914,o),
(223,909,cs),
(195,901,o),
(169,901,o),
(146,909,cs)
);
}
);
width = 264;
},
{
anchors = (
{
name = _MarkAbove;
pos = (180,801);
},
{
name = _TashkilAbove;
pos = (182,801);
},
{
name = _TashkilAboveDot;
pos = (182,801);
},
{
name = _TashkilTashkilAbove;
pos = (112,791);
}
);
layerId = "037FF2D3-C03F-44B0-90AB-89AFD43EFA27";
shapes = (
{
closed = 1;
nodes = (
(242,914,o),
(242,927,o),
(222,947,cs),
(208,961,o),
(190,969,o),
(169,969,cs),
(144,970,o),
(131,959,o),
(130,937,cs),
(130,923,o),
(135,913,o),
(146,909,cs),
(169,901,o),
(195,901,o),
(223,909,cs)
);
},
{
closed = 1;
nodes = (
(115,994,o),
(119,1001,o),
(123,1006,cs),
(148,1040,o),
(179,1044,o),
(216,1020,cs),
(219,1018,o),
(222,1016,o),
(224,1014,cs),
(253,992,o),
(268,965,o),
(270,934,c),
(272,896,o),
(259,867,o),
(234,849,c),
(215,836,o),
(193,831,o),
(166,833,cs),
(162,833,o),
(157,834,o),
(153,834,cs),
(108,841,o),
(88,871,o),
(93,924,cs),
(93,929,o),
(94,934,o),
(95,940,cs),
(98,958,o),
(103,973,o),
(111,987,cs)
);
}
);
width = 264;
}
);
unicode = 1618;
}
{
glyphname = "madda-ar";
layers = (
{
anchors = (
{
name = _MarkAbove;
pos = (0,767);
},
{
name = _TashkilAbove;
pos = (0,801);
}
);
layerId = "7FE84AD5-D318-40C5-A81A-3CDC73FF77D2";
shapes = (
{
closed = 1;
nodes = (
(-166,775,o),
(-162,776,o),
(-156,783,cs),
(-150,790,o),
(-144,800,o),
(-138,813,c),
(23,808,o),
(139,829,o),
(211,876,cs),
(220,882,o),
(224,891,o),
(220,901,cs),
(216,911,o),
(208,915,o),
(196,912,cs),
(79,883,o),
(-40,878,o),
(-158,897,cs),
(-171,899,o),
(-180,897,o),
(-186,891,cs),
(-216,856,o),
(-226,835,o),
(-217,827,c),
(-170,779,ls)
);
}
);
width = 222;
},
{
anchors = (
{
name = _MarkAbove;
pos = (0,767);
},
{
name = _TashkilAbove;
pos = (0,801);
}
);
layerId = "037FF2D3-C03F-44B0-90AB-89AFD43EFA27";
shapes = (
{
closed = 1;
nodes = (
(210,926,o),
(222,921,o),
(227,907,cs),
(233,892,o),
(229,881,o),
(217,873,cs),
(139,821,o),
(24,800,o),
(-128,808,c),
(-140,779,o),
(-152,764,o),
(-164,763,cs),
(-171,763,o),
(-176,764,o),
(-181,769,cs),
(-224,816,ls),
(-235,828,o),
(-236,840,o),
(-229,852,cs),
(-200,896,ls),
(-193,907,o),
(-178,911,o),
(-155,907,cs),
(-35,886,o),
(81,890,o),
(192,921,cs)
);
}
);
width = 230;
}
);
unicode = 1619;
}
{
glyphname = "hamzaabove-ar";
layers = (
{
anchors = (
{
name = TashkilTashkilAbove;
pos = (-24,718);
},
{
name = _HamzaAbove;
pos = (0,464);
},
{
name = _MarkAbove;
pos = (0,405);
},
{
name = _TashkilAbove;
pos = (0,464);
}
);
layerId = "7FE84AD5-D318-40C5-A81A-3CDC73FF77D2";
shapes = (
{
closed = 1;
nodes = (
(-46,446,o),
(-18,458,o),
(-3,463,cs),
(12,468,o),
(38,473,o),
(74,480,cs),
(85,482,o),
(96,497,o),
(109,524,cs),
(111,528,o),
(110,531,o),
(108,535,cs),
(106,539,o),
(101,542,o),
(96,542,cs),
(91,542,o),
(81,540,o),
(67,537,cs),
(53,534,o),
(44,532,o),
(37,532,cs),
(-6,533,o),
(-39,544,o),
(-61,565,cs),
(-70,573,o),
(-69,582,o),
(-62,591,cs),
(-55,600,o),
(-44,604,o),
(-31,603,cs),
(-18,602,o),
(-8,595,o),
(-1,584,cs),
(6,573,o),
(13,575,o),
(23,589,cs),
(33,603,o),
(39,620,o),
(41,641,cs),
(43,662,o),
(34,673,o),
(14,675,cs),
(-18,678,o),
(-47,660,o),
(-75,622,c),
(-103,584,o),
(-114,550,o),
(-109,523,cs),
(-106,507,o),
(-92,493,o),
(-67,481,c),
(-101,460,o),
(-114,444,o),
(-106,432,cs),
(-102,426,o),
(-96,424,o),
(-87,428,cs)
);
}
);
width = 110;
},
{
anchors = (
{
name = TashkilTashkilAbove;
pos = (-24,718);
},
{
name = _HamzaAbove;
pos = (0,464);
},
{
name = _MarkAbove;
pos = (0,405);
},
{
name = _TashkilAbove;
pos = (0,464);
}
);
layerId = "037FF2D3-C03F-44B0-90AB-89AFD43EFA27";
shapes = (
{
closed = 1;
nodes = (
(39,466,o),
(14,460,o),
(-1,455,cs),
(-16,450,o),
(-43,439,o),
(-84,421,c),
(-96,416,o),
(-106,419,o),
(-112,428,c),
(-121,443,o),
(-112,460,o),
(-82,481,c),
(-102,493,o),
(-113,507,o),
(-116,522,c),
(-121,551,o),
(-109,586,o),
(-80,626,cs),
(-51,666,o),
(-19,685,o),
(15,682,cs),
(40,680,o),
(51,667,o),
(49,643,cs),
(47,619,o),
(41,602,o),
(34,592,cs),
(27,582,o),
(22,575,o),
(19,573,cs),
(9,566,o),
(1,568,o),
(-6,578,cs),
(-13,588,o),
(-21,594,o),
(-32,595,cs),
(-43,596,o),
(-51,593,o),
(-56,587,cs),
(-61,581,o),
(-61,576,o),
(-56,571,cs),
(-35,551,o),
(-3,541,o),
(37,540,cs),
(44,540,o),
(53,541,o),
(67,544,cs),
(81,547,o),
(90,549,o),
(97,549,cs),
(104,549,o),
(110,545,o),
(114,539,c),
(118,532,o),
(118,527,o),
(116,521,c),
(102,492,o),
(88,476,o),
(75,473,cs)
);
}
);
width = 117;
}
);
unicode = 1620;
}
{
glyphname = "noonghunnaabove-ar";
layers = (
{
anchors = (
{
name = _MarkAbove;
pos = (180,801);
},
{
name = _TashkilAbove;
pos = (182,801);
},
{
name = _TashkilAboveDot;
pos = (182,801);
}
);
layerId = "7FE84AD5-D318-40C5-A81A-3CDC73FF77D2";
shapes = (
{
closed = 1;
nodes = (
(221,843,o),
(249,873,o),
(267,931,cs),
(270,942,o),
(270,947,o),
(266,949,cs),
(262,951,o),
(257,947,o),
(250,937,cs),
(240,923,o),
(229,915,o),
(216,917,cs),
(176,922,o),
(159,952,o),
(166,1006,cs),
(167,1014,o),
(165,1020,o),
(161,1020,cs),
(157,1020,o),
(152,1016,o),
(147,1009,cs),
(123,973,o),
(113,938,o),
(115,904,cs),
(118,863,o),
(141,843,o),
(183,843,cs)
);
}
);
width = 269;
},
{
anchors = (
{
name = _MarkAbove;
pos = (180,801);
},
{
name = _TashkilAbove;
pos = (182,801);
},
{
name = _TashkilAboveDot;
pos = (182,801);
}
);
layerId = "037FF2D3-C03F-44B0-90AB-89AFD43EFA27";
shapes = (
{
closed = 1;
nodes = (
(148,1022,o),
(155,1027,o),
(162,1027,c),
(171,1026,o),
(175,1018,o),
(173,1005,cs),
(167,956,o),
(182,930,o),
(217,925,c),
(227,924,o),
(236,929,o),
(244,941,cs),
(253,954,o),
(262,960,o),
(270,956,c),
(277,952,o),
(278,943,o),
(274,929,c),
(255,868,o),
(224,837,o),
(183,836,c),
(137,836,o),
(112,858,o),
(108,904,c),
(106,940,o),
(117,976,o),
(141,1013,cs)
);
}
);
width = 269;
}
);
unicode = 1624;
}
{
glyphname = "fathaHorizont-ar";
layers = (
{
anchors = (
{
name = _MarkAbove;
pos = (268,801);
},
{
name = _TashkilAbove;
pos = (271,801);
},
{
name = _TashkilAboveDot;
pos = (271,801);
}
);
layerId = "7FE84AD5-D318-40C5-A81A-3CDC73FF77D2";
shapes = (
{
closed = 1;
nodes = (
(112,845,o),
(108,851,o),
(121,863,cs),
(146,886,ls),
(153,892,o),
(163,896,o),
(177,896,cs),
(411,896,ls),
(431,896,o),
(435,889,o),
(422,877,cs),
(396,854,ls),
(389,848,o),
(380,845,o),
(366,845,cs),
(132,845,ls)
);
}
);
width = 430;
},
{
anchors = (
{
name = _MarkAbove;
pos = (268,801);
},
{
name = _TashkilAbove;
pos = (271,801);
},
{
name = _TashkilAboveDot;
pos = (271,801);
}
);
layerId = "037FF2D3-C03F-44B0-90AB-89AFD43EFA27";
shapes = (
{
closed = 1;
nodes = (
(121,837,o),
(113,840,o),
(108,845,cs),
(103,850,o),
(106,858,o),
(116,868,cs),
(142,892,l),
(150,899,o),
(162,903,o),
(177,903,c),
(411,903,ls),
(422,903,o),
(430,900,o),
(435,895,cs),
(440,890,o),
(437,882,o),
(427,872,cs),
(401,849,l),
(393,842,o),
(381,837,o),
(366,837,c),
(132,837,ls)
);
}
);
width = 437;
}
);
unicode = 1625;
}
{
glyphname = "vabove-ar";
layers = (
{
anchors = (
{
name = TashkilTashkilAbove;
pos = (0,732);
},
{
name = _MarkAbove;
pos = (0,410);
},
{
name = _MarkDotAbove;
pos = (0,464);
},
{
name = _TashkilAbove;
pos = (0,464);
},
{
name = _VAbove;
pos = (0,464);
}
);
layerId = "7FE84AD5-D318-40C5-A81A-3CDC73FF77D2";
shapes = (
{
closed = 1;
nodes = (
(88,611,ls),
(90,607,o),
(91,605,o),
(91,602,cs),
(91,599,o),
(90,595,o),
(88,592,cs),
(55,538,o),
(33,491,o),
(22,452,cs),
(13,445,ls),
(12,444,o),
(10,444,o),
(8,444,cs),
(5,444,o),
(3,446,o),
(0,449,cs),
(-38,496,o),
(-68,546,o),
(-89,599,cs),
(-91,604,o),
(-92,608,o),
(-92,611,cs),
(-92,617,o),
(-89,621,o),
(-83,623,cs),
(-75,626,o),
(-68,621,o),
(-64,610,cs),
(-55,586,o),
(-37,552,o),
(-12,509,c),
(2,558,o),
(22,601,o),
(51,636,cs),
(55,641,o),
(59,643,o),
(62,643,cs),
(65,643,o),
(67,641,o),
(69,638,cs)
);
}
);
width = 0;
},
{
anchors = (
{
name = TashkilTashkilAbove;
pos = (0,732);
},
{
name = _MarkAbove;
pos = (0,410);
},
{
name = _MarkDotAbove;
pos = (0,464);
},
{
name = _TashkilAbove;
pos = (0,464);
},
{
name = _VAbove;
pos = (0,464);
}
);
layerId = "037FF2D3-C03F-44B0-90AB-89AFD43EFA27";
shapes = (
{
closed = 1;
nodes = (
(94,615,l),
(100,605,o),
(100,596,o),
(94,588,c),
(62,535,o),
(40,489,o),
(29,450,cs),
(28,448,o),
(27,447,o),
(26,446,cs),
(17,439,l),
(9,434,o),
(2,436,o),
(-5,444,cs),
(-43,492,o),
(-74,542,o),
(-96,596,cs),
(-103,613,o),
(-99,625,o),
(-86,629,cs),
(-73,633,o),
(-63,627,o),
(-57,612,c),
(-49,591,o),
(-35,562,o),
(-15,527,c),
(-1,571,o),
(20,609,o),
(46,641,cs),
(52,647,o),
(57,650,o),
(62,650,cs),
(67,650,o),
(72,647,o),
(75,642,cs)
);
}
);
width = 0;
}
);
unicode = 1626;
}
{
glyphname = "vinvertedabove-ar";
layers = (
{
anchors = (
{
name = TashkilTashkilAbove;
pos = (0,732);
},
{
name = _MarkAbove;
pos = (0,410);
},
{
name = _TashkilAbove;
pos = (0,464);
},
{
name = _TashkilAboveDot;
pos = (0,464);
},
{
name = _VAbove;
pos = (0,464);
}
);
layerId = "7FE84AD5-D318-40C5-A81A-3CDC73FF77D2";
shapes = (
{
closed = 1;
nodes = (
(75,455,o),
(73,453,o),
(70,453,cs),
(67,452,o),
(63,454,o),
(59,458,cs),
(27,490,o),
(1,529,o),
(-18,577,c),
(-39,532,o),
(-51,497,o),
(-58,472,cs),
(-61,461,o),
(-67,455,o),
(-75,457,cs),
(-82,458,o),
(-85,462,o),
(-86,468,cs),
(-86,471,o),
(-85,474,o),
(-84,479,cs),
(-68,534,o),
(-44,588,o),
(-11,639,cs),
(-9,643,o),
(-7,645,o),
(-4,645,cs),
(-2,645,o),
(-1,645,o),
(0,644,cs),
(10,638,ls),
(26,600,o),
(53,555,o),
(91,505,cs),
(94,502,o),
(95,500,o),
(95,497,cs),
(95,494,o),
(95,491,o),
(93,487,cs),
(77,458,ls)
);
}
);
width = 95;
},
{
anchors = (
{
name = TashkilTashkilAbove;
pos = (0,732);
},
{
name = _MarkAbove;
pos = (0,410);
},
{
name = _TashkilAbove;
pos = (0,464);
},
{
name = _TashkilAboveDot;
pos = (0,464);
},
{
name = _VAbove;
pos = (0,464);
}
);
layerId = "037FF2D3-C03F-44B0-90AB-89AFD43EFA27";
shapes = (
{
closed = 1;
nodes = (
(-55,456,o),
(-62,450,o),
(-74,450,cs),
(-86,450,o),
(-92,456,o),
(-93,468,cs),
(-93,472,o),
(-93,476,o),
(-91,481,cs),
(-75,537,o),
(-51,592,o),
(-18,643,c),
(-11,652,o),
(-4,654,o),
(4,649,cs),
(12,644,o),
(16,642,o),
(17,641,cs),
(33,603,o),
(59,559,o),
(96,510,c),
(103,502,o),
(104,493,o),
(99,483,c),
(83,454,ls),
(80,449,o),
(77,446,o),
(71,445,cs),
(65,444,o),
(60,447,o),
(54,453,cs),
(25,482,o),
(1,517,o),
(-18,559,c),
(-34,522,o),
(-45,492,o),
(-51,470,cs)
);
}
);
width = 102;
}
);
unicode = 1627;
}
{
glyphname = "dammareversed-ar";
layers = (
{
anchors = (
{
name = _MarkAbove;
pos = (278,801);
},
{
name = _TashkilAbove;
pos = (278,801);
},
{
name = _TashkilAboveDot;
pos = (278,801);
}
);
layerId = "7FE84AD5-D318-40C5-A81A-3CDC73FF77D2";
shapes = (
{
closed = 1;
nodes = (
(354,836,o),
(363,837,o),
(368,845,cs),
(373,855,o),
(369,864,o),
(354,872,cs),
(294,907,o),
(245,948,o),
(210,993,c),
(229,1003,o),
(243,1012,o),
(252,1021,cs),
(268,1036,o),
(273,1053,o),
(266,1070,cs),
(247,1116,o),
(221,1141,o),
(189,1146,cs),
(178,1148,o),
(168,1142,o),
(160,1130,cs),
(143,1104,o),
(144,1070,o),
(161,1026,c),
(150,1020,o),
(142,1015,o),
(137,1013,cs),
(128,1009,o),
(126,1003,o),
(131,993,cs),
(143,972,ls),
(147,965,o),
(151,963,o),
(157,965,cs),
(163,967,o),
(173,971,o),
(185,978,c),
(231,917,o),
(282,872,o),
(341,843,cs)
);
},
{
closed = 1;
nodes = (
(186,1059,o),
(189,1074,o),
(199,1082,cs),
(214,1096,o),
(226,1094,o),
(235,1079,cs),
(238,1075,o),
(236,1070,o),
(230,1064,cs),
(224,1058,o),
(210,1049,o),
(189,1039,c)
);
}
);
width = 370;
},
{
anchors = (
{
name = _MarkAbove;
pos = (278,801);
},
{
name = _TashkilAbove;
pos = (278,801);
},
{
name = _TashkilAboveDot;
pos = (278,801);
}
);
layerId = "037FF2D3-C03F-44B0-90AB-89AFD43EFA27";
shapes = (
{
closed = 1;
nodes = (
(225,1148,o),
(252,1121,o),
(272,1073,cs),
(284,1044,o),
(268,1016,o),
(222,990,c),
(257,948,o),
(301,911,o),
(357,878,c),
(376,868,o),
(382,856,o),
(375,843,cs),
(368,830,o),
(355,827,o),
(338,836,cs),
(280,865,o),
(229,910,o),
(183,969,c),
(174,964,o),
(165,960,o),
(157,957,cs),
(149,954,o),
(142,957,o),
(136,968,cs),
(125,990,ls),
(118,1004,o),
(120,1014,o),
(134,1020,cs),
(138,1022,o),
(145,1025,o),
(152,1029,c),
(137,1073,o),
(137,1108,o),
(154,1134,cs),
(164,1149,o),
(176,1156,o),
(190,1154,c)
);
},
{
closed = 1;
nodes = (
(215,1060,o),
(227,1069,o),
(229,1075,c),
(223,1085,o),
(216,1087,o),
(208,1079,cs),
(200,1071,o),
(195,1061,o),
(195,1050,c)
);
}
);
width = 370;
}
);
unicode = 1629;
}
{
glyphname = "fathatwodots-ar";
layers = (
{
anchors = (
{
name = _MarkAbove;
pos = (268,801);
},
{
name = _TashkilAbove;
pos = (271,801);
},
{
name = _TashkilAboveDot;
pos = (271,801);
}
);
layerId = "7FE84AD5-D318-40C5-A81A-3CDC73FF77D2";
shapes = (
{
closed = 1;
nodes = (
(153,1018,o),
(154,1018,o),
(155,1018,cs),
(164,1018,o),
(176,1011,o),
(192,997,cs),
(193,996,o),
(194,994,o),
(193,992,cs),
(169,955,ls),
(168,953,o),
(167,953,o),
(165,955,cs),
(163,957,o),
(156,961,o),
(145,968,cs),
(134,975,o),
(128,978,o),
(128,979,cs),
(128,980,o),
(128,980,o),
(128,980,cs),
(153,1017,ls)
);
},
{
closed = 1;
nodes = (
(332,913,o),
(332,913,o),
(333,913,cs),
(334,913,o),
(338,912,o),
(346,909,cs),
(354,906,o),
(359,902,o),
(364,897,cs),
(369,891,o),
(372,888,o),
(371,887,cs),
(347,850,ls),
(347,849,o),
(347,849,o),
(346,849,cs),
(345,849,o),
(342,851,o),
(335,856,cs),
(328,861,o),
(322,865,o),
(315,868,cs),
(308,871,o),
(306,873,o),
(306,874,cs),
(306,875,o),
(306,875,o),
(306,875,cs),
(331,912,ls)
);
},
{
ref = "fatha-ar";
}
);
width = 0;
},
{
anchors = (
{
name = _MarkAbove;
pos = (268,801);
},
{
name = _TashkilAbove;
pos = (271,801);
},
{
name = _TashkilAboveDot;
pos = (271,801);
}
);
layerId = "037FF2D3-C03F-44B0-90AB-89AFD43EFA27";
shapes = (
{
closed = 1;
nodes = (
(148,1023,o),
(154,1025,o),
(161,1025,cs),
(168,1025,o),
(180,1017,o),
(197,1002,c),
(201,997,o),
(202,993,o),
(200,988,c),
(176,951,l),
(172,946,o),
(168,945,o),
(163,948,cs),
(152,955,o),
(143,961,o),
(134,965,c),
(126,970,o),
(122,975,o),
(121,979,c),
(122,983,l),
(146,1020,ls)
);
},
{
closed = 1;
nodes = (
(327,919,o),
(329,920,o),
(332,920,cs),
(335,920,o),
(340,919,o),
(349,916,cs),
(357,913,o),
(363,910,o),
(366,907,cs),
(369,904,o),
(372,900,o),
(376,896,cs),
(380,892,o),
(380,888,o),
(377,883,cs),
(354,846,l),
(349,840,o),
(341,840,o),
(333,848,cs),
(325,855,o),
(317,861,o),
(310,863,cs),
(303,865,o),
(298,869,o),
(298,874,c),
(299,878,l),
(325,916,l)
);
},
{
ref = "fatha-ar";
}
);
width = 0;
}
);
unicode = 1630;
}
{
glyphname = "wavyhamzabelow-ar";
layers = (
{
anchors = (
{
name = TashkilTashkilBelow;
pos = (0,-547);
},
{
name = _HamzaBelow;
pos = (0,-244);
},
{
name = _MarkBelow;
pos = (0,-225);
},
{
name = _TashkilBelow;
pos = (0,-244);
}
);
layerId = "7FE84AD5-D318-40C5-A81A-3CDC73FF77D2";
shapes = (
{
closed = 1;
nodes = (
(-77,-447,o),
(-71,-443,o),
(-67,-438,c),
(-92,-426,o),
(-106,-412,o),
(-109,-396,cs),
(-114,-369,o),
(-103,-336,o),
(-75,-298,c),
(-47,-260,o),
(-18,-242,o),
(14,-245,cs),
(34,-247,o),
(43,-258,o),
(41,-279,cs),
(39,-300,o),
(33,-317,o),
(23,-331,cs),
(13,-345,o),
(6,-346,o),
(-1,-335,cs),
(-8,-324,o),
(-18,-318,o),
(-31,-317,cs),
(-44,-316,o),
(-55,-320,o),
(-62,-329,cs),
(-69,-338,o),
(-70,-346,o),
(-61,-354,cs),
(-39,-375,o),
(-6,-387,o),
(37,-388,cs),
(44,-388,o),
(53,-386,o),
(67,-383,cs),
(81,-380,o),
(91,-378,o),
(96,-378,cs),
(101,-378,o),
(106,-381,o),
(108,-385,cs),
(110,-389,o),
(111,-392,o),
(109,-396,cs),
(97,-423,o),
(85,-437,o),
(74,-439,cs),
(23,-450,o),
(-30,-468,o),
(-87,-492,cs),
(-104,-499,o),
(-130,-495,o),
(-165,-481,cs),
(-182,-474,o),
(-195,-476,o),
(-207,-484,cs),
(-219,-492,o),
(-232,-506,o),
(-246,-526,c),
(-248,-529,o),
(-250,-529,o),
(-253,-526,cs),
(-256,-523,o),
(-256,-520,o),
(-255,-517,cs),
(-232,-477,o),
(-212,-451,o),
(-195,-440,cs),
(-180,-430,o),
(-164,-427,o),
(-148,-434,cs),
(-113,-448,o),
(-91,-453,o),
(-84,-450,cs)
);
}
);
width = 0;
},
{
anchors = (
{
name = TashkilTashkilBelow;
pos = (0,-547);
},
{
name = _HamzaBelow;
pos = (0,-244);
},
{
name = _MarkBelow;
pos = (0,-225);
},
{
name = _TashkilBelow;
pos = (0,-244);
}
);
layerId = "037FF2D3-C03F-44B0-90AB-89AFD43EFA27";
shapes = (
{
closed = 1;
nodes = (
(-84,-442,o),
(-83,-441,o),
(-81,-440,c),
(-102,-428,o),
(-113,-414,o),
(-116,-398,c),
(-121,-369,o),
(-109,-334,o),
(-80,-294,cs),
(-51,-254,o),
(-19,-235,o),
(15,-238,cs),
(40,-240,o),
(51,-253,o),
(49,-277,cs),
(47,-301,o),
(41,-318,o),
(34,-328,cs),
(27,-338,o),
(22,-345,o),
(19,-347,cs),
(9,-354,o),
(1,-352,o),
(-6,-342,cs),
(-13,-332,o),
(-21,-326,o),
(-32,-325,cs),
(-43,-324,o),
(-51,-327,o),
(-56,-333,cs),
(-61,-339,o),
(-61,-344,o),
(-56,-349,cs),
(-35,-369,o),
(-3,-379,o),
(37,-380,cs),
(44,-380,o),
(53,-378,o),
(67,-375,cs),
(81,-372,o),
(90,-371,o),
(97,-371,cs),
(104,-371,o),
(110,-375,o),
(114,-381,c),
(118,-388,o),
(118,-393,o),
(116,-399,cs),
(103,-428,o),
(89,-444,o),
(75,-447,c),
(25,-458,o),
(-28,-475,o),
(-84,-499,cs),
(-103,-507,o),
(-131,-503,o),
(-167,-488,cs),
(-181,-482,o),
(-195,-484,o),
(-205,-491,cs),
(-215,-498,o),
(-227,-511,o),
(-240,-530,cs),
(-245,-537,o),
(-251,-538,o),
(-257,-531,cs),
(-263,-524,o),
(-264,-519,o),
(-261,-513,cs),
(-237,-472,o),
(-217,-446,o),
(-199,-434,cs),
(-181,-422,o),
(-164,-420,o),
(-146,-427,cs),
(-116,-439,o),
(-95,-444,o),
(-87,-443,c)
);
}
);
width = 0;
}
);
unicode = 1631;
}
{
glyphname = "zero-ar";
layers = (
{
layerId = "7FE84AD5-D318-40C5-A81A-3CDC73FF77D2";
shapes = (
{
closed = 1;
nodes = (
(256,326,o),
(266,328,o),
(281,318,cs),
(364,265,ls),
(376,257,o),
(379,246,o),
(374,231,cs),
(342,132,ls),
(336,115,o),
(325,113,o),
(308,123,cs),
(217,176,ls),
(209,181,o),
(208,191,o),
(213,206,cs),
(251,312,ls)
);
}
);
width = 585;
},
{
layerId = "037FF2D3-C03F-44B0-90AB-89AFD43EFA27";
shapes = (
{
closed = 1;
nodes = (
(246,342,o),
(264,347,o),
(289,331,cs),
(372,277,ls),
(390,265,o),
(395,248,o),
(388,226,cs),
(356,128,ls),
(347,100,o),
(329,94,o),
(301,110,cs),
(210,164,ls),
(195,173,o),
(191,188,o),
(199,210,cs),
(237,317,ls)
);
}
);
width = 585;
}
);
unicode = 1632;
}
{
glyphname = "one-ar";
layers = (
{
layerId = "7FE84AD5-D318-40C5-A81A-3CDC73FF77D2";
shapes = (
{
closed = 1;
nodes = (
(255,552,o),
(269,546,o),
(286,506,c),
(325,406,o),
(352,310,o),
(365,218,cs),
(383,89,o),
(379,-10,o),
(356,-79,cs),
(352,-89,o),
(347,-94,o),
(338,-92,cs),
(329,-90,o),
(325,-84,o),
(325,-72,cs),
(327,99,o),
(292,247,o),
(221,373,cs),
(210,393,o),
(207,410,o),
(212,424,cs),
(246,524,ls)
);
}
);
width = 585;
},
{
layerId = "037FF2D3-C03F-44B0-90AB-89AFD43EFA27";
shapes = (
{
closed = 1;
nodes = (
(251,584,o),
(273,579,o),
(299,512,cs),
(339,411,o),
(367,302,o),
(380,185,cs),
(393,68,o),
(388,-21,o),
(363,-84,cs),
(356,-103,o),
(345,-111,o),
(334,-107,cs),
(323,-103,o),
(317,-92,o),
(317,-72,cs),
(318,90,o),
(282,236,o),
(208,366,cs),
(195,389,o),
(191,410,o),
(198,429,cs),
(232,529,ls)
);
}
);
width = 585;
}
);
unicode = 1633;
}
{
glyphname = "two-ar";
layers = (
{
layerId = "7FE84AD5-D318-40C5-A81A-3CDC73FF77D2";
shapes = (
{
closed = 1;
nodes = (
(144,551,o),
(157,548,o),
(176,512,cs),
(209,450,o),
(253,418,o),
(308,418,cs),
(387,418,o),
(430,454,o),
(439,523,cs),
(441,535,o),
(447,541,o),
(456,541,cs),
(465,541,o),
(471,537,o),
(474,530,cs),
(477,523,o),
(474,499,o),
(468,462,cs),
(462,425,o),
(449,392,o),
(428,362,cs),
(395,313,o),
(338,295,o),
(259,308,c),
(301,150,o),
(313,22,o),
(293,-77,cs),
(292,-84,o),
(289,-89,o),
(283,-91,cs),
(277,-93,o),
(272,-93,o),
(268,-89,cs),
(264,-85,o),
(262,-80,o),
(261,-73,cs),
(250,99,o),
(204,248,o),
(125,372,cs),
(113,391,o),
(109,406,o),
(112,419,cs),
(137,521,ls)
);
}
);
width = 585;
},
{
layerId = "037FF2D3-C03F-44B0-90AB-89AFD43EFA27";
shapes = (
{
closed = 1;
nodes = (
(136,579,o),
(157,578,o),
(188,520,cs),
(219,462,o),
(259,433,o),
(308,433,cs),
(377,433,o),
(418,464,o),
(433,525,cs),
(438,545,o),
(446,554,o),
(460,553,cs),
(473,552,o),
(480,543,o),
(481,526,cs),
(482,509,o),
(479,482,o),
(473,446,cs),
(467,410,o),
(455,379,o),
(437,354,cs),
(403,305,o),
(350,284,o),
(278,291,c),
(313,141,o),
(321,17,o),
(300,-80,cs),
(297,-92,o),
(292,-100,o),
(285,-104,cs),
(278,-108,o),
(271,-107,o),
(264,-101,cs),
(257,-95,o),
(254,-87,o),
(253,-74,cs),
(242,97,o),
(196,243,o),
(113,364,c),
(99,386,o),
(94,406,o),
(98,423,cs),
(123,524,ls)
);
}
);
width = 585;
}
);
unicode = 1634;
}
{
glyphname = "three-ar";
layers = (
{
layerId = "7FE84AD5-D318-40C5-A81A-3CDC73FF77D2";
shapes = (
{
closed = 1;
nodes = (
(488,543,o),
(493,549,o),
(503,549,cs),
(513,549,o),
(519,540,o),
(518,520,cs),
(516,479,o),
(509,433,o),
(496,384,cs),
(478,319,o),
(438,296,o),
(375,316,cs),
(355,322,o),
(338,331,o),
(324,342,c),
(292,307,o),
(257,291,o),
(218,294,c),
(260,125,o),
(271,2,o),
(251,-77,cs),
(249,-84,o),
(246,-88,o),
(240,-90,cs),
(234,-92,o),
(230,-92,o),
(226,-89,cs),
(222,-86,o),
(220,-80,o),
(219,-72,cs),
(208,106,o),
(163,254,o),
(84,371,cs),
(70,391,o),
(65,407,o),
(68,420,cs),
(93,521,ls),
(99,544,o),
(111,544,o),
(128,518,cs),
(167,461,o),
(191,430,o),
(199,425,cs),
(218,414,o),
(241,410,o),
(270,413,cs),
(310,417,o),
(336,453,o),
(350,522,cs),
(353,535,o),
(357,542,o),
(365,541,cs),
(373,540,o),
(378,535,o),
(380,527,cs),
(382,519,o),
(381,501,o),
(376,476,cs),
(371,451,o),
(387,433,o),
(423,423,c),
(461,413,o),
(482,449,o),
(487,531,cs)
);
}
);
width = 585;
},
{
layerId = "037FF2D3-C03F-44B0-90AB-89AFD43EFA27";
shapes = (
{
closed = 1;
nodes = (
(521,561,o),
(529,547,o),
(528,519,cs),
(526,469,o),
(517,419,o),
(502,372,cs),
(487,325,o),
(462,300,o),
(426,296,cs),
(394,293,o),
(360,302,o),
(326,323,c),
(299,297,o),
(269,283,o),
(236,280,c),
(272,120,o),
(279,-1,o),
(258,-81,cs),
(255,-92,o),
(250,-98,o),
(243,-101,cs),
(224,-108,o),
(213,-98,o),
(211,-73,cs),
(201,93,o),
(155,238,o),
(72,362,cs),
(56,386,o),
(50,406,o),
(54,423,cs),
(79,525,ls),
(90,569,o),
(110,569,o),
(140,526,c),
(177,472,o),
(199,443,o),
(206,438,cs),
(219,429,o),
(240,426,o),
(268,428,cs),
(307,431,o),
(332,463,o),
(343,525,cs),
(346,544,o),
(355,553,o),
(370,551,cs),
(380,550,o),
(386,543,o),
(389,532,cs),
(392,521,o),
(390,502,o),
(385,474,cs),
(383,462,o),
(392,451,o),
(411,443,cs),
(420,439,o),
(427,437,o),
(433,437,cs),
(459,436,o),
(473,467,o),
(477,532,cs),
(478,551,o),
(486,561,o),
(502,561,c)
);
}
);
width = 585;
}
);
unicode = 1635;
}
{
glyphname = "four-ar";
layers = (
{
layerId = "7FE84AD5-D318-40C5-A81A-3CDC73FF77D2";
shapes = (
{
closed = 1;
nodes = (
(391,-98,o),
(399,-94,o),
(403,-84,cs),
(432,-15,ls),
(439,3,o),
(434,13,o),
(415,15,cs),
(355,22,o),
(297,44,o),
(241,79,cs),
(224,90,o),
(223,103,o),
(237,120,cs),
(259,146,o),
(289,172,o),
(328,198,cs),
(339,205,o),
(348,217,o),
(355,232,cs),
(373,271,ls),
(382,291,o),
(378,303,o),
(362,307,cs),
(324,316,o),
(282,335,o),
(236,364,cs),
(223,372,o),
(220,382,o),
(226,393,cs),
(234,409,o),
(257,424,o),
(295,437,cs),
(303,440,o),
(309,445,o),
(310,450,cs),
(328,526,ls),
(329,532,o),
(328,537,o),
(324,542,cs),
(320,547,o),
(315,548,o),
(308,548,cs),
(301,548,o),
(296,546,o),
(292,542,cs),
(246,496,o),
(213,452,o),
(193,409,cs),
(161,341,ls),
(146,308,o),
(148,286,o),
(167,273,cs),
(204,248,o),
(239,229,o),
(275,216,c),
(223,170,o),
(194,135,o),
(187,111,cs),
(165,28,ls),
(158,3,o),
(161,-14,o),
(174,-23,cs),
(232,-64,o),
(301,-89,o),
(380,-97,cs)
);
}
);
width = 585;
},
{
layerId = "037FF2D3-C03F-44B0-90AB-89AFD43EFA27";
shapes = (
{
closed = 1;
nodes = (
(306,568,o),
(321,567,o),
(335,550,cs),
(342,542,o),
(344,533,o),
(342,523,cs),
(324,446,l),
(321,436,o),
(313,428,o),
(300,423,c),
(258,411,o),
(235,400,o),
(229,388,cs),
(228,385,o),
(229,382,o),
(234,379,cs),
(276,352,o),
(320,333,o),
(365,321,cs),
(392,314,o),
(401,300,o),
(392,279,cs),
(369,226,ls),
(363,213,o),
(350,200,o),
(329,186,cs),
(289,159,o),
(260,134,o),
(241,111,cs),
(236,104,o),
(239,98,o),
(249,91,cs),
(308,56,o),
(369,34,o),
(430,26,cs),
(451,23,o),
(457,11,o),
(448,-11,cs),
(417,-90,ls),
(410,-107,o),
(397,-114,o),
(378,-112,cs),
(299,-103,o),
(230,-78,o),
(172,-38,c),
(153,-24,o),
(149,-1,o),
(157,30,cs),
(180,115,l),
(187,139,o),
(212,171,o),
(255,211,c),
(225,224,o),
(197,240,o),
(169,259,cs),
(141,278,o),
(136,308,o),
(155,348,cs),
(187,416,ls),
(210,465,o),
(244,509,o),
(289,552,cs)
);
}
);
width = 585;
}
);
unicode = 1636;
}
{
glyphname = "five-ar";
layers = (
{
layerId = "7FE84AD5-D318-40C5-A81A-3CDC73FF77D2";
shapes = (
{
closed = 1;
nodes = (
(256,422,o),
(278,430,o),
(302,424,cs),
(346,413,o),
(384,391,o),
(416,357,cs),
(460,310,o),
(473,240,o),
(454,146,cs),
(445,99,o),
(424,64,o),
(391,39,cs),
(358,14,o),
(316,1,o),
(266,1,cs),
(216,1,o),
(179,11,o),
(157,32,cs),
(135,53,o),
(124,86,o),
(124,133,cs),
(123,225,o),
(160,314,o),
(236,399,cs)
);
},
{
closed = 1;
nodes = (
(342,274,o),
(293,299,o),
(242,295,cs),
(211,293,o),
(193,270,o),
(188,223,cs),
(184,193,o),
(189,170,o),
(203,154,cs),
(224,129,o),
(261,121,o),
(311,133,cs),
(347,141,o),
(375,155,o),
(396,175,cs),
(409,186,o),
(407,200,o),
(391,219,cs)
);
}
);
width = 585;
},
{
layerId = "037FF2D3-C03F-44B0-90AB-89AFD43EFA27";
shapes = (
{
closed = 1;
nodes = (
(342,274,o),
(293,299,o),
(242,295,c),
(211,293,o),
(193,270,o),
(188,223,c),
(184,193,o),
(189,170,o),
(203,154,c),
(224,129,o),
(261,121,o),
(311,133,c),
(347,141,o),
(375,155,o),
(396,175,c),
(409,186,o),
(407,200,o),
(391,219,cs)
);
},
{
closed = 1;
nodes = (
(249,446,o),
(275,455,o),
(305,448,cs),
(352,436,o),
(393,412,o),
(427,377,cs),
(476,325,o),
(490,247,o),
(468,143,cs),
(457,89,o),
(433,47,o),
(399,17,c),
(364,-10,o),
(319,-23,o),
(265,-23,cs),
(211,-23,o),
(172,-11,o),
(147,12,cs),
(122,35,o),
(109,76,o),
(109,133,c),
(108,235,o),
(147,330,o),
(225,419,cs)
);
}
);
width = 585;
}
);
unicode = 1637;
}
{
glyphname = "six-ar";
layers = (
{
layerId = "7FE84AD5-D318-40C5-A81A-3CDC73FF77D2";
shapes = (
{
closed = 1;
nodes = (
(456,-100,o),
(467,-97,o),
(473,-65,cs),
(490,30,ls),
(493,47,o),
(489,65,o),
(480,82,cs),
(409,210,o),
(380,338,o),
(393,468,cs),
(395,484,o),
(387,490,o),
(369,485,cs),
(260,452,o),
(185,464,o),
(147,521,cs),
(128,549,o),
(116,549,o),
(111,522,cs),
(96,443,ls),
(93,430,o),
(97,418,o),
(106,408,cs),
(156,352,o),
(234,338,o),
(339,365,cs),
(343,366,o),
(345,362,o),
(345,353,cs),
(340,203,o),
(371,61,o),
(441,-71,cs)
);
}
);
width = 585;
},
{
layerId = "037FF2D3-C03F-44B0-90AB-89AFD43EFA27";
shapes = (
{
closed = 1;
nodes = (
(107,577,o),
(127,577,o),
(160,529,cs),
(193,481,o),
(258,470,o),
(357,498,cs),
(388,507,o),
(403,497,o),
(400,467,cs),
(389,340,o),
(420,214,o),
(493,89,c),
(504,68,o),
(507,48,o),
(504,28,cs),
(487,-68,ls),
(478,-119,o),
(458,-122,o),
(428,-78,c),
(363,54,o),
(332,196,o),
(337,348,c),
(226,324,o),
(145,340,o),
(95,398,cs),
(82,412,o),
(78,428,o),
(82,446,cs),
(98,530,ls)
);
}
);
width = 585;
}
);
unicode = 1638;
}
{
glyphname = "seven-ar";
layers = (
{
layerId = "7FE84AD5-D318-40C5-A81A-3CDC73FF77D2";
shapes = (
{
closed = 1;
nodes = (
(307,-89,o),
(309,-84,o),
(311,-77,cs),
(332,12,o),
(358,93,o),
(387,166,cs),
(416,239,o),
(455,313,o),
(500,389,cs),
(506,400,o),
(508,409,o),
(508,417,cs),
(502,514,ls),
(501,523,o),
(499,527,o),
(494,527,cs),
(489,527,o),
(484,521,o),
(479,511,cs),
(400,362,o),
(347,227,o),
(320,106,cs),
(316,87,o),
(309,89,o),
(302,110,cs),
(247,269,o),
(186,409,o),
(116,533,cs),
(105,553,o),
(97,545,o),
(92,510,cs),
(79,429,ls),
(77,419,o),
(78,411,o),
(81,405,cs),
(138,310,o),
(184,217,o),
(222,127,cs),
(260,37,o),
(280,-31,o),
(282,-76,cs),
(282,-83,o),
(285,-87,o),
(289,-90,cs),
(293,-93,o),
(297,-93,o),
(302,-91,cs)
);
}
);
width = 585;
},
{
layerId = "037FF2D3-C03F-44B0-90AB-89AFD43EFA27";
shapes = (
{
closed = 1;
nodes = (
(315,-93,o),
(310,-101,o),
(303,-105,cs),
(296,-109,o),
(290,-108,o),
(284,-102,cs),
(278,-96,o),
(276,-88,o),
(275,-77,cs),
(274,-46,o),
(253,20,o),
(213,122,cs),
(194,171,o),
(145,263,o),
(68,397,cs),
(63,405,o),
(62,417,o),
(64,431,cs),
(81,532,ls),
(84,548,o),
(89,557,o),
(99,561,cs),
(109,565,o),
(118,558,o),
(128,541,cs),
(199,418,o),
(260,274,o),
(311,111,c),
(343,258,o),
(394,394,o),
(466,518,cs),
(474,533,o),
(484,540,o),
(494,541,cs),
(508,543,o),
(515,534,o),
(517,515,cs),
(523,418,ls),
(524,408,o),
(520,396,o),
(512,381,c),
(430,265,o),
(366,111,o),
(318,-81,cs)
);
}
);
width = 585;
}
);
unicode = 1639;
}
{
glyphname = "eight-ar";
layers = (
{
layerId = "7FE84AD5-D318-40C5-A81A-3CDC73FF77D2";
shapes = (
{
closed = 1;
nodes = (
(481,-103,o),
(489,-95,o),
(494,-60,cs),
(507,21,ls),
(509,31,o),
(508,39,o),
(505,45,cs),
(448,140,o),
(402,233,o),
(364,323,cs),
(326,413,o),
(306,481,o),
(304,526,cs),
(304,533,o),
(301,538,o),
(297,541,cs),
(293,544,o),
(289,544,o),
(284,542,cs),
(279,540,o),
(277,534,o),
(275,527,cs),
(254,438,o),
(227,357,o),
(198,284,cs),
(169,211,o),
(131,138,o),
(86,62,cs),
(80,51,o),
(78,41,o),
(78,33,cs),
(83,-64,ls),
(84,-73,o),
(87,-76,o),
(92,-76,cs),
(97,-76,o),
(102,-71,o),
(107,-61,cs),
(186,88,o),
(239,223,o),
(266,344,cs),
(270,363,o),
(277,361,o),
(284,340,cs),
(339,181,o),
(400,41,o),
(470,-83,cs)
);
}
);
width = 585;
},
{
layerId = "037FF2D3-C03F-44B0-90AB-89AFD43EFA27";
shapes = (
{
closed = 1;
nodes = (
(271,548,o),
(276,556,o),
(283,560,cs),
(290,564,o),
(296,564,o),
(302,558,cs),
(308,552,o),
(310,544,o),
(311,533,cs),
(312,502,o),
(333,435,o),
(373,333,cs),
(392,284,o),
(441,192,o),
(518,58,cs),
(523,50,o),
(523,38,o),
(521,24,cs),
(505,-76,ls),
(502,-92,o),
(497,-101,o),
(487,-105,cs),
(477,-109,o),
(468,-102,o),
(458,-85,cs),
(387,38,o),
(326,182,o),
(275,345,c),
(243,198,o),
(192,62,o),
(120,-62,cs),
(112,-77,o),
(102,-84,o),
(92,-85,cs),
(78,-87,o),
(71,-79,o),
(69,-60,cs),
(63,37,ls),
(62,47,o),
(66,59,o),
(74,74,c),
(156,190,o),
(220,344,o),
(268,536,cs)
);
}
);
width = 585;
}
);
unicode = (1640,1784);
}
{
glyphname = "nine-ar";
layers = (
{
layerId = "7FE84AD5-D318-40C5-A81A-3CDC73FF77D2";
shapes = (
{
closed = 1;
nodes = (
(462,35,ls),
(465,50,o),
(462,66,o),
(452,84,cs),
(420,143,o),
(402,216,o),
(399,302,cs),
(396,389,o),
(380,455,o),
(348,500,cs),
(309,556,o),
(266,556,o),
(220,500,cs),
(153,414,o),
(121,348,o),
(123,301,cs),
(127,215,o),
(202,180,o),
(348,194,c),
(353,112,o),
(375,25,o),
(414,-66,cs),
(429,-101,o),
(438,-103,o),
(444,-70,cs)
);
},
{
closed = 1;
nodes = (
(260,303,o),
(224,309,o),
(202,323,cs),
(186,333,o),
(181,349,o),
(188,370,cs),
(200,409,o),
(224,424,o),
(260,414,cs),
(290,405,o),
(311,383,o),
(322,348,cs),
(330,321,o),
(326,307,o),
(310,306,cs)
);
}
);
width = 585;
},
{
layerId = "037FF2D3-C03F-44B0-90AB-89AFD43EFA27";
shapes = (
{
closed = 1;
nodes = (
(311,383,o),
(290,405,o),
(260,414,c),
(224,424,o),
(200,409,o),
(188,370,cs),
(181,349,o),
(186,333,o),
(202,323,cs),
(224,309,o),
(260,303,o),
(310,306,cs),
(326,307,o),
(330,321,o),
(322,348,cs)
);
},
{
closed = 1;
nodes = (
(190,167,o),
(113,209,o),
(108,301,c),
(106,353,o),
(140,424,o),
(213,514,c),
(255,568,o),
(296,576,o),
(336,540,cs),
(381,499,o),
(405,420,o),
(409,302,cs),
(411,226,o),
(429,156,o),
(464,91,cs),
(475,70,o),
(480,51,o),
(477,33,cs),
(459,-73,ls),
(456,-88,o),
(454,-97,o),
(450,-100,cs),
(432,-118,o),
(416,-109,o),
(402,-75,cs),
(401,-73,o),
(400,-72,o),
(400,-72,cs),
(367,16,o),
(347,99,o),
(339,178,c)
);
}
);
width = 585;
}
);
unicode = (1641,1785);
}
{
glyphname = "decimalseparator-ar";
layers = (
{
layerId = "7FE84AD5-D318-40C5-A81A-3CDC73FF77D2";
shapes = (
{
closed = 1;
nodes = (
(105,-215,o),
(144,-191,o),
(180,-145,cs),
(216,-99,o),
(240,-41,o),
(250,29,cs),
(259,90,o),
(242,132,o),
(198,157,cs),
(168,174,o),
(150,170,o),
(145,146,cs),
(134,90,ls),
(131,75,o),
(136,66,o),
(151,63,cs),
(198,53,ls),
(212,50,o),
(218,44,o),
(215,35,cs),
(201,-11,o),
(180,-51,o),
(152,-86,cs),
(121,-125,o),
(85,-159,o),
(44,-189,cs),
(16,-210,o),
(22,-219,o),
(63,-217,cs)
);
}
);
width = 299;
},
{
layerId = "037FF2D3-C03F-44B0-90AB-89AFD43EFA27";
shapes = (
{
closed = 1;
nodes = (
(139,186,o),
(164,193,o),
(205,170,cs),
(254,142,o),
(273,93,o),
(263,23,cs),
(253,-47,o),
(229,-106,o),
(191,-155,cs),
(153,-204,o),
(111,-229,o),
(64,-231,cs),
(44,-232,o),
(32,-232,o),
(27,-229,cs),
(22,-226,o),
(18,-223,o),
(16,-220,cs),
(7,-207,o),
(13,-193,o),
(35,-177,cs),
(121,-115,o),
(176,-44,o),
(201,37,c),
(199,38,o),
(197,39,o),
(195,39,cs),
(148,49,ls),
(132,52,o),
(124,61,o),
(120,75,cs),
(119,81,o),
(118,87,o),
(119,93,cs),
(131,149,l)
);
}
);
width = 299;
}
);
unicode = 1643;
}
{
glyphname = "thousandseparator-ar";
layers = (
{
layerId = "7FE84AD5-D318-40C5-A81A-3CDC73FF77D2";
shapes = (
{
closed = 1;
nodes = (
(150,190,o),
(132,186,o),
(102,203,cs),
(58,228,o),
(41,270,o),
(50,331,cs),
(60,401,o),
(84,459,o),
(120,505,cs),
(156,551,o),
(195,575,o),
(237,577,cs),
(278,579,o),
(284,570,o),
(256,549,cs),
(217,521,o),
(180,486,o),
(147,446,cs),
(118,411,o),
(97,370,o),
(84,325,cs),
(81,316,o),
(88,310,o),
(102,307,cs),
(148,297,ls),
(163,294,o),
(169,285,o),
(166,270,cs),
(155,214,ls)
);
}
);
width = 299;
},
{
layerId = "037FF2D3-C03F-44B0-90AB-89AFD43EFA27";
shapes = (
{
closed = 1;
nodes = (
(161,174,o),
(136,167,o),
(95,190,cs),
(46,218,o),
(27,267,o),
(37,337,cs),
(47,407,o),
(71,466,o),
(109,515,cs),
(147,564,o),
(189,590,o),
(236,592,cs),
(256,593,o),
(268,592,o),
(273,589,cs),
(278,586,o),
(282,584,o),
(284,581,cs),
(293,568,o),
(286,553,o),
(264,537,cs),
(177,474,o),
(123,403,o),
(99,323,c),
(101,322,o),
(103,321,o),
(105,321,cs),
(151,312,ls),
(167,309,o),
(176,299,o),
(180,285,cs),
(181,279,o),
(181,273,o),
(180,267,cs),
(169,211,l)
);
}
);
width = 299;
}
);
unicode = 1644;
}
{
glyphname = "asterisk-ar";
layers = (
{
layerId = "7FE84AD5-D318-40C5-A81A-3CDC73FF77D2";
shapes = (
{
closed = 1;
nodes = (
(272,204,l),
(415,101,l),
(361,267,l),
(502,371,l),
(327,371,l),
(272,537,l),
(218,371,l),
(42,371,l),
(184,267,l),
(130,101,l)
);
}
);
width = 544;
},
{
layerId = "037FF2D3-C03F-44B0-90AB-89AFD43EFA27";
shapes = (
{
closed = 1;
nodes = (
(207,385,l),
(272,584,l),
(338,385,l),
(547,385,l),
(378,262,l),
(443,62,l),
(272,186,l),
(102,62,l),
(167,262,l),
(-2,385,l)
);
}
);
width = 544;
}
);
unicode = 1645;
}
{
glyphname = "behDotless-ar";
layers = (
{
anchors = (
{
name = DigitBelow;
pos = (488,-195);
},
{
name = DotAbove;
pos = (461,425);
},
{
name = DotBelow;
pos = (488,-195);
},
{
name = HamzaAbove;
pos = (461,425);
},
{
name = HamzaBelow;
pos = (488,-146);
},
{
name = RingBelow;
pos = (415,29);
},
{
name = TaaAbove;
pos = (461,327);
},
{
name = TashkilAbove;
pos = (461,801);
},
{
name = TashkilBelow;
pos = (537,-327);
},
{
name = TwoDotsAbove;
pos = (407,425);
},
{
name = TwoDotsBelow;
pos = (439,-146);
},
{
name = VAbove;
pos = (461,425);
}
);
layerId = "7FE84AD5-D318-40C5-A81A-3CDC73FF77D2";
shapes = (
{
closed = 1;
nodes = (
(577,1,o),
(710,37,o),
(817,99,cs),
(836,110,o),
(849,133,o),
(857,169,cs),
(865,205,o),
(866,242,o),
(859,281,cs),
(852,320,o),
(840,351,o),
(821,372,cs),
(813,381,o),
(806,381,o),
(802,372,cs),
(790,347,o),
(783,327,o),
(780,312,cs),
(777,297,o),
(775,288,o),
(777,285,cs),
(807,247,o),
(823,214,o),
(825,189,c),
(716,126,o),
(576,94,o),
(406,91,cs),
(236,88,o),
(139,130,o),
(116,216,cs),
(113,227,o),
(114,242,o),
(121,257,cs),
(128,272,o),
(138,287,o),
(150,300,cs),
(153,303,o),
(154,307,o),
(153,311,cs),
(152,315,o),
(150,318,o),
(146,319,cs),
(142,320,o),
(137,319,o),
(133,314,cs),
(108,286,o),
(89,260,o),
(79,236,cs),
(54,177,o),
(60,127,o),
(95,83,cs),
(150,15,o),
(257,-15,o),
(417,-7,cs)
);
}
);
width = 926;
},
{
anchors = (
{
name = DigitBelow;
pos = (488,-195);
},
{
name = DotAbove;
pos = (461,425);
},
{
name = DotBelow;
pos = (488,-195);
},
{
name = HamzaAbove;
pos = (461,425);
},
{
name = HamzaBelow;
pos = (488,-146);
},
{
name = RingBelow;
pos = (415,29);
},
{
name = TaaAbove;
pos = (461,327);
},
{
name = TashkilAbove;
pos = (461,801);
},
{
name = TashkilBelow;
pos = (537,-327);
},
{
name = TwoDotsAbove;
pos = (407,425);
},
{
name = TwoDotsBelow;
pos = (439,-146);
},
{
name = VAbove;
pos = (461,425);
}
);
layerId = "037FF2D3-C03F-44B0-90AB-89AFD43EFA27";
shapes = (
{
closed = 1;
nodes = (
(59,115,o),
(54,166,o),
(76,229,cs),
(85,254,o),
(102,282,o),
(128,311,cs),
(137,321,o),
(145,323,o),
(152,316,cs),
(159,309,o),
(158,301,o),
(149,292,cs),
(125,267,o),
(115,243,o),
(119,221,cs),
(132,144,o),
(231,106,o),
(419,106,cs),
(578,106,o),
(709,134,o),
(813,193,c),
(807,217,o),
(793,240,o),
(769,261,cs),
(763,267,o),
(762,275,o),
(765,285,cs),
(794,373,ls),
(800,391,o),
(811,389,o),
(825,367,cs),
(859,315,o),
(870,250,o),
(857,173,cs),
(850,135,o),
(836,110,o),
(814,96,cs),
(705,27,o),
(572,-13,o),
(415,-21,cs),
(257,-29,o),
(150,3,o),
(92,74,cs)
);
}
);
width = 926;
}
);
unicode = 1646;
}
{
glyphname = "alefabove-ar";
layers = (
{
anchors = (
{
name = TashkilTashkilAbove2;
pos = (120,1230);
},
{
name = _AlefAbove;
pos = (193,801);
},
{
name = _HamzaAbove;
pos = (153,969);
},
{
name = _MarkAbove;
pos = (190,801);
},
{
name = _TashkilAbove;
pos = (193,801);
},
{
name = _TashkilTashkilAbove;
pos = (195,867);
}
);
layerId = "7FE84AD5-D318-40C5-A81A-3CDC73FF77D2";
shapes = (
{
closed = 1;
nodes = (
(121,1172,o),
(127,1172,o),
(136,1161,cs),
(199,1091,o),
(221,1001,o),
(201,893,cs),
(200,886,o),
(196,883,o),
(191,882,cs),
(185,881,o),
(182,885,o),
(181,893,cs),
(172,962,o),
(147,1023,o),
(104,1076,cs),
(98,1083,o),
(97,1090,o),
(99,1098,cs),
(118,1162,ls)
);
}
);
width = 208;
},
{
anchors = (
{
name = TashkilTashkilAbove2;
pos = (120,1230);
},
{
name = _AlefAbove;
pos = (193,801);
},
{
name = _HamzaAbove;
pos = (153,969);
},
{
name = _MarkAbove;
pos = (190,801);
},
{
name = _TashkilAbove;
pos = (193,801);
},
{
name = _TashkilTashkilAbove;
pos = (195,867);
}
);
layerId = "037FF2D3-C03F-44B0-90AB-89AFD43EFA27";
shapes = (
{
closed = 1;
nodes = (
(118,1182,o),
(128,1183,o),
(142,1166,c),
(207,1094,o),
(228,1002,o),
(208,892,c),
(206,882,o),
(202,877,o),
(195,876,cs),
(182,874,o),
(175,880,o),
(174,892,cs),
(165,960,o),
(140,1020,o),
(98,1071,cs),
(91,1080,o),
(89,1090,o),
(92,1100,cs),
(111,1164,l)
);
}
);
width = 0;
}
);
unicode = 1648;
}
{
glyphname = "fehDotless-ar";
layers = (
{
anchors = (
{
name = DotAbove;
pos = (635,659);
},
{
name = DotAlt;
pos = (488,-146);
},
{
name = DotBelow;
pos = (830,-49);
},
{
name = HamzaAbove;
pos = (635,659);
},
{
name = TashkilAbove;
pos = (635,801);
},
{
name = TashkilBelow;
pos = (526,-327);
},
{
name = TwoDotsAbove;
pos = (581,659);
},
{
name = TwoDotsBelow;
pos = (781,-49);
}
);
layerId = "7FE84AD5-D318-40C5-A81A-3CDC73FF77D2";
shapes = (
{
closed = 1;
nodes = (
(403,-8,o),
(480,2,o),
(564,21,cs),
(648,40,o),
(722,65,o),
(787,99,cs),
(852,133,o),
(893,170,o),
(911,212,cs),
(919,231,o),
(922,254,o),
(920,281,cs),
(916,356,o),
(901,414,o),
(875,455,cs),
(849,496,o),
(823,512,o),
(796,504,cs),
(779,499,o),
(766,488,o),
(755,471,cs),
(711,403,o),
(692,352,o),
(698,318,cs),
(707,268,o),
(738,246,o),
(792,254,cs),
(819,258,o),
(842,277,o),
(860,312,cs),
(862,316,o),
(865,318,o),
(866,317,cs),
(880,306,o),
(889,291,o),
(892,275,c),
(887,251,o),
(866,230,o),
(830,212,cs),
(707,149,o),
(584,111,o),
(461,96,cs),
(311,78,o),
(201,94,o),
(132,144,cs),
(85,178,o),
(84,234,o),
(132,310,cs),
(135,314,o),
(135,318,o),
(134,322,cs),
(133,326,o),
(129,329,o),
(125,329,cs),
(121,329,o),
(117,328,o),
(114,323,cs),
(92,292,o),
(78,260,o),
(71,227,cs),
(64,194,o),
(62,167,o),
(64,149,cs),
(75,43,o),
(165,-9,o),
(333,-8,cs)
);
},
{
closed = 1;
nodes = (
(747,365,o),
(747,369,o),
(750,375,cs),
(763,399,o),
(782,401,o),
(806,381,cs),
(813,375,o),
(814,369,o),
(807,363,cs),
(789,346,o),
(770,345,o),
(751,361,cs)
);
}
);
width = 983;
},
{
anchors = (
{
name = DotAbove;
pos = (635,659);
},
{
name = DotAlt;
pos = (488,-146);
},
{
name = DotBelow;
pos = (830,-49);
},
{
name = HamzaAbove;
pos = (635,659);
},
{
name = TashkilAbove;
pos = (635,801);
},
{
name = TashkilBelow;
pos = (526,-327);
},
{
name = TwoDotsAbove;
pos = (581,659);
},
{
name = TwoDotsBelow;
pos = (781,-49);
}
);
layerId = "037FF2D3-C03F-44B0-90AB-89AFD43EFA27";
shapes = (
{
closed = 1;
nodes = (
(804,383,o),
(803,390,o),
(796,396,cs),
(772,416,o),
(753,414,o),
(740,390,cs),
(737,384,o),
(737,380,o),
(741,376,cs),
(760,360,o),
(779,360,o),
(797,377,cs)
);
},
{
closed = 1;
nodes = (
(899,430,o),
(915,364,o),
(920,282,cs),
(922,252,o),
(919,227,o),
(910,206,cs),
(891,161,o),
(850,122,o),
(788,87,cs),
(726,52,o),
(653,25,o),
(568,6,cs),
(483,-13,o),
(404,-23,o),
(333,-23,cs),
(165,-24,o),
(76,33,o),
(64,148,cs),
(61,174,o),
(65,204,o),
(74,238,cs),
(83,272,o),
(93,295,o),
(105,310,cs),
(117,325,o),
(126,330,o),
(133,325,cs),
(140,320,o),
(139,309,o),
(130,292,cs),
(96,230,o),
(101,185,o),
(141,156,cs),
(208,108,o),
(313,92,o),
(459,110,cs),
(588,126,o),
(709,164,o),
(823,225,cs),
(857,243,o),
(874,260,o),
(876,276,c),
(876,283,o),
(870,295,o),
(857,310,c),
(844,281,o),
(820,262,o),
(784,254,cs),
(723,243,o),
(691,268,o),
(688,330,cs),
(687,376,o),
(707,431,o),
(748,493,cs),
(767,523,o),
(786,538,o),
(807,537,cs),
(828,536,o),
(848,517,o),
(869,480,c)
);
}
);
width = 983;
}
);
unicode = 1697;
}
{
glyphname = "keheh-ar";
layers = (
{
anchors = (
{
name = Dash;
pos = (848,687);
},
{
name = DotAbove;
pos = (681,696);
},
{
name = DotBelow;
pos = (675,-80);
},
{
name = RingBelow;
pos = (846,604);
},
{
name = TashkilAbove;
pos = (519,801);
},
{
name = TashkilBelow;
pos = (470,-327);
},
{
name = TwoDotsAbove;
pos = (627,696);
},
{
name = TwoDotsBelow;
pos = (622,-80);
}
);
layerId = "7FE84AD5-D318-40C5-A81A-3CDC73FF77D2";
shapes = (
{
closed = 1;
nodes = (
(802,162,o),
(803,164,o),
(802,167,c),
(761,233,o),
(691,291,o),
(593,340,cs),
(582,346,o),
(576,366,o),
(575,402,cs),
(573,452,o),
(583,487,o),
(605,507,cs),
(700,592,o),
(874,674,o),
(1125,752,cs),
(1130,754,o),
(1133,754,o),
(1136,754,cs),
(1140,754,o),
(1142,753,o),
(1142,748,cs),
(1142,747,o),
(1142,745,o),
(1141,741,cs),
(1121,670,ls),
(1118,660,o),
(1114,655,o),
(1108,653,cs),
(821,550,o),
(655,476,o),
(609,430,cs),
(606,427,o),
(607,425,o),
(611,423,c),
(751,339,o),
(822,256,o),
(823,172,cs),
(823,125,o),
(813,89,o),
(793,62,cs),
(765,24,o),
(689,-9,o),
(564,-37,cs),
(480,-56,o),
(403,-66,o),
(333,-66,cs),
(165,-67,o),
(75,-14,o),
(64,92,cs),
(62,110,o),
(64,136,o),
(71,169,cs),
(78,202,o),
(92,234,o),
(114,265,cs),
(117,270,o),
(121,271,o),
(125,271,cs),
(129,271,o),
(133,268,o),
(134,264,cs),
(135,260,o),
(135,256,o),
(132,252,cs),
(84,176,o),
(85,120,o),
(132,86,cs),
(201,36,o),
(311,20,o),
(461,38,cs),
(626,58,o),
(738,98,o),
(800,160,cs)
);
}
);
width = 1202;
},
{
anchors = (
{
name = Dash;
pos = (848,687);
},
{
name = DotAbove;
pos = (681,696);
},
{
name = DotBelow;
pos = (675,-80);
},
{
name = RingBelow;
pos = (846,604);
},
{
name = TashkilAbove;
pos = (519,801);
},
{
name = TashkilBelow;
pos = (470,-327);
},
{
name = TwoDotsAbove;
pos = (627,696);
},
{
name = TwoDotsBelow;
pos = (622,-80);
}
);
layerId = "037FF2D3-C03F-44B0-90AB-89AFD43EFA27";
shapes = (
{
closed = 1;
nodes = (
(732,246,o),
(669,299,o),
(602,325,cs),
(586,331,o),
(577,359,o),
(575,408,cs),
(573,459,o),
(585,496,o),
(610,518,cs),
(711,610,o),
(882,693,o),
(1125,766,cs),
(1142,771,o),
(1150,766,o),
(1145,749,cs),
(1121,661,ls),
(1117,646,o),
(1109,637,o),
(1098,633,cs),
(840,543,o),
(679,475,o),
(616,431,c),
(755,356,o),
(825,270,o),
(825,172,cs),
(825,62,o),
(739,-12,o),
(568,-51,cs),
(483,-70,o),
(404,-81,o),
(333,-81,cs),
(165,-82,o),
(76,-25,o),
(64,90,cs),
(61,116,o),
(65,146,o),
(74,180,cs),
(83,214,o),
(93,238,o),
(105,253,cs),
(117,268,o),
(126,272,o),
(133,267,cs),
(140,262,o),
(139,251,o),
(130,234,cs),
(96,172,o),
(101,127,o),
(141,98,cs),
(208,50,o),
(313,35,o),
(459,53,cs),
(615,72,o),
(726,110,o),
(792,166,c)
);
}
);
width = 1202;
}
);
unicode = 1705;
}
{
glyphname = "noonghunna-ar";
layers = (
{
anchors = (
{
name = DotAbove;
pos = (269,552);
},
{
name = DotBelow;
pos = (280,-213);
},
{
name = HamzaAbove;
pos = (269,488);
},
{
name = RingBelow;
pos = (280,-18);
},
{
name = TaaAbove;
pos = (269,488);
},
{
name = TashkilAbove;
pos = (269,801);
},
{
name = TashkilBelow;
pos = (293,-327);
},
{
name = TwoDotsAbove;
pos = (214,552);
},
{
name = TwoDotsBelow;
pos = (226,-213);
}
);
layerId = "7FE84AD5-D318-40C5-A81A-3CDC73FF77D2";
shapes = (
{
closed = 1;
nodes = (
(367,-55,o),
(435,-20,o),
(474,41,cs),
(489,64,o),
(499,92,o),
(504,123,cs),
(513,181,o),
(511,240,o),
(496,302,cs),
(481,364,o),
(461,416,o),
(438,460,c),
(431,471,o),
(427,472,o),
(423,463,cs),
(393,389,ls),
(391,384,o),
(392,379,o),
(397,372,cs),
(413,349,o),
(430,311,o),
(450,259,cs),
(470,207,o),
(480,165,o),
(479,134,cs),
(479,130,o),
(478,126,o),
(477,125,cs),
(424,67,o),
(354,39,o),
(266,38,c),
(191,38,o),
(140,59,o),
(115,102,cs),
(90,145,o),
(98,202,o),
(139,271,cs),
(145,280,o),
(145,288,o),
(140,291,cs),
(135,294,o),
(130,292,o),
(125,285,cs),
(87,233,o),
(67,177,o),
(64,117,cs),
(61,57,o),
(77,11,o),
(113,-23,cs),
(149,-57,o),
(202,-71,o),
(271,-64,cs)
);
}
);
width = 572;
},
{
anchors = (
{
name = DotAbove;
pos = (269,552);
},
{
name = DotBelow;
pos = (280,-213);
},
{
name = HamzaAbove;
pos = (269,488);
},
{
name = RingBelow;
pos = (280,-18);
},
{
name = TaaAbove;
pos = (269,488);
},
{
name = TashkilAbove;
pos = (269,801);
},
{
name = TashkilBelow;
pos = (293,-327);
},
{
name = TwoDotsAbove;
pos = (214,552);
},
{
name = TwoDotsBelow;
pos = (226,-213);
}
);
layerId = "037FF2D3-C03F-44B0-90AB-89AFD43EFA27";
shapes = (
{
closed = 1;
nodes = (
(506,357,o),
(524,244,o),
(509,120,cs),
(505,89,o),
(495,60,o),
(477,33,cs),
(435,-31,o),
(366,-69,o),
(273,-79,cs),
(208,-86,o),
(157,-71,o),
(119,-35,cs),
(81,1,o),
(63,48,o),
(64,107,cs),
(65,168,o),
(85,227,o),
(122,281,cs),
(130,292,o),
(136,296,o),
(142,290,cs),
(148,284,o),
(149,275,o),
(142,264,cs),
(106,200,o),
(100,149,o),
(124,109,cs),
(147,71,o),
(194,51,o),
(266,52,cs),
(354,53,o),
(424,80,o),
(474,133,c),
(471,192,o),
(443,265,o),
(390,354,cs),
(383,366,o),
(380,377,o),
(384,385,cs),
(421,469,l),
(430,490,o),
(442,486,o),
(456,458,cs)
);
}
);
width = 572;
}
);
unicode = 1722;
}
{
glyphname = "hehDoachashmee-ar";
layers = (
{
anchors = (
{
name = TashkilAbove;
pos = (342,801);
},
{
name = TashkilBelow;
pos = (342,-327);
}
);
layerId = "7FE84AD5-D318-40C5-A81A-3CDC73FF77D2";
shapes = (
{
closed = 1;
nodes = (
(380,142,o),
(366,111,o),
(342,83,c),
(379,76,o),
(426,74,o),
(484,75,cs),
(492,75,o),
(498,78,o),
(501,84,cs),
(504,90,o),
(503,94,o),
(500,98,cs),
(480,122,o),
(442,149,o),
(385,177,c)
);
},
{
closed = 1;
nodes = (
(302,226,o),
(288,218,o),
(269,202,cs),
(250,186,o),
(236,166,o),
(224,143,cs),
(223,141,o),
(223,138,o),
(223,136,cs),
(228,116,o),
(248,102,o),
(286,94,c),
(318,107,o),
(337,120,o),
(345,131,cs),
(353,142,o),
(352,161,o),
(345,187,cs),
(338,213,o),
(327,226,o),
(312,226,cs)
);
},
{
closed = 1;
nodes = (
(203,62,o),
(202,65,o),
(201,69,cs),
(197,93,o),
(199,121,o),
(206,149,cs),
(213,177,o),
(232,209,o),
(263,243,cs),
(294,277,o),
(321,300,o),
(344,312,cs),
(367,324,o),
(384,308,o),
(395,265,cs),
(397,258,o),
(402,253,o),
(409,249,cs),
(471,219,o),
(514,191,o),
(536,168,cs),
(543,161,o),
(546,148,o),
(548,130,cs),
(550,112,o),
(549,92,o),
(542,68,cs),
(535,44,o),
(525,26,o),
(511,12,cs),
(497,-3,o),
(456,-8,o),
(388,-5,cs),
(339,-3,o),
(298,5,o),
(265,16,c),
(231,-5,o),
(191,-20,o),
(146,-30,c),
(132,-34,o),
(121,-34,o),
(114,-30,cs),
(63,-5,l),
(39,8,o),
(45,19,o),
(80,26,c),
(128,36,o),
(169,47,o),
(205,58,c)
);
}
);
width = 608;
},
{
anchors = (
{
name = TashkilAbove;
pos = (342,801);
},
{
name = TashkilBelow;
pos = (342,-327);
}
);
layerId = "037FF2D3-C03F-44B0-90AB-89AFD43EFA27";
shapes = (
{
closed = 1;
nodes = (
(390,133,o),
(381,113,o),
(368,94,c),
(400,90,o),
(429,89,o),
(452,89,cs),
(475,89,o),
(487,90,o),
(488,90,c),
(471,110,o),
(440,132,o),
(396,155,c)
);
},
{
closed = 1;
nodes = (
(311,121,o),
(327,131,o),
(332,139,cs),
(337,147,o),
(337,161,o),
(331,181,cs),
(325,201,o),
(320,211,o),
(313,211,cs),
(306,211,o),
(294,204,o),
(278,190,cs),
(262,176,o),
(248,158,o),
(237,137,c),
(242,125,o),
(258,117,o),
(285,110,c)
);
},
{
closed = 1;
nodes = (
(183,94,o),
(184,122,o),
(192,153,cs),
(200,184,o),
(222,219,o),
(258,259,cs),
(294,299,o),
(324,323,o),
(350,330,cs),
(377,337,o),
(397,317,o),
(409,269,c),
(410,266,o),
(413,264,o),
(416,262,cs),
(480,231,o),
(523,203,o),
(546,178,c),
(555,168,o),
(561,153,o),
(563,133,cs),
(565,113,o),
(562,90,o),
(555,64,cs),
(548,38,o),
(537,17,o),
(520,0,cs),
(503,-17,o),
(459,-23,o),
(387,-20,cs),
(340,-18,o),
(299,-10,o),
(266,0,c),
(232,-20,o),
(193,-35,o),
(150,-45,cs),
(132,-49,o),
(118,-48,o),
(108,-43,cs),
(57,-18,l),
(44,-11,o),
(36,-3,o),
(34,5,cs),
(30,21,o),
(41,32,o),
(67,38,cs),
(69,39,o),
(83,41,o),
(105,46,cs),
(127,51,o),
(155,57,o),
(187,67,c)
);
}
);
width = 608;
}
);
unicode = 1726;
}
{
glyphname = "fullstop-ar";
layers = (
{
layerId = "7FE84AD5-D318-40C5-A81A-3CDC73FF77D2";
shapes = (
{
closed = 1;
nodes = (
(316,0,ls),
(334,0,o),
(347,5,o),
(356,14,cs),
(414,77,ls),
(422,85,o),
(420,90,o),
(408,90,cs),
(176,90,ls),
(158,90,o),
(145,85,o),
(136,76,cs),
(78,13,ls),
(70,5,o),
(72,0,o),
(84,0,cs)
);
}
);
width = 491;
},
{
layerId = "037FF2D3-C03F-44B0-90AB-89AFD43EFA27";
shapes = (
{
closed = 1;
nodes = (
(416,104,o),
(423,103,o),
(427,99,cs),
(436,90,o),
(436,79,o),
(425,67,cs),
(367,4,l),
(355,-8,o),
(337,-15,o),
(316,-15,c),
(84,-15,l),
(76,-14,o),
(69,-12,o),
(65,-8,cs),
(56,1,o),
(56,11,o),
(67,23,cs),
(125,86,l),
(137,98,o),
(155,105,o),
(176,105,c),
(408,105,l)
);
}
);
width = 491;
}
);
unicode = 1748;
}
{
glyphname = "sadLamAlefMaksuraabove-ar";
layers = (
{
anchors = (
{
name = _MarkAbove;
pos = (244,1270);
}
);
layerId = "7FE84AD5-D318-40C5-A81A-3CDC73FF77D2";
shapes = (
{
closed = 1;
nodes = (
(343,1321,o),
(413,1325,o),
(452,1331,cs),
(457,1332,o),
(460,1335,o),
(464,1341,cs),
(487,1375,ls),
(493,1384,o),
(490,1388,o),
(479,1387,cs),
(404,1380,o),
(359,1376,o),
(343,1374,cs),
(280,1369,o),
(214,1367,o),
(148,1369,cs),
(99,1370,o),
(60,1373,o),
(29,1378,c),
(58,1396,o),
(78,1415,o),
(91,1435,cs),
(104,1456,o),
(113,1481,o),
(118,1510,c),
(123,1484,o),
(133,1465,o),
(147,1452,c),
(168,1434,o),
(190,1434,o),
(212,1454,cs),
(216,1457,o),
(225,1467,o),
(239,1483,c),
(290,1456,o),
(341,1446,o),
(391,1453,cs),
(430,1459,o),
(459,1482,o),
(478,1523,cs),
(490,1551,o),
(491,1572,o),
(482,1587,cs),
(473,1601,o),
(460,1608,o),
(442,1606,cs),
(412,1603,o),
(376,1584,o),
(336,1548,cs),
(313,1526,o),
(300,1515,o),
(298,1514,c),
(291,1516,o),
(276,1524,o),
(254,1538,cs),
(249,1541,o),
(244,1538,o),
(237,1531,cs),
(217,1509,o),
(200,1497,o),
(185,1495,cs),
(169,1493,o),
(156,1502,o),
(147,1523,cs),
(141,1537,o),
(135,1603,o),
(130,1719,cs),
(129,1740,o),
(122,1743,o),
(110,1724,cs),
(98,1706,ls),
(95,1702,o),
(94,1694,o),
(95,1681,cs),
(97,1642,o),
(98,1617,o),
(99,1608,cs),
(101,1573,o),
(103,1546,o),
(104,1527,cs),
(105,1495,o),
(86,1466,o),
(48,1439,cs),
(35,1430,o),
(23,1416,o),
(12,1397,cs),
(2,1380,o),
(-2,1362,o),
(1,1344,c),
(4,1332,o),
(12,1325,o),
(27,1323,cs),
(75,1316,o),
(146,1314,o),
(240,1317,cs)
);
},
{
closed = 1;
nodes = (
(398,1501,o),
(354,1502,o),
(316,1510,c),
(375,1559,o),
(417,1570,o),
(441,1544,cs),
(448,1537,o),
(450,1525,o),
(446,1509,c)
);
}
);
width = 490;
},
{
anchors = (
{
name = _MarkAbove;
pos = (244,1270);
}
);
layerId = "037FF2D3-C03F-44B0-90AB-89AFD43EFA27";
shapes = (
{
closed = 1;
nodes = (
(95,1546,o),
(95,1567,o),
(93,1589,cs),
(88,1663,o),
(87,1703,o),
(92,1710,cs),
(104,1728,ls),
(111,1738,o),
(117,1743,o),
(123,1744,cs),
(132,1745,o),
(136,1737,o),
(137,1721,cs),
(137,1720,o),
(137,1720,o),
(137,1720,cs),
(142,1605,o),
(148,1539,o),
(155,1524,cs),
(162,1509,o),
(172,1502,o),
(185,1503,cs),
(198,1504,o),
(213,1515,o),
(232,1536,cs),
(241,1546,o),
(250,1549,o),
(258,1544,cs),
(276,1533,o),
(289,1526,o),
(297,1522,c),
(303,1527,o),
(315,1537,o),
(332,1553,c),
(374,1590,o),
(409,1610,o),
(441,1613,c),
(462,1615,o),
(478,1608,o),
(489,1591,c),
(499,1574,o),
(498,1551,o),
(485,1521,c),
(465,1478,o),
(434,1452,o),
(392,1445,c),
(342,1439,o),
(292,1449,o),
(241,1474,c),
(229,1460,o),
(221,1452,o),
(217,1449,cs),
(192,1427,o),
(168,1425,o),
(143,1446,c),
(133,1455,o),
(125,1466,o),
(119,1480,c),
(113,1461,o),
(106,1444,o),
(96,1429,cs),
(86,1414,o),
(70,1398,o),
(49,1383,c),
(134,1373,o),
(232,1372,o),
(342,1381,c),
(359,1383,o),
(404,1388,o),
(479,1395,cs),
(485,1395,o),
(490,1393,o),
(495,1390,cs),
(500,1387,o),
(499,1381,o),
(493,1371,cs),
(471,1337,ls),
(466,1329,o),
(460,1325,o),
(453,1324,cs),
(414,1318,o),
(344,1313,o),
(246,1310,cs),
(148,1307,o),
(74,1308,o),
(26,1315,c),
(7,1318,o),
(-3,1328,o),
(-6,1343,c),
(-9,1363,o),
(-5,1383,o),
(7,1402,cs),
(19,1421,o),
(31,1435,o),
(44,1445,cs),
(79,1471,o),
(97,1498,o),
(96,1527,cs)
);
},
{
closed = 1;
nodes = (
(416,1560,o),
(381,1551,o),
(333,1514,c),
(366,1509,o),
(401,1509,o),
(439,1515,c),
(441,1526,o),
(440,1534,o),
(436,1539,c)
);
}
);
width = 498;
}
);
unicode = 1750;
}
{
glyphname = "qafLamAlefMaksuraabove-ar";
layers = (
{
anchors = (
{
name = _MarkAbove;
pos = (244,1270);
}
);
layerId = "7FE84AD5-D318-40C5-A81A-3CDC73FF77D2";
shapes = (
{
closed = 1;
nodes = (
(343,1321,o),
(413,1325,o),
(452,1331,cs),
(457,1332,o),
(460,1335,o),
(464,1341,cs),
(487,1375,ls),
(493,1384,o),
(490,1388,o),
(479,1387,cs),
(442,1384,o),
(397,1380,o),
(343,1374,cs),
(291,1369,o),
(225,1367,o),
(148,1369,cs),
(99,1370,o),
(60,1373,o),
(29,1378,c),
(58,1396,o),
(78,1415,o),
(91,1435,cs),
(104,1456,o),
(113,1481,o),
(118,1510,c),
(128,1462,o),
(157,1438,o),
(205,1438,cs),
(249,1438,o),
(282,1458,o),
(306,1496,cs),
(317,1514,o),
(323,1533,o),
(324,1554,cs),
(325,1590,o),
(315,1621,o),
(294,1647,cs),
(265,1683,o),
(239,1682,o),
(216,1644,cs),
(201,1620,o),
(194,1598,o),
(195,1579,cs),
(196,1543,o),
(212,1525,o),
(242,1526,cs),
(261,1527,o),
(274,1538,o),
(283,1560,cs),
(285,1565,o),
(288,1564,o),
(293,1557,cs),
(296,1552,o),
(298,1545,o),
(299,1534,c),
(272,1507,o),
(241,1493,o),
(205,1493,cs),
(176,1493,o),
(156,1503,o),
(147,1523,cs),
(141,1537,o),
(135,1603,o),
(130,1719,cs),
(129,1740,o),
(122,1743,o),
(110,1724,cs),
(98,1706,ls),
(95,1702,o),
(94,1694,o),
(95,1681,cs),
(97,1642,o),
(98,1617,o),
(99,1608,cs),
(101,1573,o),
(103,1546,o),
(104,1527,cs),
(105,1495,o),
(86,1466,o),
(48,1439,cs),
(35,1430,o),
(23,1416,o),
(12,1397,cs),
(2,1380,o),
(-2,1362,o),
(1,1344,c),
(4,1332,o),
(12,1325,o),
(27,1323,cs),
(75,1316,o),
(146,1314,o),
(240,1317,cs)
);
},
{
closed = 1;
nodes = (
(255,1762,l),
(275,1750,o),
(286,1744,o),
(288,1742,cs),
(291,1739,o),
(292,1739,o),
(293,1741,cs),
(321,1784,ls),
(322,1786,o),
(322,1789,o),
(320,1790,cs),
(299,1804,o),
(285,1811,o),
(279,1813,cs),
(277,1814,o),
(275,1814,o),
(274,1812,cs),
(254,1782,l),
(244,1790,o),
(232,1796,o),
(219,1800,cs),
(217,1801,o),
(215,1801,o),
(214,1799,cs),
(186,1757,ls),
(185,1756,o),
(186,1755,o),
(187,1754,cs),
(206,1741,o),
(220,1733,o),
(228,1729,cs),
(231,1727,o),
(232,1727,o),
(233,1728,cs)
);
}
);
width = 490;
},
{
anchors = (
{
name = _MarkAbove;
pos = (244,1270);
}
);
layerId = "037FF2D3-C03F-44B0-90AB-89AFD43EFA27";
shapes = (
{
closed = 1;
nodes = (
(291,1544,o),
(290,1549,o),
(288,1552,c),
(277,1531,o),
(262,1520,o),
(242,1519,cs),
(208,1518,o),
(190,1538,o),
(188,1579,c),
(188,1600,o),
(193,1618,o),
(204,1636,cs),
(215,1654,o),
(222,1666,o),
(229,1671,cs),
(251,1689,o),
(275,1683,o),
(298,1654,cs),
(321,1625,o),
(333,1592,o),
(332,1554,c),
(331,1532,o),
(324,1512,o),
(312,1492,cs),
(287,1451,o),
(252,1431,o),
(208,1431,cs),
(164,1431,o),
(135,1448,o),
(120,1481,c),
(114,1462,o),
(106,1445,o),
(96,1429,cs),
(86,1413,o),
(70,1398,o),
(49,1383,c),
(77,1380,o),
(119,1377,o),
(177,1376,cs),
(235,1375,o),
(291,1376,o),
(344,1382,cs),
(439,1391,o),
(488,1395,o),
(492,1392,c),
(499,1387,o),
(499,1381,o),
(493,1371,cs),
(471,1337,ls),
(466,1329,o),
(460,1325,o),
(453,1324,cs),
(414,1318,o),
(344,1313,o),
(246,1310,cs),
(148,1307,o),
(74,1308,o),
(26,1315,c),
(7,1318,o),
(-3,1328,o),
(-6,1343,c),
(-9,1363,o),
(-5,1383,o),
(7,1402,cs),
(19,1421,o),
(31,1435,o),
(44,1445,cs),
(79,1470,o),
(97,1498,o),
(96,1527,cs),
(95,1546,o),
(95,1567,o),
(93,1589,cs),
(88,1663,o),
(87,1703,o),
(92,1710,cs),
(104,1728,ls),
(111,1738,o),
(117,1743,o),
(123,1744,cs),
(132,1745,o),
(136,1737,o),
(137,1721,cs),
(137,1720,o),
(137,1720,o),
(137,1720,cs),
(142,1605,o),
(149,1539,o),
(156,1524,cs),
(163,1509,o),
(181,1501,o),
(210,1501,cs),
(239,1501,o),
(267,1513,o),
(292,1537,c)
);
},
{
closed = 1;
nodes = (
(215,1811,o),
(230,1807,o),
(252,1792,c),
(269,1816,ls),
(272,1821,o),
(276,1822,o),
(283,1820,cs),
(290,1818,o),
(303,1810,o),
(324,1796,c),
(330,1791,o),
(331,1786,o),
(328,1780,cs),
(300,1737,l),
(295,1731,o),
(291,1730,o),
(286,1734,cs),
(281,1738,o),
(272,1744,o),
(258,1752,c),
(240,1724,ls),
(237,1719,o),
(234,1718,o),
(231,1719,cs),
(228,1720,o),
(226,1721,o),
(225,1721,cs),
(224,1721,o),
(222,1723,o),
(218,1725,cs),
(214,1727,o),
(202,1735,o),
(183,1748,c),
(178,1752,o),
(177,1756,o),
(180,1761,c),
(208,1804,l)
);
}
);
width = 497;
}
);
unicode = 1751;
}
{
glyphname = "meemabove-ar";
layers = (
{
anchors = (
{
name = _MarkAbove;
pos = (209,1270);
}
);
layerId = "7FE84AD5-D318-40C5-A81A-3CDC73FF77D2";
shapes = (
{
closed = 1;
nodes = (
(112,1319,o),
(164,1360,o),
(201,1426,c),
(222,1418,o),
(249,1414,o),
(282,1413,cs),
(287,1413,o),
(290,1414,o),
(292,1418,cs),
(310,1456,l),
(310,1528,o),
(290,1564,o),
(251,1565,cs),
(216,1566,o),
(191,1526,o),
(177,1445,c),
(146,1399,o),
(99,1361,o),
(36,1330,cs),
(22,1323,o),
(17,1315,o),
(21,1306,cs),
(23,1301,o),
(32,1301,o),
(46,1304,cs)
);
}
);
width = 310;
},
{
anchors = (
{
name = _MarkAbove;
pos = (209,1270);
}
);
layerId = "037FF2D3-C03F-44B0-90AB-89AFD43EFA27";
shapes = (
{
closed = 1;
nodes = (
(166,1352,o),
(113,1312,o),
(47,1297,c),
(28,1293,o),
(18,1295,o),
(14,1303,c),
(9,1316,o),
(15,1327,o),
(33,1336,cs),
(94,1367,o),
(139,1404,o),
(170,1448,c),
(185,1531,o),
(212,1573,o),
(250,1573,c),
(295,1572,o),
(317,1533,o),
(317,1456,cs),
(317,1455,o),
(316,1454,o),
(316,1453,cs),
(299,1416,l),
(295,1409,o),
(289,1405,o),
(281,1405,cs),
(251,1406,o),
(225,1410,o),
(204,1417,c)
);
}
);
width = 310;
}
);
unicode = 1752;
}
{
glyphname = "lamAlefabove-ar";
layers = (
{
anchors = (
{
name = _MarkAbove;
pos = (190,1270);
}
);
layerId = "7FE84AD5-D318-40C5-A81A-3CDC73FF77D2";
shapes = (
{
closed = 1;
nodes = (
(253,1519,o),
(262,1600,o),
(254,1705,cs),
(253,1720,o),
(254,1729,o),
(256,1733,cs),
(264,1748,o),
(270,1757,o),
(271,1759,cs),
(272,1761,o),
(274,1762,o),
(276,1762,cs),
(278,1762,o),
(280,1760,o),
(281,1758,cs),
(287,1736,o),
(292,1721,o),
(298,1715,cs),
(304,1709,o),
(304,1702,o),
(299,1697,cs),
(283,1681,l),
(286,1586,o),
(271,1505,o),
(238,1440,c),
(249,1412,o),
(256,1387,o),
(257,1365,c),
(258,1343,o),
(253,1330,o),
(240,1327,cs),
(204,1318,o),
(165,1317,o),
(122,1324,cs),
(117,1325,o),
(115,1326,o),
(114,1328,c),
(107,1345,o),
(108,1358,o),
(117,1370,cs),
(120,1374,o),
(123,1376,o),
(125,1375,cs),
(132,1374,o),
(139,1374,o),
(146,1373,cs),
(146,1374,ls),
(173,1389,o),
(196,1410,o),
(213,1436,c),
(174,1518,o),
(126,1586,o),
(69,1640,c),
(61,1625,l),
(56,1622,o),
(51,1622,o),
(47,1627,c),
(7,1670,l),
(1,1677,o),
(-1,1684,o),
(0,1692,cs),
(8,1743,ls),
(9,1748,o),
(10,1751,o),
(13,1751,cs),
(21,1752,o),
(43,1731,o),
(78,1688,cs),
(147,1605,o),
(197,1530,o),
(228,1463,c)
);
},
{
closed = 1;
nodes = (
(213,1398,o),
(201,1385,o),
(188,1372,cs),
(188,1371,l),
(209,1371,o),
(223,1372,o),
(232,1376,c),
(231,1387,o),
(228,1399,o),
(223,1413,c)
);
}
);
width = 303;
},
{
anchors = (
{
name = _MarkAbove;
pos = (190,1270);
}
);
layerId = "037FF2D3-C03F-44B0-90AB-89AFD43EFA27";
shapes = (
{
closed = 1;
nodes = (
(248,1535,o),
(254,1611,o),
(247,1705,cs),
(246,1722,o),
(247,1732,o),
(250,1737,cs),
(258,1752,o),
(263,1760,o),
(265,1763,cs),
(269,1768,o),
(273,1770,o),
(278,1769,cs),
(283,1768,o),
(286,1765,o),
(288,1760,c),
(294,1739,o),
(299,1724,o),
(306,1717,cs),
(313,1709,o),
(312,1701,o),
(304,1692,cs),
(290,1678,l),
(293,1584,o),
(278,1504,o),
(246,1439,c),
(256,1411,o),
(263,1386,o),
(264,1362,cs),
(265,1338,o),
(258,1325,o),
(242,1320,c),
(205,1311,o),
(164,1309,o),
(121,1316,cs),
(114,1317,o),
(109,1321,o),
(107,1325,cs),
(100,1344,o),
(101,1361,o),
(111,1375,c),
(116,1381,o),
(121,1383,o),
(127,1382,cs),
(133,1381,o),
(138,1381,o),
(144,1380,c),
(169,1394,o),
(189,1413,o),
(205,1436,c),
(169,1512,o),
(123,1576,o),
(71,1628,c),
(68,1623,o),
(66,1619,o),
(65,1618,cs),
(56,1613,o),
(49,1615,o),
(42,1622,cs),
(1,1665,l),
(-6,1673,o),
(-8,1683,o),
(-7,1693,cs),
(0,1744,ls),
(2,1752,o),
(6,1757,o),
(12,1758,c),
(21,1759,o),
(36,1748,o),
(56,1726,cs),
(134,1637,o),
(191,1556,o),
(228,1481,c)
);
},
{
closed = 1;
nodes = (
(215,1390,o),
(210,1385,o),
(205,1379,c),
(212,1379,o),
(219,1380,o),
(224,1381,c),
(223,1386,o),
(222,1391,o),
(220,1397,c)
);
}
);
width = 311;
}
);
unicode = 1753;
}
{
glyphname = "jeemabove-ar";
layers = (
{
anchors = (
{
name = _MarkAbove;
pos = (195,1270);
}
);
layerId = "7FE84AD5-D318-40C5-A81A-3CDC73FF77D2";
shapes = (
{
closed = 1;
nodes = (
(306,1319,o),
(317,1325,o),
(337,1337,cs),
(350,1345,o),
(370,1352,o),
(393,1359,cs),
(396,1360,o),
(398,1362,o),
(400,1365,cs),
(402,1368,o),
(402,1370,o),
(400,1372,cs),
(398,1374,o),
(394,1375,o),
(388,1374,cs),
(341,1370,o),
(290,1370,o),
(235,1373,cs),
(180,1376,o),
(139,1384,o),
(114,1395,cs),
(67,1416,o),
(39,1444,o),
(30,1481,cs),
(14,1548,o),
(42,1605,o),
(115,1653,cs),
(152,1677,o),
(217,1696,o),
(309,1708,cs),
(312,1708,o),
(313,1709,o),
(315,1712,cs),
(329,1744,ls),
(333,1753,o),
(329,1756,o),
(318,1754,cs),
(285,1748,o),
(257,1745,o),
(235,1745,cs),
(213,1745,o),
(186,1748,o),
(153,1754,cs),
(120,1760,o),
(97,1764,o),
(82,1763,cs),
(52,1761,o),
(33,1750,o),
(26,1730,cs),
(22,1720,o),
(20,1710,o),
(20,1701,cs),
(20,1699,o),
(21,1698,o),
(23,1698,cs),
(25,1698,o),
(28,1698,o),
(30,1699,cs),
(56,1714,o),
(95,1716,o),
(147,1703,c),
(71,1667,o),
(25,1609,o),
(7,1531,cs),
(-11,1453,o),
(6,1396,o),
(56,1359,cs),
(106,1322,o),
(188,1309,o),
(301,1319,cs)
);
},
{
closed = 1;
nodes = (
(227,1529,ls),
(228,1531,o),
(228,1532,o),
(226,1534,cs),
(214,1545,o),
(200,1553,o),
(185,1558,cs),
(183,1559,o),
(181,1559,o),
(180,1557,cs),
(152,1515,ls),
(151,1514,o),
(151,1512,o),
(153,1511,cs),
(177,1496,o),
(190,1488,o),
(193,1486,cs),
(196,1484,o),
(198,1483,o),
(199,1485,cs)
);
}
);
width = 401;
},
{
anchors = (
{
name = _MarkAbove;
pos = (195,1270);
}
);
layerId = "037FF2D3-C03F-44B0-90AB-89AFD43EFA27";
shapes = (
{
closed = 1;
nodes = (
(178,1565,o),
(185,1565,o),
(196,1561,cs),
(207,1557,o),
(218,1550,o),
(230,1539,c),
(234,1534,o),
(235,1530,o),
(233,1525,c),
(205,1481,ls),
(201,1475,o),
(197,1474,o),
(192,1478,cs),
(187,1482,o),
(172,1491,o),
(149,1505,cs),
(144,1508,o),
(143,1512,o),
(146,1518,c),
(174,1561,l)
);
},
{
closed = 1;
nodes = (
(322,1709,ls),
(320,1703,o),
(316,1701,o),
(310,1700,cs),
(219,1688,o),
(155,1669,o),
(119,1646,c),
(50,1600,o),
(23,1546,o),
(38,1483,c),
(47,1448,o),
(73,1421,o),
(117,1401,c),
(142,1390,o),
(182,1383,o),
(236,1380,cs),
(290,1377,o),
(341,1377,o),
(388,1381,cs),
(396,1382,o),
(402,1380,o),
(406,1376,cs),
(410,1372,o),
(409,1367,o),
(406,1362,cs),
(403,1357,o),
(400,1354,o),
(395,1353,cs),
(372,1346,o),
(352,1337,o),
(335,1327,cs),
(318,1317,o),
(307,1313,o),
(301,1312,cs),
(186,1302,o),
(103,1316,o),
(51,1354,cs),
(-1,1392,o),
(-18,1452,o),
(0,1533,c),
(17,1607,o),
(59,1663,o),
(125,1700,c),
(85,1707,o),
(55,1704,o),
(34,1692,cs),
(30,1690,o),
(25,1689,o),
(21,1690,c),
(15,1692,o),
(13,1697,o),
(13,1705,cs),
(13,1713,o),
(15,1721,o),
(19,1732,cs),
(28,1755,o),
(48,1768,o),
(81,1770,c),
(97,1771,o),
(121,1767,o),
(154,1761,cs),
(187,1755,o),
(214,1752,o),
(236,1752,cs),
(258,1752,o),
(278,1755,o),
(297,1758,cs),
(316,1761,o),
(328,1761,o),
(334,1759,cs),
(340,1757,o),
(340,1751,o),
(336,1741,cs)
);
}
);
width = 409;
}
);
unicode = 1754;
}
{
glyphname = "threedotsabove-ar";
layers = (
{
anchors = (
{
name = _MarkAbove;
pos = (185,1270);
}
);
layerId = "7FE84AD5-D318-40C5-A81A-3CDC73FF77D2";
shapes = (
{
closed = 1;
nodes = (
(180,1521,o),
(182,1522,o),
(185,1520,cs),
(205,1509,o),
(220,1495,o),
(234,1477,cs),
(236,1474,o),
(236,1471,o),
(234,1469,cs),
(186,1417,ls),
(184,1415,o),
(181,1415,o),
(178,1419,cs),
(175,1423,o),
(158,1438,o),
(129,1464,cs),
(127,1466,o),
(127,1467,o),
(129,1469,cs),
(178,1519,ls)
);
},
{
closed = 1;
nodes = (
(250,1423,o),
(251,1423,o),
(254,1422,cs),
(274,1411,o),
(291,1397,o),
(304,1379,cs),
(306,1376,o),
(306,1374,o),
(304,1372,cs),
(255,1319,ls),
(253,1317,o),
(251,1318,o),
(248,1322,cs),
(248,1322,o),
(231,1337,o),
(199,1367,cs),
(197,1369,o),
(197,1370,o),
(198,1372,cs),
(248,1421,ls)
);
},
{
closed = 1;
nodes = (
(109,1423,o),
(112,1424,o),
(114,1422,cs),
(134,1411,o),
(150,1397,o),
(164,1379,cs),
(166,1376,o),
(166,1374,o),
(164,1372,cs),
(115,1319,ls),
(114,1317,o),
(111,1319,o),
(107,1322,cs),
(107,1322,o),
(91,1337,o),
(59,1367,cs),
(57,1369,o),
(57,1370,o),
(58,1372,cs),
(107,1421,ls)
);
}
);
width = 0;
},
{
anchors = (
{
name = _MarkAbove;
pos = (185,1270);
}
);
layerId = "037FF2D3-C03F-44B0-90AB-89AFD43EFA27";
shapes = (
{
closed = 1;
nodes = (
(161,1512,o),
(182,1529,o),
(188,1526,cs),
(209,1514,o),
(226,1499,o),
(240,1481,c),
(244,1475,o),
(244,1469,o),
(240,1464,c),
(191,1412,l),
(185,1406,o),
(180,1406,o),
(175,1412,cs),
(170,1418,o),
(153,1433,o),
(125,1459,cs),
(119,1464,o),
(119,1469,o),
(124,1475,c)
);
},
{
closed = 1;
nodes = (
(247,1431,o),
(252,1431,o),
(258,1428,c),
(279,1416,o),
(296,1401,o),
(310,1383,c),
(314,1377,o),
(313,1372,o),
(309,1367,c),
(260,1314,ls),
(255,1309,o),
(250,1309,o),
(246,1313,cs),
(242,1317,o),
(224,1333,o),
(194,1361,c),
(189,1366,o),
(189,1372,o),
(193,1377,c),
(242,1427,l)
);
},
{
closed = 1;
nodes = (
(107,1431,o),
(112,1432,o),
(118,1428,cs),
(138,1416,o),
(155,1401,o),
(169,1383,c),
(173,1377,o),
(173,1372,o),
(169,1367,c),
(120,1314,ls),
(115,1309,o),
(111,1309,o),
(106,1313,cs),
(101,1317,o),
(84,1333,o),
(54,1361,c),
(49,1366,o),
(49,1372,o),
(53,1377,c),
(102,1427,l)
);
}
);
width = 0;
}
);
unicode = 1755;
}
{
glyphname = "seenabove-ar";
layers = (
{
anchors = (
{
name = _MarkAbove;
pos = (288,1270);
},
{
name = _SeenAbove;
pos = (249,1318);
}
);
layerId = "7FE84AD5-D318-40C5-A81A-3CDC73FF77D2";
shapes = (
{
closed = 1;
nodes = (
(178,1317,o),
(227,1333,o),
(271,1368,cs),
(291,1384,o),
(305,1404,o),
(313,1428,cs),
(321,1452,o),
(327,1481,o),
(329,1514,c),
(362,1509,o),
(386,1523,o),
(403,1554,c),
(427,1540,o),
(448,1534,o),
(466,1538,cs),
(472,1539,o),
(476,1542,o),
(480,1548,cs),
(494,1570,o),
(500,1596,o),
(500,1624,cs),
(500,1642,o),
(498,1655,o),
(493,1663,cs),
(491,1666,o),
(488,1667,o),
(485,1667,cs),
(482,1667,o),
(480,1666,o),
(479,1662,cs),
(469,1620,ls),
(468,1618,o),
(469,1615,o),
(471,1613,cs),
(473,1611,o),
(474,1607,o),
(474,1601,c),
(455,1599,o),
(438,1604,o),
(423,1615,c),
(427,1635,o),
(426,1645,o),
(422,1648,cs),
(420,1649,o),
(418,1649,o),
(416,1648,cs),
(414,1647,o),
(413,1645,o),
(412,1642,cs),
(405,1613,o),
(398,1596,o),
(390,1589,cs),
(370,1573,o),
(350,1567,o),
(330,1571,cs),
(327,1572,o),
(322,1577,o),
(316,1588,cs),
(310,1599,o),
(305,1605,o),
(303,1607,cs),
(301,1609,o),
(300,1608,o),
(298,1606,cs),
(292,1598,o),
(285,1585,o),
(277,1567,cs),
(276,1564,o),
(277,1562,o),
(279,1558,cs),
(296,1521,o),
(304,1488,o),
(302,1458,c),
(268,1405,o),
(210,1378,o),
(130,1380,cs),
(71,1382,o),
(35,1408,o),
(21,1458,cs),
(16,1474,o),
(27,1505,o),
(51,1552,cs),
(52,1554,o),
(52,1557,o),
(51,1559,cs),
(50,1561,o),
(48,1561,o),
(46,1561,cs),
(44,1561,o),
(41,1560,o),
(40,1557,cs),
(22,1524,o),
(11,1494,o),
(5,1466,cs),
(-1,1438,o),
(-1,1416,o),
(3,1401,cs),
(18,1348,o),
(59,1321,o),
(125,1319,cs)
);
}
);
width = 500;
},
{
anchors = (
{
name = _MarkAbove;
pos = (288,1270);
},
{
name = _SeenAbove;
pos = (249,1318);
}
);
layerId = "037FF2D3-C03F-44B0-90AB-89AFD43EFA27";
shapes = (
{
closed = 1;
nodes = (
(500,1674,o),
(508,1658,o),
(508,1626,cs),
(508,1594,o),
(500,1567,o),
(486,1544,cs),
(481,1537,o),
(475,1532,o),
(467,1530,c),
(449,1527,o),
(429,1532,o),
(406,1544,c),
(388,1517,o),
(364,1504,o),
(335,1506,c),
(333,1475,o),
(328,1448,o),
(320,1424,cs),
(312,1400,o),
(296,1379,o),
(275,1362,c),
(229,1327,o),
(180,1310,o),
(125,1312,cs),
(56,1314,o),
(12,1343,o),
(-4,1399,c),
(-9,1415,o),
(-8,1438,o),
(-2,1467,cs),
(4,1496,o),
(16,1528,o),
(34,1561,cs),
(37,1566,o),
(41,1568,o),
(46,1568,cs),
(51,1568,o),
(55,1566,o),
(57,1562,cs),
(59,1557,o),
(59,1553,o),
(57,1549,cs),
(34,1504,o),
(24,1474,o),
(28,1460,cs),
(42,1413,o),
(76,1390,o),
(130,1388,c),
(206,1386,o),
(261,1410,o),
(294,1460,c),
(295,1488,o),
(288,1519,o),
(272,1554,cs),
(269,1561,o),
(269,1566,o),
(271,1570,cs),
(279,1588,o),
(286,1601,o),
(291,1608,cs),
(297,1616,o),
(301,1618,o),
(306,1614,cs),
(311,1610,o),
(315,1604,o),
(320,1595,cs),
(325,1586,o),
(329,1580,o),
(332,1578,c),
(350,1575,o),
(367,1580,o),
(385,1595,c),
(392,1601,o),
(397,1618,o),
(404,1644,cs),
(406,1650,o),
(409,1653,o),
(413,1655,c),
(418,1657,o),
(422,1657,o),
(426,1654,cs),
(433,1649,o),
(435,1637,o),
(431,1619,cs),
(431,1618,o),
(431,1618,o),
(431,1618,cs),
(442,1611,o),
(453,1607,o),
(466,1607,c),
(466,1607,o),
(466,1608,o),
(466,1609,cs),
(466,1610,o),
(464,1610,o),
(463,1612,cs),
(461,1616,o),
(461,1618,o),
(461,1619,cs),
(472,1664,l),
(475,1671,o),
(479,1675,o),
(485,1675,c)
);
}
);
width = 500;
}
);
unicode = 1756;
}
{
glyphname = "endofayah-ar";
layers = (
{
layerId = "7FE84AD5-D318-40C5-A81A-3CDC73FF77D2";
shapes = (
{
closed = 1;
nodes = (
(982,476,o),
(982,468,o),
(979,455,cs),
(976,442,o),
(968,432,o),
(953,426,c),
(932,419,o),
(912,423,o),
(893,436,c),
(885,442,o),
(884,446,o),
(890,448,cs),
(903,453,o),
(910,460,o),
(911,468,c),
(910,481,o),
(901,492,o),
(884,502,c),
(790,510,o),
(720,493,o),
(674,452,c),
(686,434,o),
(685,421,o),
(668,413,c),
(659,410,o),
(651,410,o),
(647,415,cs),
(643,420,o),
(641,424,o),
(640,429,c),
(639,424,o),
(636,420,o),
(632,415,cs),
(628,410,o),
(620,410,o),
(611,413,c),
(594,421,o),
(593,434,o),
(605,452,c),
(559,493,o),
(489,510,o),
(395,502,c),
(378,492,o),
(369,481,o),
(368,468,c),
(369,460,o),
(376,453,o),
(389,448,cs),
(395,446,o),
(394,442,o),
(386,436,c),
(367,423,o),
(347,419,o),
(326,426,c),
(311,432,o),
(302,442,o),
(299,455,cs),
(296,468,o),
(296,476,o),
(299,482,c),
(262,469,o),
(227,450,o),
(193,425,c),
(112,364,o),
(71,278,o),
(71,166,cs),
(71,54,o),
(112,-32,o),
(193,-94,c),
(227,-119,o),
(262,-137,o),
(299,-150,c),
(296,-145,o),
(296,-136,o),
(299,-123,cs),
(302,-110,o),
(311,-100,o),
(326,-94,c),
(347,-88,o),
(367,-91,o),
(386,-104,c),
(393,-110,o),
(393,-114,o),
(384,-117,c),
(374,-119,o),
(369,-126,o),
(368,-136,c),
(369,-149,o),
(378,-160,o),
(395,-170,c),
(490,-177,o),
(559,-161,o),
(605,-120,c),
(593,-102,o),
(594,-89,o),
(611,-81,c),
(620,-78,o),
(628,-78,o),
(632,-83,cs),
(636,-88,o),
(639,-92,o),
(640,-97,c),
(641,-92,o),
(643,-88,o),
(647,-83,cs),
(651,-78,o),
(659,-78,o),
(668,-81,c),
(685,-89,o),
(686,-102,o),
(674,-120,c),
(720,-161,o),
(790,-177,o),
(885,-170,c),
(902,-160,o),
(910,-149,o),
(911,-136,c),
(910,-126,o),
(906,-119,o),
(896,-117,c),
(887,-114,o),
(887,-110,o),
(894,-104,c),
(913,-91,o),
(932,-88,o),
(953,-94,c),
(968,-100,o),
(977,-110,o),
(980,-123,cs),
(983,-136,o),
(983,-145,o),
(980,-150,c),
(1017,-137,o),
(1052,-119,o),
(1086,-94,c),
(1167,-32,o),
(1208,54,o),
(1208,166,cs),
(1208,278,o),
(1167,364,o),
(1086,425,c),
(1052,450,o),
(1016,469,o),
(979,482,c)
);
},
{
closed = 1;
nodes = (
(577,-158,o),
(553,-194,o),
(554,-231,c),
(555,-264,o),
(584,-301,o),
(640,-343,c),
(696,-301,o),
(725,-264,o),
(726,-231,c),
(727,-194,o),
(702,-158,o),
(654,-123,cs),
(646,-117,o),
(641,-111,o),
(640,-104,c),
(639,-111,o),
(633,-117,o),
(625,-123,cs)
);
},
{
closed = 1;
nodes = (
(833,-254,o),
(837,-246,o),
(844,-239,cs),
(851,-233,o),
(859,-229,o),
(868,-229,cs),
(875,-229,o),
(884,-232,o),
(892,-239,cs),
(898,-244,o),
(902,-252,o),
(902,-263,cs),
(902,-272,o),
(899,-280,o),
(892,-287,cs),
(886,-293,o),
(878,-297,o),
(868,-297,cs),
(859,-297,o),
(851,-294,o),
(844,-287,cs),
(838,-281,o),
(835,-273,o),
(834,-263,cs)
);
},
{
closed = 1;
nodes = (
(376,-254,o),
(380,-246,o),
(387,-239,cs),
(394,-233,o),
(402,-229,o),
(411,-229,cs),
(418,-229,o),
(427,-232,o),
(435,-239,cs),
(441,-244,o),
(444,-252,o),
(444,-263,cs),
(444,-272,o),
(442,-280,o),
(435,-287,cs),
(429,-293,o),
(421,-297,o),
(411,-297,cs),
(402,-297,o),
(394,-294,o),
(387,-287,cs),
(381,-281,o),
(378,-273,o),
(377,-263,cs)
);
},
{
closed = 1;
nodes = (
(833,603,o),
(837,611,o),
(844,618,cs),
(851,624,o),
(859,628,o),
(868,628,cs),
(875,628,o),
(884,625,o),
(892,618,cs),
(898,613,o),
(902,605,o),
(902,594,cs),
(902,585,o),
(899,577,o),
(892,570,cs),
(886,564,o),
(878,561,o),
(868,561,cs),
(859,561,o),
(851,563,o),
(844,570,cs),
(838,576,o),
(835,584,o),
(834,594,cs)
);
},
{
closed = 1;
nodes = (
(376,603,o),
(380,611,o),
(387,618,cs),
(394,624,o),
(402,628,o),
(411,628,cs),
(418,628,o),
(427,625,o),
(435,618,cs),
(441,613,o),
(444,605,o),
(444,594,cs),
(444,585,o),
(442,577,o),
(435,570,cs),
(429,564,o),
(421,561,o),
(411,561,cs),
(402,561,o),
(394,563,o),
(387,570,cs),
(381,576,o),
(378,584,o),
(377,594,cs)
);
},
{
closed = 1;
nodes = (
(635,-369,o),
(613,-353,o),
(574,-325,cs),
(535,-297,o),
(511,-273,o),
(503,-252,cs),
(495,-231,o),
(495,-211,o),
(504,-193,c),
(479,-196,o),
(456,-197,o),
(433,-197,cs),
(336,-196,o),
(251,-169,o),
(178,-114,cs),
(89,-47,o),
(44,46,o),
(44,166,cs),
(44,286,o),
(89,379,o),
(178,446,c),
(252,500,o),
(337,528,o),
(433,529,cs),
(456,529,o),
(479,527,o),
(504,524,c),
(495,543,o),
(495,563,o),
(503,584,cs),
(511,605,o),
(535,629,o),
(574,657,cs),
(613,685,o),
(635,701,o),
(640,705,c),
(645,701,o),
(667,685,o),
(706,657,cs),
(745,629,o),
(768,605,o),
(776,584,cs),
(784,563,o),
(784,543,o),
(775,524,c),
(800,527,o),
(824,529,o),
(847,529,cs),
(943,528,o),
(1028,500,o),
(1102,446,c),
(1191,379,o),
(1235,286,o),
(1235,166,cs),
(1235,46,o),
(1191,-47,o),
(1102,-114,cs),
(1029,-169,o),
(944,-196,o),
(847,-197,cs),
(824,-197,o),
(800,-196,o),
(775,-193,c),
(784,-211,o),
(784,-231,o),
(776,-252,cs),
(768,-273,o),
(744,-297,o),
(705,-325,cs),
(666,-353,o),
(645,-369,o),
(640,-373,c)
);
},
{
closed = 1;
nodes = (
(641,443,o),
(646,449,o),
(654,455,cs),
(702,490,o),
(726,527,o),
(726,563,c),
(725,597,o),
(696,634,o),
(640,675,c),
(584,634,o),
(555,597,o),
(554,563,c),
(554,526,o),
(577,490,o),
(625,455,cs),
(633,449,o),
(639,443,o),
(640,436,c)
);
}
);
width = 1279;
},
{
layerId = "037FF2D3-C03F-44B0-90AB-89AFD43EFA27";
shapes = (
{
closed = 1;
nodes = (
(1129,-81,o),
(1199,20,o),
(1199,166,cs),
(1199,275,o),
(1160,358,o),
(1082,418,c),
(1053,439,o),
(1022,457,o),
(990,469,c),
(989,441,o),
(977,424,o),
(954,417,cs),
(931,410,o),
(909,415,o),
(888,429,c),
(873,441,o),
(873,450,o),
(887,456,c),
(896,459,o),
(901,463,o),
(902,468,c),
(901,477,o),
(893,486,o),
(881,494,c),
(794,501,o),
(730,485,o),
(686,450,c),
(697,430,o),
(692,416,o),
(672,405,c),
(659,399,o),
(648,402,o),
(640,411,c),
(632,402,o),
(619,400,o),
(603,408,cs),
(587,416,o),
(584,430,o),
(594,450,c),
(550,486,o),
(484,501,o),
(397,494,c),
(384,486,o),
(378,477,o),
(377,468,c),
(378,463,o),
(381,460,o),
(387,458,cs),
(406,451,o),
(407,441,o),
(391,429,c),
(369,414,o),
(346,410,o),
(323,418,c),
(301,427,o),
(290,444,o),
(289,469,c),
(257,456,o),
(227,439,o),
(198,418,c),
(119,358,o),
(80,275,o),
(80,166,cs),
(80,57,o),
(120,-27,o),
(198,-87,c),
(227,-108,o),
(257,-125,o),
(289,-137,c),
(290,-110,o),
(302,-92,o),
(324,-85,c),
(349,-78,o),
(371,-82,o),
(391,-97,c),
(395,-100,o),
(398,-105,o),
(400,-111,cs),
(402,-117,o),
(397,-122,o),
(386,-125,c),
(381,-127,o),
(378,-131,o),
(377,-136,c),
(379,-146,o),
(385,-154,o),
(397,-162,c),
(484,-168,o),
(550,-153,o),
(594,-118,c),
(583,-98,o),
(587,-84,o),
(607,-73,c),
(620,-67,o),
(632,-70,o),
(640,-79,c),
(648,-70,o),
(661,-68,o),
(677,-76,cs),
(693,-84,o),
(696,-98,o),
(686,-118,c),
(730,-153,o),
(795,-168,o),
(882,-162,c),
(894,-154,o),
(901,-145,o),
(902,-136,c),
(901,-130,o),
(899,-127,o),
(894,-126,cs),
(889,-125,o),
(885,-121,o),
(881,-116,cs),
(877,-111,o),
(879,-104,o),
(889,-97,c),
(911,-82,o),
(933,-78,o),
(956,-86,c),
(978,-95,o),
(989,-112,o),
(990,-137,c)
);
},
{
closed = 1;
nodes = (
(584,-164,o),
(562,-196,o),
(562,-230,c),
(564,-259,o),
(590,-293,o),
(640,-332,c),
(690,-293,o),
(715,-259,o),
(717,-230,c),
(717,-196,o),
(694,-163,o),
(649,-130,cs),
(645,-127,o),
(643,-125,o),
(640,-122,c),
(637,-125,o),
(634,-127,o),
(630,-130,cs)
);
},
{
closed = 1;
nodes = (
(890,-301,o),
(880,-305,o),
(868,-305,cs),
(856,-305,o),
(847,-302,o),
(839,-294,cs),
(831,-286,o),
(827,-276,o),
(826,-264,cs),
(825,-252,o),
(830,-242,o),
(838,-234,cs),
(857,-216,o),
(876,-215,o),
(897,-232,c),
(905,-239,o),
(910,-249,o),
(910,-262,cs),
(910,-275,o),
(906,-285,o),
(898,-293,c)
);
},
{
closed = 1;
nodes = (
(432,-301,o),
(423,-305,o),
(411,-305,cs),
(399,-305,o),
(389,-302,o),
(381,-294,cs),
(373,-286,o),
(370,-276,o),
(369,-264,cs),
(368,-252,o),
(372,-242,o),
(380,-234,cs),
(399,-216,o),
(419,-215,o),
(440,-232,c),
(448,-239,o),
(452,-249,o),
(452,-262,cs),
(452,-275,o),
(448,-285,o),
(440,-293,c)
);
},
{
closed = 1;
nodes = (
(890,556,o),
(880,552,o),
(868,552,cs),
(856,552,o),
(847,556,o),
(839,564,cs),
(831,572,o),
(827,582,o),
(826,594,cs),
(825,606,o),
(830,616,o),
(838,624,cs),
(857,642,o),
(876,642,o),
(897,625,c),
(905,618,o),
(910,608,o),
(910,595,cs),
(910,582,o),
(906,572,o),
(898,564,c)
);
},
{
closed = 1;
nodes = (
(432,556,o),
(423,552,o),
(411,552,cs),
(399,552,o),
(389,556,o),
(381,564,cs),
(373,572,o),
(370,582,o),
(369,594,cs),
(368,606,o),
(372,616,o),
(380,624,cs),
(399,642,o),
(419,642,o),
(440,625,c),
(448,618,o),
(452,608,o),
(452,595,cs),
(452,582,o),
(448,572,o),
(440,564,c)
);
},
{
closed = 1;
nodes = (
(793,-220,o),
(790,-238,o),
(782,-259,cs),
(774,-280,o),
(750,-303,o),
(711,-331,cs),
(672,-359,o),
(650,-374,o),
(646,-378,cs),
(642,-382,o),
(637,-382,o),
(633,-378,cs),
(629,-374,o),
(607,-359,o),
(568,-331,cs),
(529,-303,o),
(505,-279,o),
(497,-258,cs),
(489,-237,o),
(487,-220,o),
(491,-203,c),
(470,-205,o),
(452,-206,o),
(433,-206,cs),
(334,-205,o),
(248,-177,o),
(173,-121,cs),
(82,-53,o),
(36,43,o),
(36,166,cs),
(36,289,o),
(82,384,o),
(173,453,c),
(248,508,o),
(335,536,o),
(433,537,cs),
(452,537,o),
(471,536,o),
(491,534,c),
(486,551,o),
(489,570,o),
(497,591,cs),
(505,612,o),
(529,635,o),
(568,663,cs),
(607,691,o),
(629,706,o),
(633,710,cs),
(637,714,o),
(642,714,o),
(646,710,cs),
(650,706,o),
(673,691,o),
(712,663,cs),
(751,635,o),
(775,611,o),
(783,590,cs),
(791,569,o),
(792,551,o),
(788,534,c),
(809,536,o),
(828,537,o),
(847,537,cs),
(945,536,o),
(1031,508,o),
(1106,453,c),
(1197,384,o),
(1244,288,o),
(1244,166,cs),
(1244,44,o),
(1197,-53,o),
(1106,-121,cs),
(1031,-177,o),
(945,-205,o),
(847,-206,cs),
(828,-206,o),
(808,-205,o),
(788,-203,c)
);
},
{
closed = 1;
nodes = (
(643,457,o),
(645,460,o),
(649,462,c),
(694,496,o),
(717,529,o),
(717,563,c),
(715,593,o),
(690,627,o),
(640,664,c),
(590,626,o),
(564,593,o),
(562,563,c),
(562,528,o),
(585,495,o),
(630,462,cs),
(634,459,o),
(637,457,o),
(640,454,c)
);
}
);
width = 1279;
}
);
unicode = 1757;
}
{
glyphname = "hizb-ar";
layers = (
{
layerId = "7FE84AD5-D318-40C5-A81A-3CDC73FF77D2";
shapes = (
{
closed = 1;
nodes = (
(353,-116,o),
(365,-98,o),
(361,-62,cs),
(343,125,l),
(462,-20,ls),
(485,-49,o),
(507,-53,o),
(526,-34,cs),
(545,-15,o),
(540,7,o),
(512,30,cs),
(367,149,l),
(554,131,ls),
(590,127,o),
(608,139,o),
(608,166,cs),
(608,193,o),
(590,205,o),
(554,201,cs),
(367,183,l),
(512,302,ls),
(540,325,o),
(544,347,o),
(525,366,cs),
(506,385,o),
(485,380,o),
(462,352,cs),
(343,206,l),
(361,394,ls),
(365,430,o),
(353,448,o),
(326,448,cs),
(299,448,o),
(287,430,o),
(291,394,cs),
(309,207,l),
(190,352,ls),
(167,380,o),
(146,385,o),
(127,366,cs),
(108,347,o),
(113,325,o),
(141,302,cs),
(286,183,l),
(99,201,ls),
(63,205,o),
(44,193,o),
(44,166,cs),
(44,139,o),
(63,127,o),
(99,131,cs),
(286,149,l),
(141,30,ls),
(113,7,o),
(107,-15,o),
(126,-34,cs),
(145,-53,o),
(167,-48,o),
(190,-20,cs),
(309,125,l),
(291,-62,ls),
(287,-98,o),
(299,-116,o),
(326,-116,cs)
);
}
);
width = 652;
},
{
layerId = "037FF2D3-C03F-44B0-90AB-89AFD43EFA27";
shapes = (
{
closed = 1;
nodes = (
(363,463,o),
(379,439,o),
(375,392,c),
(362,253,l),
(451,361,l),
(481,397,o),
(510,402,o),
(536,376,c),
(562,349,o),
(557,321,o),
(521,291,c),
(413,202,l),
(552,216,l),
(599,220,o),
(623,204,o),
(623,167,c),
(623,130,o),
(599,113,o),
(552,117,c),
(413,130,l),
(521,42,l),
(557,12,o),
(562,-17,o),
(536,-43,c),
(509,-69,o),
(481,-64,o),
(451,-28,c),
(362,79,l),
(375,-60,l),
(379,-107,o),
(363,-130,o),
(326,-130,c),
(289,-130,o),
(272,-107,o),
(276,-60,c),
(290,79,l),
(201,-28,l),
(171,-64,o),
(142,-69,o),
(116,-43,c),
(90,-17,o),
(95,12,o),
(131,42,c),
(239,130,l),
(100,117,l),
(53,113,o),
(29,130,o),
(29,167,c),
(29,204,o),
(53,220,o),
(100,216,c),
(239,202,l),
(131,291,l),
(95,321,o),
(90,349,o),
(116,376,c),
(142,402,o),
(171,397,o),
(201,361,c),
(290,253,l),
(276,392,l),
(272,439,o),
(289,463,o),
(326,463,c)
);
}
);
width = 652;
}
);
unicode = 1758;
}
{
glyphname = "sukunround-ar";
layers = (
{
anchors = (
{
name = _MarkAbove;
pos = (180,801);
},
{
name = _TashkilAbove;
pos = (182,801);
}
);
layerId = "7FE84AD5-D318-40C5-A81A-3CDC73FF77D2";
shapes = (
{
closed = 1;
nodes = (
(197,826,o),
(217,831,o),
(228,842,cs),
(246,859,o),
(256,884,o),
(259,917,cs),
(261,943,o),
(248,967,o),
(218,989,cs),
(178,1018,o),
(145,1009,o),
(120,965,cs),
(113,952,o),
(108,938,o),
(105,922,cs),
(95,861,o),
(116,830,o),
(167,828,cs)
);
},
{
closed = 1;
nodes = (
(192,890,o),
(162,891,o),
(138,901,cs),
(130,904,o),
(127,911,o),
(128,920,cs),
(130,941,o),
(144,950,o),
(170,950,cs),
(187,949,o),
(204,941,o),
(220,925,cs),
(235,909,o),
(237,900,o),
(225,897,cs)
);
}
);
width = 259;
},
{
anchors = (
{
name = _MarkAbove;
pos = (180,801);
},
{
name = _TashkilAbove;
pos = (182,801);
}
);
layerId = "037FF2D3-C03F-44B0-90AB-89AFD43EFA27";
shapes = (
{
closed = 1;
nodes = (
(220,902,o),
(219,909,o),
(205,920,cs),
(191,931,o),
(180,937,o),
(173,937,cs),
(158,937,o),
(149,930,o),
(148,917,cs),
(147,910,o),
(150,906,o),
(156,903,cs),
(170,896,o),
(188,894,o),
(208,899,cs)
);
},
{
closed = 1;
nodes = (
(115,928,o),
(123,948,o),
(135,966,cs),
(156,995,o),
(182,998,o),
(214,976,c),
(239,957,o),
(250,936,o),
(248,911,cs),
(246,886,o),
(238,867,o),
(224,854,cs),
(210,841,o),
(187,836,o),
(157,841,cs),
(127,846,o),
(112,868,o),
(114,905,cs)
);
}
);
width = 259;
}
);
unicode = 1759;
}
{
glyphname = "sukunoval-ar";
layers = (
{
anchors = (
{
name = _MarkAbove;
pos = (180,801);
},
{
name = _TashkilAbove;
pos = (182,801);
}
);
layerId = "7FE84AD5-D318-40C5-A81A-3CDC73FF77D2";
shapes = (
{
closed = 1;
nodes = (
(198,847,o),
(215,858,o),
(231,881,cs),
(247,904,o),
(256,934,o),
(256,973,cs),
(256,1011,o),
(247,1041,o),
(231,1064,cs),
(215,1087,o),
(198,1099,o),
(178,1099,cs),
(159,1099,o),
(141,1087,o),
(125,1064,cs),
(109,1042,o),
(101,1011,o),
(101,973,cs),
(101,934,o),
(109,904,o),
(125,881,cs),
(141,858,o),
(159,847,o),
(178,847,cs)
);
},
{
closed = 1;
nodes = (
(162,866,o),
(151,874,o),
(146,892,cs),
(142,906,o),
(141,933,o),
(141,973,cs),
(141,1014,o),
(142,1041,o),
(146,1053,cs),
(152,1071,o),
(163,1080,o),
(178,1080,cs),
(195,1080,o),
(205,1071,o),
(210,1053,cs),
(214,1039,o),
(216,1012,o),
(216,973,cs),
(216,933,o),
(214,906,o),
(210,892,cs),
(205,874,o),
(195,866,o),
(178,866,cs)
);
}
);
width = 256;
},
{
anchors = (
{
name = _MarkAbove;
pos = (180,801);
},
{
name = _TashkilAbove;
pos = (182,801);
}
);
layerId = "037FF2D3-C03F-44B0-90AB-89AFD43EFA27";
shapes = (
{
closed = 1;
nodes = (
(216,1012,o),
(214,1039,o),
(210,1053,cs),
(205,1071,o),
(195,1080,o),
(178,1080,cs),
(163,1080,o),
(152,1071,o),
(146,1053,cs),
(142,1041,o),
(141,1014,o),
(141,973,cs),
(141,933,o),
(142,906,o),
(146,892,cs),
(151,874,o),
(162,866,o),
(178,866,cs),
(195,866,o),
(205,874,o),
(210,892,cs),
(214,906,o),
(216,933,o),
(216,973,cs)
);
},
{
closed = 1;
nodes = (
(94,1013,o),
(103,1045,o),
(120,1069,cs),
(137,1093,o),
(158,1105,o),
(179,1105,cs),
(200,1105,o),
(220,1093,o),
(237,1069,cs),
(254,1045,o),
(263,1012,o),
(263,972,cs),
(263,932,o),
(254,900,o),
(237,876,cs),
(220,852,o),
(199,840,o),
(178,840,cs),
(157,840,o),
(137,852,o),
(120,876,cs),
(103,900,o),
(94,933,o),
(94,973,cs)
);
}
);
width = 256;
}
);
unicode = 1760;
}
{
glyphname = "hahabove-ar";
layers = (
{
anchors = (
{
name = TashkilTashkilAbove;
pos = (179,1069);
},
{
name = _MarkAbove;
pos = (180,801);
},
{
name = _TashkilAbove;
pos = (182,801);
},
{
name = _TashkilAboveDot;
pos = (182,801);
}
);
layerId = "7FE84AD5-D318-40C5-A81A-3CDC73FF77D2";
shapes = (
{
closed = 1;
nodes = (
(177,868,o),
(189,874,o),
(199,883,cs),
(212,893,o),
(230,910,o),
(254,934,cs),
(262,942,o),
(269,952,o),
(273,962,cs),
(280,980,o),
(275,991,o),
(260,995,cs),
(199,1010,ls),
(174,1016,o),
(154,1013,o),
(139,1001,cs),
(126,991,o),
(111,977,o),
(95,957,cs),
(91,952,o),
(92,947,o),
(96,941,cs),
(99,937,o),
(102,937,o),
(107,939,cs),
(123,946,o),
(141,950,o),
(159,949,cs),
(176,948,o),
(193,944,o),
(214,935,c),
(181,909,o),
(139,894,o),
(87,890,cs),
(83,890,o),
(81,887,o),
(80,883,c),
(79,877,o),
(81,873,o),
(87,872,cs),
(117,865,o),
(142,863,o),
(164,866,cs)
);
}
);
width = 276;
},
{
anchors = (
{
name = TashkilTashkilAbove;
pos = (179,1069);
},
{
name = _MarkAbove;
pos = (180,801);
},
{
name = _TashkilAbove;
pos = (182,801);
},
{
name = _TashkilAboveDot;
pos = (182,801);
}
);
layerId = "037FF2D3-C03F-44B0-90AB-89AFD43EFA27";
shapes = (
{
closed = 1;
nodes = (
(283,997,o),
(289,983,o),
(280,960,cs),
(275,949,o),
(264,935,o),
(248,918,cs),
(232,901,o),
(217,888,o),
(205,878,cs),
(179,857,o),
(138,852,o),
(85,865,cs),
(77,867,o),
(73,872,o),
(73,881,cs),
(73,890,o),
(77,896,o),
(87,897,c),
(132,901,o),
(169,913,o),
(199,933,c),
(166,944,o),
(137,944,o),
(110,932,c),
(101,928,o),
(95,930,o),
(89,938,cs),
(83,946,o),
(83,954,o),
(89,961,cs),
(106,982,o),
(122,998,o),
(137,1010,cs),
(152,1022,o),
(174,1025,o),
(201,1018,cs),
(262,1002,ls)
);
}
);
width = 284;
}
);
unicode = 1761;
}
{
glyphname = "meemStopabove-ar";
layers = (
{
anchors = (
{
name = _MarkAbove;
pos = (155,801);
},
{
name = _TashkilAbove;
pos = (156,801);
},
{
name = _TashkilAboveDot;
pos = (156,801);
},
{
name = _TashkilTashkilAbove;
pos = (220,1050);
},
{
name = _TashkilTashkilAbove2;
pos = (220,1050);
}
);
layerId = "7FE84AD5-D318-40C5-A81A-3CDC73FF77D2";
shapes = (
{
closed = 1;
nodes = (
(68,1042,o),
(64,1045,o),
(70,1061,cs),
(77,1082,o),
(89,1100,o),
(102,1114,cs),
(115,1128,o),
(133,1128,o),
(156,1115,cs),
(174,1105,o),
(188,1089,o),
(198,1070,cs),
(201,1065,o),
(202,1059,o),
(201,1053,cs),
(196,1020,ls),
(195,1013,o),
(189,1008,o),
(180,1007,cs),
(105,997,o),
(65,980,o),
(58,954,c),
(86,879,o),
(101,825,o),
(103,792,cs),
(104,779,o),
(101,772,o),
(95,771,cs),
(88,770,o),
(84,776,o),
(81,787,cs),
(77,804,o),
(69,830,o),
(56,865,cs),
(42,901,o),
(36,933,o),
(38,959,c),
(42,1008,o),
(74,1040,o),
(133,1053,c),
(119,1069,o),
(102,1070,o),
(83,1054,cs)
);
}
);
width = 201;
},
{
anchors = (
{
name = _MarkAbove;
pos = (155,801);
},
{
name = _TashkilAbove;
pos = (156,801);
},
{
name = _TashkilAboveDot;
pos = (156,801);
},
{
name = _TashkilTashkilAbove;
pos = (220,1050);
},
{
name = _TashkilTashkilAbove2;
pos = (220,1050);
}
);
layerId = "037FF2D3-C03F-44B0-90AB-89AFD43EFA27";
shapes = (
{
closed = 1;
nodes = (
(115,1067,o),
(103,1067,o),
(90,1058,cs),
(77,1049,o),
(69,1044,o),
(65,1045,c),
(58,1047,o),
(58,1057,o),
(65,1077,cs),
(72,1097,o),
(83,1113,o),
(98,1125,cs),
(113,1137,o),
(134,1136,o),
(160,1121,c),
(179,1110,o),
(194,1094,o),
(205,1074,cs),
(209,1067,o),
(209,1059,o),
(208,1052,cs),
(203,1019,l),
(201,1009,o),
(194,1002,o),
(181,1000,cs),
(112,991,o),
(73,976,o),
(65,954,c),
(92,880,o),
(108,825,o),
(110,792,cs),
(111,775,o),
(106,766,o),
(96,764,c),
(85,763,o),
(78,770,o),
(74,786,cs),
(70,802,o),
(61,828,o),
(48,864,cs),
(35,900,o),
(29,932,o),
(31,959,c),
(36,1007,o),
(68,1040,o),
(127,1058,c)
);
}
);
width = 209;
}
);
unicode = 1762;
}
